<?xml version="1.0" encoding="UTF-8" standalone="no"?>
<!-- Created with Inkscape (http://www.inkscape.org/) -->

<svg
   xmlns:dc="http://purl.org/dc/elements/1.1/"
   xmlns:cc="http://creativecommons.org/ns#"
   xmlns:rdf="http://www.w3.org/1999/02/22-rdf-syntax-ns#"
   xmlns:svg="http://www.w3.org/2000/svg"
   xmlns="http://www.w3.org/2000/svg"
   xmlns:sodipodi="http://sodipodi.sourceforge.net/DTD/sodipodi-0.dtd"
   xmlns:inkscape="http://www.inkscape.org/namespaces/inkscape"
   width="1208.8733"
   height="338.40219"
   viewBox="0 0 607.71069 170.1176"
   version="1.1"
   id="svg8"
   inkscape:version="0.92.3 (3ce5693, 2018-03-11)"
   sodipodi:docname="hero.svg">
  <defs
     id="defs2" />
  <sodipodi:namedview
     id="base"
     pagecolor="#ffffff"
     bordercolor="#666666"
     borderopacity="1.0"
     inkscape:pageopacity="0.0"
     inkscape:pageshadow="2"
     inkscape:zoom="0.98994949"
     inkscape:cx="370.59102"
     inkscape:cy="171.09278"
     inkscape:document-units="mm"
     inkscape:current-layer="layer1"
     showgrid="false"
     fit-margin-top="0"
     fit-margin-left="0"
     fit-margin-right="0"
     fit-margin-bottom="0"
     inkscape:window-width="1920"
     inkscape:window-height="1029"
     inkscape:window-x="0"
     inkscape:window-y="27"
     inkscape:window-maximized="1"
     units="px"
     scale-x="1.9" />
  <metadata
     id="metadata5">
    <rdf:RDF>
      <cc:Work
         rdf:about="">
        <dc:format>image/svg+xml</dc:format>
        <dc:type
           rdf:resource="http://purl.org/dc/dcmitype/StillImage" />
        <dc:title></dc:title>
      </cc:Work>
    </rdf:RDF>
  </metadata>
  <g
     inkscape:label="Layer 1"
     inkscape:groupmode="layer"
     id="layer1"
     transform="translate(-6.1754998,-52.316944)">
    <g
       id="svgg"
       transform="matrix(0.40635953,0,0,0.36930976,-3.4985303,66.820362)"
       style="fill:#b3b3b3">
      <path
         d="M 195.875,0.263 C 103.011,6.174 39.025,63.558 26.264,152.375 c -8.187,56.976 4.156,111.342 35.928,158.25 35.715,52.729 88.946,83.542 148.808,86.139 56.828,2.465 98.468,-34.659 98.497,-87.814 0.006,-9.954 -1.512,-16.077 -7.36,-29.7 -11.56,-26.928 -9.692,-32.48 17.499,-52 29.238,-20.99 41.338,-33.973 50.673,-54.375 9.751,-21.309 13.423,-51.172 8.685,-70.625 C 368.713,60.042 329.479,23.951 277.625,9.001 253.734,2.114 221.29,-1.354 195.875,0.263 m 32.5,16.35 c 42.684,3.279 75.934,15.461 101.25,37.095 21.463,18.343 35.386,44.505 35.373,66.47 -0.015,23.183 -5.111,42.639 -15.109,57.678 -7.944,11.949 -15.905,19.325 -37.389,34.64 -20.564,14.66 -27.158,21.696 -30.697,32.754 -3.601,11.251 -2.357,20.5 5.31,39.465 5.713,14.132 6.259,16.305 6.254,24.91 -0.023,41.385 -30.469,70.35 -74.693,71.06 C 156.036,381.69 97.542,344.706 64.27,283.061 40.958,239.87 34.072,190.297 44.519,140.875 59.975,67.752 116.94,21.157 196.875,16.253 c 5.274,-0.323 25.635,-0.091 31.5,0.36 m -20.5,23.143 c -26.427,2.312 -41.935,38.449 -28.246,65.818 13.599,27.188 44.404,28.751 59.75,3.033 17.543,-29.399 -1.703,-71.459 -31.504,-68.851 m 6.853,16.627 c 13.69,4.325 19.757,27.186 11.458,43.174 -7.902,15.225 -23.9,15.196 -31.787,-0.057 -10.631,-20.559 2.639,-48.705 20.329,-43.117 m -95.853,23.215 c -30.172,5.014 -42.233,48.975 -20.531,74.834 20.888,24.888 56.065,9.664 60.187,-26.047 3.137,-27.182 -17.428,-52.481 -39.656,-48.787 m 175,-0.084 c -29.427,3.974 -42.433,47.457 -22.014,73.601 21.204,27.15 58.681,10.864 61.391,-26.677 1.922,-26.623 -17.584,-49.867 -39.377,-46.924 M 127.302,95.998 c 12.125,3.766 19.019,23.529 13.539,38.81 -6.937,19.341 -25.224,21.392 -34.025,3.817 -10.171,-20.309 3.144,-48.012 20.486,-42.627 M 299.75,95.517 c 14.851,2.409 22.495,25.937 14.005,43.108 -8.855,17.909 -27.843,15.341 -34.199,-4.625 -6.077,-19.091 5.361,-40.888 20.194,-38.483 m -188.875,87.26 c -22.774,3.282 -37.614,33.152 -29.237,58.848 11.198,34.346 48.844,38.156 64.239,6.5 14.893,-30.625 -5.948,-69.535 -35.002,-65.348 m 7.726,16.217 c 14.081,3.601 20.837,26.829 12.534,43.098 -8.033,15.741 -24.406,15.611 -32.237,-0.256 -9.932,-20.125 2.535,-47.233 19.703,-42.842 m 92.774,62.921 c -40.955,3.318 -59.631,51.581 -31.268,80.802 28.583,29.447 78.221,11.428 81.693,-29.654 2.397,-28.369 -22.305,-53.426 -50.425,-51.148 m 5.5,16.089 c 20.918,1.712 33.863,21.437 27.46,41.839 -8.939,28.481 -51.221,28.27 -60.186,-0.3 -6.217,-19.814 6.799,-39.846 26.976,-41.516 1.375,-0.114 2.556,-0.221 2.625,-0.238 0.069,-0.017 1.475,0.079 3.125,0.215"
         id="path0"
         inkscape:connector-curvature="0"
         style="fill:#b3b3b3;fill-rule:evenodd;stroke:none" />
      <path
         d="M 195.875,0.263 C 103.011,6.174 39.025,63.558 26.264,152.375 c -8.187,56.976 4.156,111.342 35.928,158.25 35.715,52.729 88.946,83.542 148.808,86.139 56.828,2.465 98.468,-34.659 98.497,-87.814 0.006,-9.954 -1.512,-16.077 -7.36,-29.7 -11.56,-26.928 -9.692,-32.48 17.499,-52 29.238,-20.99 41.338,-33.973 50.673,-54.375 9.751,-21.309 13.423,-51.172 8.685,-70.625 C 368.713,60.042 329.479,23.951 277.625,9.001 253.734,2.114 221.29,-1.354 195.875,0.263 m 32.5,16.35 c 42.684,3.279 75.934,15.461 101.25,37.095 21.463,18.343 35.386,44.505 35.373,66.47 -0.015,23.183 -5.111,42.639 -15.109,57.678 -7.944,11.949 -15.905,19.325 -37.389,34.64 -20.564,14.66 -27.158,21.696 -30.697,32.754 -3.601,11.251 -2.357,20.5 5.31,39.465 5.713,14.132 6.259,16.305 6.254,24.91 -0.023,41.385 -30.469,70.35 -74.693,71.06 C 156.036,381.69 97.542,344.706 64.27,283.061 40.958,239.87 34.072,190.297 44.519,140.875 59.975,67.752 116.94,21.157 196.875,16.253 c 5.274,-0.323 25.635,-0.091 31.5,0.36 m -20.5,23.143 c -26.427,2.312 -41.935,38.449 -28.246,65.818 13.599,27.188 44.404,28.751 59.75,3.033 17.543,-29.399 -1.703,-71.459 -31.504,-68.851 m 6.853,16.627 c 13.69,4.325 19.757,27.186 11.458,43.174 -7.902,15.225 -23.9,15.196 -31.787,-0.057 -10.631,-20.559 2.639,-48.705 20.329,-43.117 m -95.853,23.215 c -30.172,5.014 -42.233,48.975 -20.531,74.834 20.888,24.888 56.065,9.664 60.187,-26.047 3.137,-27.182 -17.428,-52.481 -39.656,-48.787 m 175,-0.084 c -29.427,3.974 -42.433,47.457 -22.014,73.601 21.204,27.15 58.681,10.864 61.391,-26.677 1.922,-26.623 -17.584,-49.867 -39.377,-46.924 M 127.302,95.998 c 12.125,3.766 19.019,23.529 13.539,38.81 -6.937,19.341 -25.224,21.392 -34.025,3.817 -10.171,-20.309 3.144,-48.012 20.486,-42.627 M 299.75,95.517 c 14.851,2.409 22.495,25.937 14.005,43.108 -8.855,17.909 -27.843,15.341 -34.199,-4.625 -6.077,-19.091 5.361,-40.888 20.194,-38.483 m -188.875,87.26 c -22.774,3.282 -37.614,33.152 -29.237,58.848 11.198,34.346 48.844,38.156 64.239,6.5 14.893,-30.625 -5.948,-69.535 -35.002,-65.348 m 7.726,16.217 c 14.081,3.601 20.837,26.829 12.534,43.098 -8.033,15.741 -24.406,15.611 -32.237,-0.256 -9.932,-20.125 2.535,-47.233 19.703,-42.842 m 92.774,62.921 c -40.955,3.318 -59.631,51.581 -31.268,80.802 28.583,29.447 78.221,11.428 81.693,-29.654 2.397,-28.369 -22.305,-53.426 -50.425,-51.148 m 5.5,16.089 c 20.918,1.712 33.863,21.437 27.46,41.839 -8.939,28.481 -51.221,28.27 -60.186,-0.3 -6.217,-19.814 6.799,-39.846 26.976,-41.516 1.375,-0.114 2.556,-0.221 2.625,-0.238 0.069,-0.017 1.475,0.079 3.125,0.215"
         id="path1"
         inkscape:connector-curvature="0"
         style="fill:#b3b3b3;fill-rule:evenodd;stroke:none" />
      <path
         d="M 195.875,0.263 C 103.011,6.174 39.025,63.558 26.264,152.375 c -8.187,56.976 4.156,111.342 35.928,158.25 35.715,52.729 88.946,83.542 148.808,86.139 56.828,2.465 98.468,-34.659 98.497,-87.814 0.006,-9.954 -1.512,-16.077 -7.36,-29.7 -11.56,-26.928 -9.692,-32.48 17.499,-52 29.238,-20.99 41.338,-33.973 50.673,-54.375 9.751,-21.309 13.423,-51.172 8.685,-70.625 C 368.713,60.042 329.479,23.951 277.625,9.001 253.734,2.114 221.29,-1.354 195.875,0.263 m 32.5,16.35 c 42.684,3.279 75.934,15.461 101.25,37.095 21.463,18.343 35.386,44.505 35.373,66.47 -0.015,23.183 -5.111,42.639 -15.109,57.678 -7.944,11.949 -15.905,19.325 -37.389,34.64 -20.564,14.66 -27.158,21.696 -30.697,32.754 -3.601,11.251 -2.357,20.5 5.31,39.465 5.713,14.132 6.259,16.305 6.254,24.91 -0.023,41.385 -30.469,70.35 -74.693,71.06 C 156.036,381.69 97.542,344.706 64.27,283.061 40.958,239.87 34.072,190.297 44.519,140.875 59.975,67.752 116.94,21.157 196.875,16.253 c 5.274,-0.323 25.635,-0.091 31.5,0.36 m -20.5,23.143 c -26.427,2.312 -41.935,38.449 -28.246,65.818 13.599,27.188 44.404,28.751 59.75,3.033 17.543,-29.399 -1.703,-71.459 -31.504,-68.851 m 6.853,16.627 c 13.69,4.325 19.757,27.186 11.458,43.174 -7.902,15.225 -23.9,15.196 -31.787,-0.057 -10.631,-20.559 2.639,-48.705 20.329,-43.117 m -95.853,23.215 c -30.172,5.014 -42.233,48.975 -20.531,74.834 20.888,24.888 56.065,9.664 60.187,-26.047 3.137,-27.182 -17.428,-52.481 -39.656,-48.787 m 175,-0.084 c -29.427,3.974 -42.433,47.457 -22.014,73.601 21.204,27.15 58.681,10.864 61.391,-26.677 1.922,-26.623 -17.584,-49.867 -39.377,-46.924 M 127.302,95.998 c 12.125,3.766 19.019,23.529 13.539,38.81 -6.937,19.341 -25.224,21.392 -34.025,3.817 -10.171,-20.309 3.144,-48.012 20.486,-42.627 M 299.75,95.517 c 14.851,2.409 22.495,25.937 14.005,43.108 -8.855,17.909 -27.843,15.341 -34.199,-4.625 -6.077,-19.091 5.361,-40.888 20.194,-38.483 m -188.875,87.26 c -22.774,3.282 -37.614,33.152 -29.237,58.848 11.198,34.346 48.844,38.156 64.239,6.5 14.893,-30.625 -5.948,-69.535 -35.002,-65.348 m 7.726,16.217 c 14.081,3.601 20.837,26.829 12.534,43.098 -8.033,15.741 -24.406,15.611 -32.237,-0.256 -9.932,-20.125 2.535,-47.233 19.703,-42.842 m 92.774,62.921 c -40.955,3.318 -59.631,51.581 -31.268,80.802 28.583,29.447 78.221,11.428 81.693,-29.654 2.397,-28.369 -22.305,-53.426 -50.425,-51.148 m 5.5,16.089 c 20.918,1.712 33.863,21.437 27.46,41.839 -8.939,28.481 -51.221,28.27 -60.186,-0.3 -6.217,-19.814 6.799,-39.846 26.976,-41.516 1.375,-0.114 2.556,-0.221 2.625,-0.238 0.069,-0.017 1.475,0.079 3.125,0.215"
         id="path2"
         inkscape:connector-curvature="0"
         style="fill:#b3b3b3;fill-rule:evenodd;stroke:none" />
      <path
         d="M 195.875,0.263 C 103.011,6.174 39.025,63.558 26.264,152.375 c -8.187,56.976 4.156,111.342 35.928,158.25 35.715,52.729 88.946,83.542 148.808,86.139 56.828,2.465 98.468,-34.659 98.497,-87.814 0.006,-9.954 -1.512,-16.077 -7.36,-29.7 -11.56,-26.928 -9.692,-32.48 17.499,-52 29.238,-20.99 41.338,-33.973 50.673,-54.375 9.751,-21.309 13.423,-51.172 8.685,-70.625 C 368.713,60.042 329.479,23.951 277.625,9.001 253.734,2.114 221.29,-1.354 195.875,0.263 m 32.5,16.35 c 42.684,3.279 75.934,15.461 101.25,37.095 21.463,18.343 35.386,44.505 35.373,66.47 -0.015,23.183 -5.111,42.639 -15.109,57.678 -7.944,11.949 -15.905,19.325 -37.389,34.64 -20.564,14.66 -27.158,21.696 -30.697,32.754 -3.601,11.251 -2.357,20.5 5.31,39.465 5.713,14.132 6.259,16.305 6.254,24.91 -0.023,41.385 -30.469,70.35 -74.693,71.06 C 156.036,381.69 97.542,344.706 64.27,283.061 40.958,239.87 34.072,190.297 44.519,140.875 59.975,67.752 116.94,21.157 196.875,16.253 c 5.274,-0.323 25.635,-0.091 31.5,0.36 m -20.5,23.143 c -26.427,2.312 -41.935,38.449 -28.246,65.818 13.599,27.188 44.404,28.751 59.75,3.033 17.543,-29.399 -1.703,-71.459 -31.504,-68.851 m 6.853,16.627 c 13.69,4.325 19.757,27.186 11.458,43.174 -7.902,15.225 -23.9,15.196 -31.787,-0.057 -10.631,-20.559 2.639,-48.705 20.329,-43.117 m -95.853,23.215 c -30.172,5.014 -42.233,48.975 -20.531,74.834 20.888,24.888 56.065,9.664 60.187,-26.047 3.137,-27.182 -17.428,-52.481 -39.656,-48.787 m 175,-0.084 c -29.427,3.974 -42.433,47.457 -22.014,73.601 21.204,27.15 58.681,10.864 61.391,-26.677 1.922,-26.623 -17.584,-49.867 -39.377,-46.924 M 127.302,95.998 c 12.125,3.766 19.019,23.529 13.539,38.81 -6.937,19.341 -25.224,21.392 -34.025,3.817 -10.171,-20.309 3.144,-48.012 20.486,-42.627 M 299.75,95.517 c 14.851,2.409 22.495,25.937 14.005,43.108 -8.855,17.909 -27.843,15.341 -34.199,-4.625 -6.077,-19.091 5.361,-40.888 20.194,-38.483 m -188.875,87.26 c -22.774,3.282 -37.614,33.152 -29.237,58.848 11.198,34.346 48.844,38.156 64.239,6.5 14.893,-30.625 -5.948,-69.535 -35.002,-65.348 m 7.726,16.217 c 14.081,3.601 20.837,26.829 12.534,43.098 -8.033,15.741 -24.406,15.611 -32.237,-0.256 -9.932,-20.125 2.535,-47.233 19.703,-42.842 m 92.774,62.921 c -40.955,3.318 -59.631,51.581 -31.268,80.802 28.583,29.447 78.221,11.428 81.693,-29.654 2.397,-28.369 -22.305,-53.426 -50.425,-51.148 m 5.5,16.089 c 20.918,1.712 33.863,21.437 27.46,41.839 -8.939,28.481 -51.221,28.27 -60.186,-0.3 -6.217,-19.814 6.799,-39.846 26.976,-41.516 1.375,-0.114 2.556,-0.221 2.625,-0.238 0.069,-0.017 1.475,0.079 3.125,0.215"
         id="path3"
         inkscape:connector-curvature="0"
         style="fill:#b3b3b3;fill-rule:evenodd;stroke:none" />
      <path
         d="M 195.875,0.263 C 103.011,6.174 39.025,63.558 26.264,152.375 c -8.187,56.976 4.156,111.342 35.928,158.25 35.715,52.729 88.946,83.542 148.808,86.139 56.828,2.465 98.468,-34.659 98.497,-87.814 0.006,-9.954 -1.512,-16.077 -7.36,-29.7 -11.56,-26.928 -9.692,-32.48 17.499,-52 29.238,-20.99 41.338,-33.973 50.673,-54.375 9.751,-21.309 13.423,-51.172 8.685,-70.625 C 368.713,60.042 329.479,23.951 277.625,9.001 253.734,2.114 221.29,-1.354 195.875,0.263 m 32.5,16.35 c 42.684,3.279 75.934,15.461 101.25,37.095 21.463,18.343 35.386,44.505 35.373,66.47 -0.015,23.183 -5.111,42.639 -15.109,57.678 -7.944,11.949 -15.905,19.325 -37.389,34.64 -20.564,14.66 -27.158,21.696 -30.697,32.754 -3.601,11.251 -2.357,20.5 5.31,39.465 5.713,14.132 6.259,16.305 6.254,24.91 -0.023,41.385 -30.469,70.35 -74.693,71.06 C 156.036,381.69 97.542,344.706 64.27,283.061 40.958,239.87 34.072,190.297 44.519,140.875 59.975,67.752 116.94,21.157 196.875,16.253 c 5.274,-0.323 25.635,-0.091 31.5,0.36 m -20.5,23.143 c -26.427,2.312 -41.935,38.449 -28.246,65.818 13.599,27.188 44.404,28.751 59.75,3.033 17.543,-29.399 -1.703,-71.459 -31.504,-68.851 m 6.853,16.627 c 13.69,4.325 19.757,27.186 11.458,43.174 -7.902,15.225 -23.9,15.196 -31.787,-0.057 -10.631,-20.559 2.639,-48.705 20.329,-43.117 m -95.853,23.215 c -30.172,5.014 -42.233,48.975 -20.531,74.834 20.888,24.888 56.065,9.664 60.187,-26.047 3.137,-27.182 -17.428,-52.481 -39.656,-48.787 m 175,-0.084 c -29.427,3.974 -42.433,47.457 -22.014,73.601 21.204,27.15 58.681,10.864 61.391,-26.677 1.922,-26.623 -17.584,-49.867 -39.377,-46.924 M 127.302,95.998 c 12.125,3.766 19.019,23.529 13.539,38.81 -6.937,19.341 -25.224,21.392 -34.025,3.817 -10.171,-20.309 3.144,-48.012 20.486,-42.627 M 299.75,95.517 c 14.851,2.409 22.495,25.937 14.005,43.108 -8.855,17.909 -27.843,15.341 -34.199,-4.625 -6.077,-19.091 5.361,-40.888 20.194,-38.483 m -188.875,87.26 c -22.774,3.282 -37.614,33.152 -29.237,58.848 11.198,34.346 48.844,38.156 64.239,6.5 14.893,-30.625 -5.948,-69.535 -35.002,-65.348 m 7.726,16.217 c 14.081,3.601 20.837,26.829 12.534,43.098 -8.033,15.741 -24.406,15.611 -32.237,-0.256 -9.932,-20.125 2.535,-47.233 19.703,-42.842 m 92.774,62.921 c -40.955,3.318 -59.631,51.581 -31.268,80.802 28.583,29.447 78.221,11.428 81.693,-29.654 2.397,-28.369 -22.305,-53.426 -50.425,-51.148 m 5.5,16.089 c 20.918,1.712 33.863,21.437 27.46,41.839 -8.939,28.481 -51.221,28.27 -60.186,-0.3 -6.217,-19.814 6.799,-39.846 26.976,-41.516 1.375,-0.114 2.556,-0.221 2.625,-0.238 0.069,-0.017 1.475,0.079 3.125,0.215"
         id="path4"
         inkscape:connector-curvature="0"
         style="fill:#b3b3b3;fill-rule:evenodd;stroke:none" />
    </g>
    <g
       id="svgg-3"
       transform="matrix(0.39327314,0,0,0.42518026,456.75782,52.277402)"
       style="fill:#b3b3b3">
      <path
         d="M 112,0.686 C 104.481,2.017 93.89,12.657 92.574,20.2 92.42,21.08 92.21,21.948 92.106,22.129 91.786,22.685 91.781,27.6 92.1,27.6 c 0.165,0 0.3,0.415 0.3,0.922 0,6.83 9.38,17.178 18.087,19.955 2.461,0.785 9.224,1.26 10.113,0.71 0.22,-0.136 1.21,-0.476 2.2,-0.756 7.289,-2.061 14.128,-8.504 17.229,-16.231 0.53,-1.32 1.055,-2.49 1.167,-2.6 0.357,-0.35 0.219,-6.735 -0.14,-6.512 -0.19,0.118 -0.28,-0.602 -0.2,-1.599 0.079,-0.997 0.009,-1.729 -0.156,-1.627 -0.165,0.102 -0.3,-0.251 -0.3,-0.785 0,-1.435 -2.487,-6.138 -4.69,-8.867 C 129.761,2.839 120.607,-0.838 112,0.686 m 9.6,17.04 c 5.599,2.719 4.529,13.379 -1.512,15.056 -8.171,2.27 -13.525,-3.119 -11.195,-11.268 1.336,-4.673 7.253,-6.436 12.707,-3.788 M 280,16.836 c 0,0.13 -0.945,0.449 -2.1,0.709 -6.933,1.561 -15.104,9.318 -17.992,17.082 -4.146,11.147 4.323,26.486 16.692,30.233 1.54,0.467 3.07,0.93 3.4,1.03 0.792,0.24 5.236,0.234 6,-0.008 0.33,-0.105 1.768,-0.493 3.195,-0.864 17.691,-4.596 24.263,-25.774 12.193,-39.295 -3.535,-3.961 -11.565,-8.523 -15,-8.523 -0.433,0 -0.788,-0.135 -0.788,-0.3 0,-0.165 -1.26,-0.3 -2.8,-0.3 -1.54,0 -2.8,0.106 -2.8,0.236 m 7.319,16.904 c 6.103,2.55 6.044,13.656 -0.084,15.63 -9.483,3.054 -16.193,-6.084 -10.42,-14.191 1.337,-1.878 7.449,-2.715 10.504,-1.439 M 172.2,41.866 c -8.136,1.192 -17.942,9.679 -20.44,17.69 -0.418,1.34 -0.878,2.439 -1.023,2.441 -0.144,10e-4 -0.169,0.36 -0.054,0.797 0.114,0.437 0.078,1.112 -0.079,1.5 -0.34,0.836 -0.411,3.653 -0.114,4.506 0.115,0.33 0.434,1.59 0.709,2.8 1.543,6.794 6.87,13.398 13.791,17.098 l 2.81,1.502 h 7.2 7.2 l 3,-1.587 c 8.369,-4.428 14.4,-13.833 14.4,-22.455 0,-12.839 -14.973,-26.113 -27.4,-24.292 m 7.437,17.464 c 5.086,2.682 4.936,12.388 -0.229,14.839 -1.632,0.775 -5.807,1.34 -5.809,0.787 -10e-4,-0.196 -0.636,-0.37 -1.412,-0.386 -6.176,-0.134 -7.593,-12.299 -1.779,-15.27 2.501,-1.278 6.776,-1.264 9.229,0.03 m 57.662,7.903 c -0.165,0.149 -1.019,0.494 -1.899,0.767 -7.209,2.239 -13.862,8.571 -16.896,16.083 -0.935,2.315 -1.964,11.117 -1.299,11.117 0.113,0 0.422,0.91 0.686,2.022 3.144,13.237 20.439,22.618 31.848,17.276 20.365,-9.537 21.875,-34.502 2.689,-44.454 -4.744,-2.461 -13.681,-4.122 -15.129,-2.811 M 90,75.2 c 0,0.22 -0.521,0.4 -1.158,0.4 -7.646,0 -18.365,9.658 -21.055,18.972 -3.133,10.845 4.873,24.44 16.885,28.672 2.239,0.789 10.528,1.664 10.528,1.111 0,-0.139 0.675,-0.362 1.5,-0.495 6.787,-1.098 16.667,-10.252 18.529,-17.169 0.773,-2.869 0.553,-12.211 -0.343,-14.564 C 111.915,84.319 103.497,77.183 95.711,75.871 94.141,75.606 92.724,75.257 92.561,75.095 92.119,74.653 90,74.74 90,75.2 m 154.167,8.346 c 0.118,0.191 0.679,0.258 1.248,0.149 2.318,-0.443 4.78,3.737 4.775,8.105 -0.008,6.693 -6.752,10.254 -13.261,7.001 -5.576,-2.786 -4.987,-12.929 0.871,-15 1.772,-0.627 6.032,-0.797 6.367,-0.255 m -148.79,8.492 c 5.238,1.468 6.448,11.478 1.796,14.862 -2.878,2.094 -9.18,1.877 -11.382,-0.391 -1.875,-1.93 -3.527,-7.709 -2.204,-7.709 0.214,0 0.282,-0.277 0.152,-0.615 -0.359,-0.935 0.93,-3.91 2.236,-5.161 1.894,-1.814 5.207,-2.162 9.402,-0.986 M 306.8,92.04 c -12.693,0.894 -23.196,12.892 -22.901,26.162 0.187,8.432 9.854,19.824 18.749,22.095 1.514,0.387 2.842,0.793 2.952,0.903 0.29,0.29 5.2,0.246 5.2,-0.046 0,-0.135 0.805,-0.356 1.788,-0.49 8.972,-1.23 17.788,-10.528 19.989,-21.08 2.318,-11.121 -10.214,-27.184 -21.21,-27.184 -0.495,0 -0.96,-0.135 -1.034,-0.3 -0.073,-0.165 -1.663,-0.192 -3.533,-0.06 m 7.708,18.28 c 1.52,1.52 1.691,1.884 1.679,3.586 -0.008,1.042 0.15,2.009 0.351,2.149 0.203,0.143 0.215,0.497 0.028,0.8 -0.185,0.3 -0.284,1.044 -0.22,1.654 0.585,5.575 -8.716,8.894 -13.542,4.833 -2.714,-2.283 -3.585,-7.557 -1.899,-11.491 1.272,-2.967 2.322,-3.426 7.573,-3.315 l 4.339,0.092 1.691,1.692 M 71.133,141.618 c -16.42,0.371 -17.915,0.764 -20.058,5.281 -2.879,6.066 1.868,10.98 11.012,11.402 l 4.713,0.217 v 26.138 26.138 l -5.266,2.639 C 31.673,228.396 10.327,255.818 2.243,289.6 c -8.026,33.538 9.405,72.821 41.757,94.106 6.897,4.537 21.474,11.23 27.2,12.488 0.33,0.073 1.979,0.496 3.665,0.94 47.823,12.609 102.43,-21.644 113.723,-71.334 0.6,-2.64 1.182,-5.07 1.292,-5.4 0.111,-0.33 0.272,-1.5 0.357,-2.6 0.086,-1.1 0.256,-2.424 0.378,-2.942 0.6,-2.549 0.805,-9.684 0.422,-14.658 -3.002,-38.974 -27.08,-72.995 -62.137,-87.797 l -4.1,-1.731 V 184.536 158.4 h 3.516 c 8.258,0 12.902,-3.039 12.875,-8.426 -0.017,-3.391 -1.597,-5.714 -4.873,-7.163 -3.083,-1.364 -33.21,-1.915 -65.185,-1.193 m 37.362,47.597 -0.105,30.815 1.105,0.993 c 1.959,1.762 4.307,2.961 9.359,4.779 21.301,7.666 37.727,22.167 47.734,42.138 3.508,7.003 7.905,21.332 7.279,23.725 -0.1,0.383 -0.01,0.754 0.2,0.824 0.21,0.07 0.415,1.788 0.457,3.817 0.042,2.029 0.229,3.691 0.416,3.692 0.187,0.001 0.277,1.622 0.2,3.602 -0.078,2 0.025,3.655 0.232,3.724 0.205,0.068 0.247,0.451 0.093,0.85 -0.268,0.698 -2.378,0.713 -55.972,0.395 -30.631,-0.182 -66.297,-0.285 -79.256,-0.229 l -23.564,0.102 0.254,-6.121 c 1.113,-26.845 15.827,-51.685 40.273,-67.988 4.049,-2.7 5.818,-3.627 17.602,-9.221 5.473,-2.598 7.598,-4.26 7.598,-5.943 0,-0.423 0.135,-0.769 0.3,-0.768 0.165,0 0.239,-1.179 0.165,-2.62 -0.074,-1.442 -0.019,-2.923 0.122,-3.291 0.141,-0.368 0.242,-12.564 0.224,-27.102 -0.018,-14.539 0.093,-26.558 0.245,-26.711 0.153,-0.152 5.872,-0.277 12.711,-0.277 H 108.6 l -0.105,30.815 m 178.759,-30.419 -40.946,0.204 -1.559,1.758 c -6.144,6.923 -2.046,13.277 8.951,13.879 l 5.1,0.28 v 32.074 32.074 l -30.753,61.568 c -41.504,83.09 -44.319,89.014 -43.934,92.474 0.25,2.239 1.837,4.58 3.751,5.53 1.497,0.744 4.15,0.766 104.172,0.883 l 102.635,0.12 2.41,-2.576 c 3.625,-3.876 3.548,-4.42 -2.297,-16.264 -1.14,-2.31 -4.232,-8.7 -6.872,-14.2 -2.64,-5.5 -17.92,-36.272 -33.956,-68.383 L 324.8,239.834 V 207.377 174.92 l 5.254,-0.278 c 3.16,-0.167 5.671,-0.496 6.3,-0.827 7.869,-4.132 5.802,-14.607 -2.885,-14.621 -2.517,-0.004 -3.481,-0.128 -3.069,-0.394 0.441,-0.285 0.228,-0.364 -0.8,-0.298 -0.77,0.05 -19.826,0.182 -42.346,0.294 m 21.242,50.678 c -0.058,19.07 0.032,34.775 0.2,34.9 0.674,0.501 32.018,63.849 31.736,64.142 -0.535,0.556 -97.632,0.031 -97.632,-0.528 0,-0.183 7.2,-14.75 16,-32.373 l 16,-32.041 V 209.187 174.8 h 16.9 16.9 l -0.104,34.674 M 165.791,325.259 c 0.143,0.142 0.957,0.165 1.809,0.05 4.924,-0.66 5.24,0.355 2.362,7.597 -10.985,27.638 -31.01,43.498 -62.562,49.55 -3.786,0.726 -20.233,0.739 -23.8,0.019 C 69.092,379.545 60.628,376.304 51.162,370.051 36.431,360.322 23.017,341.681 19.463,326 l -0.227,-1 h 73.148 c 40.232,0 73.265,0.116 73.407,0.259 m 197.824,28.637 c 7.909,15.787 14.381,28.939 14.382,29.227 0.003,0.558 -169.81,0.672 -171.893,0.115 -0.947,-0.254 -0.622,-0.958 13.506,-29.249 L 234.087,325 l 57.575,0.096 57.575,0.096 14.378,28.704"
         id="path0-6"
         inkscape:connector-curvature="0"
         style="fill:#b3b3b3;fill-rule:evenodd;stroke:none" />
      <path
         d="m 115.7,0.276 c 0.385,0.1 1.015,0.1 1.4,0 0.385,-0.101 0.07,-0.183 -0.7,-0.183 -0.77,0 -1.085,0.082 -0.7,0.183 M 133.4,7.6 c 0.859,0.88 1.652,1.6 1.762,1.6 0.11,0 -0.503,-0.72 -1.362,-1.6 -0.859,-0.88 -1.652,-1.6 -1.762,-1.6 -0.11,0 0.503,0.72 1.362,1.6 M 99.375,8.1 98.2,9.4 99.5,8.225 c 1.212,-1.095 1.484,-1.425 1.175,-1.425 -0.069,0 -0.654,0.585 -1.3,1.3 m 15.73,8.583 c 0.497,0.096 1.217,0.092 1.6,-0.008 0.382,-0.1 -0.025,-0.179 -0.905,-0.174 -0.88,0.004 -1.193,0.086 -0.695,0.182 m 9.557,5.917 c 0.134,0.88 0.31,1.675 0.391,1.767 0.303,0.343 0.076,-1.799 -0.272,-2.567 -0.252,-0.558 -0.288,-0.315 -0.119,0.8 M 266,24.6 c -0.972,0.99 -1.677,1.8 -1.567,1.8 0.11,0 0.995,-0.81 1.967,-1.8 0.972,-0.99 1.677,-1.8 1.567,-1.8 -0.11,0 -0.995,0.81 -1.967,1.8 m 33.2,-1.275 c 0,0.069 0.585,0.654 1.3,1.3 l 1.3,1.175 -1.175,-1.3 C 299.53,23.288 299.2,23.016 299.2,23.325 M 124.859,25.8 c -0.039,0.66 -0.163,1.65 -0.276,2.2 l -0.206,1 0.431,-0.986 c 0.236,-0.542 0.36,-1.532 0.275,-2.2 l -0.155,-1.214 -0.069,1.2 m -16.431,1.676 c 0.09,1.039 0.716,1.92 0.744,1.048 0.015,-0.482 -0.152,-0.988 -0.372,-1.124 -0.22,-0.136 -0.387,-0.102 -0.372,0.076 m 170.846,6.064 c -0.509,0.143 1.149,0.26 3.683,0.26 2.534,0 4.301,-0.122 3.926,-0.272 -0.862,-0.343 -6.376,-0.335 -7.609,0.012 m 28.403,8.26 c 0.005,2.531 0.043,2.662 0.391,1.357 0.247,-0.929 0.246,-1.926 -0.006,-2.8 -0.345,-1.2 -0.389,-1.033 -0.385,1.443 M 165.1,44.027 c -0.825,0.436 -1.5,0.881 -1.5,0.991 0,0.178 3.159,-1.299 3.567,-1.667 0.46,-0.417 -0.742,-0.023 -2.067,0.676 m 125.979,0.53 c -0.164,0.417 -0.204,0.852 -0.088,0.967 0.364,0.365 0.685,-0.233 0.533,-0.993 -0.141,-0.696 -0.162,-0.695 -0.445,0.026 M 276,46.525 c 0,0.069 0.585,0.654 1.3,1.3 L 278.6,49 277.425,47.7 C 276.33,46.488 276,46.216 276,46.525 M 192,49.8 c 1.417,1.43 2.667,2.6 2.777,2.6 0.11,0 -0.96,-1.17 -2.377,-2.6 -1.417,-1.43 -2.667,-2.6 -2.777,-2.6 -0.11,0 0.96,1.17 2.377,2.6 m 96.841,-1.566 c -0.748,0.531 -1.163,0.966 -0.922,0.966 0.24,0 0.941,-0.444 1.559,-0.987 1.413,-1.244 1.13,-1.234 -0.637,0.021 M 109.2,48.437 c 0,0.2 0.165,0.363 0.367,0.363 0.202,0 0.682,0.121 1.066,0.268 0.439,0.168 0.602,0.112 0.439,-0.152 -0.342,-0.553 -1.872,-0.944 -1.872,-0.479 m 4.8,1.201 c 1.329,0.375 4.013,0.379 4.96,0.008 0.426,-0.168 -0.716,-0.297 -2.6,-0.295 -1.992,0.003 -2.953,0.119 -2.36,0.287 m 125,17.104 c -0.776,0.178 0.071,0.297 2.4,0.336 1.98,0.034 4.492,0.338 5.581,0.677 1.09,0.339 2.054,0.543 2.143,0.454 C 249.82,67.514 241.13,66.255 239,66.742 m -3.784,0.892 c -1.202,0.426 -2.348,0.938 -2.547,1.137 -0.199,0.199 0.729,-0.033 2.063,-0.516 1.333,-0.483 2.554,-1.008 2.713,-1.166 0.375,-0.375 0.337,-0.366 -2.229,0.545 M 224.185,74.9 222.2,77 l 2.1,-1.985 c 1.951,-1.844 2.283,-2.215 1.985,-2.215 -0.063,0 -1.008,0.945 -2.1,2.1 M 173.6,74.863 c 0,0.456 3.095,0.431 3.378,-0.027 0.123,-0.2 -0.586,-0.352 -1.577,-0.337 -0.99,0.015 -1.801,0.179 -1.801,0.364 m -81,0.337 c 0.136,0.22 0.517,0.4 0.847,0.4 0.33,0 0.489,-0.18 0.353,-0.4 -0.136,-0.22 -0.517,-0.4 -0.847,-0.4 -0.33,0 -0.489,0.18 -0.353,0.4 m 100.025,7.519 c -2.324,2.58 -2.432,2.756 -0.668,1.081 1.812,-1.72 3.964,-4.24 3.57,-4.181 -0.07,0.011 -1.376,1.406 -2.902,3.1 M 74.378,83.1 73,84.6 74.5,83.222 c 1.396,-1.284 1.684,-1.622 1.378,-1.622 -0.066,0 -0.741,0.675 -1.5,1.5 M 108.8,83 c 0.746,0.77 1.447,1.4 1.557,1.4 0.11,0 -0.411,-0.63 -1.157,-1.4 -0.746,-0.77 -1.447,-1.4 -1.557,-1.4 -0.11,0 0.411,0.63 1.157,1.4 m 130.251,0.518 c -0.108,0.174 1.039,0.317 2.549,0.317 1.51,0 2.657,-0.143 2.549,-0.317 -0.108,-0.175 -1.255,-0.318 -2.549,-0.318 -1.294,0 -2.441,0.143 -2.549,0.318 m 10.183,4.282 c -0.012,0.44 0.153,1.07 0.366,1.4 0.514,0.795 0.514,-0.204 0,-1.4 l -0.344,-0.8 -0.022,0.8 m -15.906,3.8 c 0,1.43 0.073,2.015 0.161,1.3 0.089,-0.715 0.089,-1.885 0,-2.6 -0.088,-0.715 -0.161,-0.13 -0.161,1.3 M 182.2,89.885 c -0.44,0.106 -0.98,0.375 -1.2,0.599 -0.5,0.507 1.419,-0.005 1.98,-0.529 0.209,-0.195 0.299,-0.334 0.2,-0.309 -0.099,0.026 -0.54,0.133 -0.98,0.239 m -14.078,0.389 c 0.341,0.551 7.531,0.935 10.278,0.548 1.737,-0.244 1.007,-0.321 -3.467,-0.366 -3.117,-0.031 -5.982,-0.177 -6.366,-0.324 -0.431,-0.165 -0.601,-0.111 -0.445,0.142 m 81.648,1.525 c 0.039,1.827 0.63,1.828 0.63,10e-4 0,-0.77 -0.149,-1.4 -0.33,-1.4 -0.182,0 -0.317,0.629 -0.3,1.399 M 266.093,91.6 c 0,0.77 0.082,1.085 0.183,0.7 0.1,-0.385 0.1,-1.015 0,-1.4 -0.101,-0.385 -0.183,-0.07 -0.183,0.7 M 88.6,91.612 c -1.024,0.307 -0.945,0.331 0.538,0.163 2.262,-0.256 6.29,0.475 8.062,1.463 l 1.4,0.78 -0.932,-0.799 C 96.004,91.792 90.972,90.9 88.6,91.612 m -20.612,1.02 c -1.297,3.411 -1.626,11.89 -0.505,13.011 0.34,0.34 0.364,0.063 0.095,-1.094 -0.627,-2.705 -0.44,-7.878 0.38,-10.513 0.756,-2.428 0.775,-3.365 0.03,-1.404 M 85.775,93.3 84.6,94.6 85.9,93.425 C 87.112,92.33 87.384,92 87.075,92 c -0.069,0 -0.654,0.585 -1.3,1.3 m 29.973,6.7 c 0,2.31 0.066,3.255 0.147,2.1 0.081,-1.155 0.081,-3.045 0,-4.2 -0.081,-1.155 -0.147,-0.21 -0.147,2.1 M 325.2,99.4 c 0.746,0.77 1.447,1.4 1.557,1.4 0.11,0 -0.411,-0.63 -1.157,-1.4 -0.746,-0.77 -1.447,-1.4 -1.557,-1.4 -0.11,0 0.411,0.63 1.157,1.4 m -242,0.8 c 0,0.77 0.18,1.4 0.4,1.4 0.22,0 0.4,-0.63 0.4,-1.4 0,-0.77 -0.18,-1.4 -0.4,-1.4 -0.22,0 -0.4,0.63 -0.4,1.4 m 247.395,7.069 c 0.569,1.247 1.304,3.587 1.633,5.2 0.751,3.677 1.017,4.319 0.718,1.731 -0.293,-2.528 -2.007,-7.809 -2.791,-8.6 -0.335,-0.337 -0.142,0.393 0.44,1.669 M 224,108.141 c 1.21,1.277 2.74,2.696 3.4,3.155 1.372,0.953 1.406,0.988 -2.6,-2.708 -2.858,-2.636 -2.896,-2.658 -0.8,-0.447 M 86.4,107.138 c 1.668,1.389 6.534,1.626 9.304,0.454 0.646,-0.273 0.449,-0.297 -0.704,-0.085 -2.907,0.533 -7.12,0.289 -8.41,-0.486 l -1.19,-0.716 1,0.833 m 172.185,1.362 c -1.981,2.095 -1.982,2.096 -0.161,0.391 1.004,-0.94 1.919,-1.615 2.034,-1.5 0.115,0.115 0.209,-0.061 0.209,-0.391 0,-0.77 0.199,-0.913 -2.082,1.5 m 27.292,-1.8 c -0.402,0.708 -1.544,4.566 -1.396,4.715 0.09,0.089 0.542,-1.002 1.005,-2.426 0.746,-2.297 0.898,-3.181 0.391,-2.289 M 68.4,108.153 c 0,0.429 1.19,2.647 1.421,2.647 0.11,0 -0.098,-0.585 -0.462,-1.3 -0.742,-1.46 -0.959,-1.764 -0.959,-1.347 m 234.5,1.043 c -0.715,0.436 -1.3,0.907 -1.3,1.047 0,0.14 0.225,0.07 0.5,-0.155 0.275,-0.226 1.13,-0.683 1.9,-1.017 0.77,-0.333 1.13,-0.62 0.8,-0.637 -0.33,-0.017 -1.185,0.326 -1.9,0.762 M 112.185,112.5 c -0.617,0.935 -0.865,1.489 -0.553,1.231 0.601,-0.497 2.132,-2.931 1.844,-2.931 -0.093,0 -0.674,0.765 -1.291,1.7 m 121.215,2.114 c 0.66,0.303 1.47,0.544 1.8,0.538 0.33,-0.007 -0.03,-0.255 -0.8,-0.552 -1.826,-0.703 -2.545,-0.693 -1,0.014 m -124.222,1.686 -1.378,1.5 1.5,-1.378 c 1.396,-1.284 1.684,-1.622 1.378,-1.622 -0.066,0 -0.741,0.675 -1.5,1.5 m 132.927,-0.013 c 0.609,0.092 1.509,0.09 2,-0.005 0.492,-0.095 -0.005,-0.171 -1.105,-0.168 -1.1,0.003 -1.503,0.081 -0.895,0.173 M 283.693,118 c 0,0.77 0.082,1.085 0.183,0.7 0.1,-0.385 0.1,-1.015 0,-1.4 -0.101,-0.385 -0.183,-0.07 -0.183,0.7 m 48.64,2.6 c -0.14,0.88 -0.365,1.96 -0.499,2.4 -0.135,0.44 0.037,0.192 0.382,-0.55 0.345,-0.743 0.57,-1.823 0.499,-2.4 -0.103,-0.847 -0.177,-0.74 -0.382,0.55 m -30.332,1.938 c 1.055,1.202 2.808,2.273 3.679,2.246 0.286,-0.008 -0.11,-0.288 -0.88,-0.622 -0.77,-0.333 -1.939,-1.091 -2.599,-1.684 l -1.198,-1.078 0.998,1.138 m -17.399,0.662 c 0.364,1.211 1.748,4 1.984,4 0.178,0 -1.766,-4.454 -2.095,-4.8 -0.105,-0.11 -0.055,0.25 0.111,0.8 m 22.698,1.887 c 0.605,0.091 1.595,0.091 2.2,0 0.605,-0.092 0.11,-0.167 -1.1,-0.167 -1.21,0 -1.705,0.075 -1.1,0.167 m -20.5,2.699 c 0,0.631 2.824,4.09 5.072,6.213 l 2.328,2.2 -2.453,-2.6 c -1.349,-1.429 -3.014,-3.391 -3.7,-4.359 -0.686,-0.968 -1.247,-1.622 -1.247,-1.454 M 78.7,141.493 c 0.935,0.084 2.465,0.084 3.4,0 0.935,-0.084 0.17,-0.153 -1.7,-0.153 -1.87,0 -2.635,0.069 -1.7,0.153 m 32.2,-0.002 c 0.825,0.087 2.175,0.087 3,0 0.825,-0.086 0.15,-0.157 -1.5,-0.157 -1.65,0 -2.325,0.071 -1.5,0.157 m 17.6,0.385 c 0.385,0.1 1.015,0.1 1.4,0 0.385,-0.101 0.07,-0.183 -0.7,-0.183 -0.77,0 -1.085,0.082 -0.7,0.183 m -76.9,12.649 c 0,0.069 0.585,0.654 1.3,1.3 L 54.2,157 53.025,155.7 C 51.93,154.488 51.6,154.216 51.6,154.525 M 247,158.4 c 0.161,0.261 11.33,0.4 32.2,0.4 20.87,0 32.039,-0.139 32.2,-0.4 0.164,-0.265 -10.67,-0.4 -32.2,-0.4 -21.53,0 -32.364,0.135 -32.2,0.4 M 66.4,184.456 c 0,24.333 -0.046,26.093 -0.7,26.622 -0.632,0.511 -0.612,0.524 0.2,0.13 l 0.9,-0.436 v -26.186 c 0,-14.402 -0.09,-26.186 -0.2,-26.186 -0.11,0 -0.2,11.725 -0.2,26.056 m 264,-25.656 c -0.436,0.282 -0.108,0.388 1.2,0.388 0.99,0 2.07,-0.175 2.4,-0.388 0.436,-0.282 0.108,-0.388 -1.2,-0.388 -0.99,0 -2.07,0.175 -2.4,0.388 M 83.27,176.9 c 0.046,11.767 0.167,16.421 0.346,13.3 0.45,-7.846 0.439,-31.4 -0.016,-31.4 -0.262,0 -0.376,6.253 -0.33,18.1 m 255.1,-4.663 c -1.431,1.529 -2.309,1.916 -4.97,2.192 l -2.4,0.249 2.12,0.061 c 1.168,0.034 2.605,-0.192 3.2,-0.503 1.011,-0.528 3.674,-3.036 3.225,-3.036 -0.113,0 -0.642,0.467 -1.175,1.037 m -93.17,0.782 c 0,0.294 2.449,1.431 2.809,1.305 0.195,-0.068 -0.358,-0.426 -1.227,-0.794 -0.87,-0.369 -1.582,-0.599 -1.582,-0.511 m 4.5,1.668 c 0.605,0.091 1.595,0.091 2.2,0 0.605,-0.092 0.11,-0.167 -1.1,-0.167 -1.21,0 -1.705,0.075 -1.1,0.167 m 25.291,34.513 c 0,19.03 0.049,26.815 0.109,17.3 0.06,-9.515 0.06,-25.085 0,-34.6 -0.06,-9.515 -0.109,-1.73 -0.109,17.3 M 83.1,212.228 c -0.165,0.168 -0.295,0.95 -0.288,1.739 0.01,1.18 0.085,1.308 0.426,0.723 0.458,-0.788 0.337,-2.945 -0.138,-2.462 M 156,229.4 c 0.746,0.77 1.447,1.4 1.557,1.4 0.11,0 -0.411,-0.63 -1.157,-1.4 -0.746,-0.77 -1.447,-1.4 -1.557,-1.4 -0.11,0 0.411,0.63 1.157,1.4 m -119.2,0.74 c -0.55,0.503 -1.447,1.443 -1.992,2.088 -0.546,0.644 -0.051,0.279 1.1,-0.813 1.892,-1.795 2.295,-2.241 1.992,-2.202 -0.055,0.007 -0.55,0.424 -1.1,0.927 m 25.8,0.85 c -0.88,0.542 -1.441,0.991 -1.247,0.998 0.402,0.014 3.047,-1.566 3.047,-1.821 0,-0.268 -0.116,-0.215 -1.8,0.823 m -34.2,7.61 c -0.972,0.99 -1.677,1.8 -1.567,1.8 0.11,0 0.995,-0.81 1.967,-1.8 0.972,-0.99 1.677,-1.8 1.567,-1.8 -0.11,0 -0.995,0.81 -1.967,1.8 m 119.6,4.8 c 0.746,0.77 1.447,1.4 1.557,1.4 0.11,0 -0.411,-0.63 -1.157,-1.4 -0.746,-0.77 -1.447,-1.4 -1.557,-1.4 -0.11,0 0.411,0.63 1.157,1.4 m -105.6,2.8 c -0.972,0.99 -1.677,1.8 -1.567,1.8 0.11,0 0.995,-0.81 1.967,-1.8 0.972,-0.99 1.677,-1.8 1.567,-1.8 -0.11,0 -0.995,0.81 -1.967,1.8 m 109.983,1.5 c 1.658,1.766 2.017,2.084 2.017,1.783 0,-0.064 -0.855,-0.919 -1.9,-1.9 l -1.9,-1.783 1.783,1.9 m 21.002,1.8 c 0.617,0.935 1.198,1.7 1.291,1.7 0.288,0 -1.243,-2.434 -1.844,-2.931 -0.312,-0.258 -0.064,0.296 0.553,1.231 M 334.8,260 c 0.885,1.76 1.699,3.2 1.809,3.2 0.11,0 -0.524,-1.44 -1.409,-3.2 -0.885,-1.76 -1.699,-3.2 -1.809,-3.2 -0.11,0 0.524,1.44 1.409,3.2 m -170.6,4 c 0.341,0.66 0.711,1.2 0.821,1.2 0.11,0 -0.08,-0.54 -0.421,-1.2 -0.341,-0.66 -0.711,-1.2 -0.821,-1.2 -0.11,0 0.08,0.54 0.421,1.2 m 80,3.6 c -1.214,2.42 -2.117,4.4 -2.007,4.4 0.11,0 1.193,-1.98 2.407,-4.4 1.214,-2.42 2.117,-4.4 2.007,-4.4 -0.11,0 -1.193,1.98 -2.407,4.4 M 9.863,266.083 c -0.325,1.242 -0.078,1.306 0.463,0.119 0.251,-0.551 0.302,-1.002 0.112,-1.002 -0.19,0 -0.449,0.397 -0.575,0.883 m 157.355,3.568 c -0.038,0.529 1.239,3.225 1.434,3.03 0.113,-0.113 -0.159,-0.897 -0.605,-1.743 -0.447,-0.846 -0.82,-1.425 -0.829,-1.287 M 6.444,274.444 c -0.246,0.707 -0.378,1.356 -0.292,1.441 0.086,0.086 0.357,-0.423 0.604,-1.129 0.246,-0.707 0.378,-1.356 0.292,-1.441 -0.086,-0.086 -0.357,0.423 -0.604,1.129 m 319.156,4.098 c 0,0.532 3.253,6.739 3.435,6.556 0.102,-0.102 -0.554,-1.605 -1.457,-3.34 -1.668,-3.204 -1.978,-3.709 -1.978,-3.216 M 3.829,282.229 c -0.148,0.586 -0.191,1.143 -0.097,1.237 0.095,0.094 0.292,-0.308 0.439,-0.895 0.148,-0.586 0.191,-1.143 0.097,-1.237 -0.095,-0.094 -0.292,0.308 -0.439,0.895 m 186.048,8.371 c 0.127,1.1 0.387,2.27 0.576,2.6 0.207,0.359 0.242,-0.124 0.087,-1.2 -0.373,-2.602 -0.942,-3.801 -0.663,-1.4 m 0.569,4.2 c -0.019,0.55 0.141,1.27 0.354,1.6 0.494,0.764 0.494,-0.058 0,-1.6 l -0.32,-1 -0.034,1 M 174,295.753 c 0,0.33 0.18,0.711 0.4,0.847 0.22,0.136 0.4,-0.023 0.4,-0.353 0,-0.33 -0.18,-0.711 -0.4,-0.847 -0.22,-0.136 -0.4,0.023 -0.4,0.353 M 354.8,300 c 0.885,1.76 1.699,3.2 1.809,3.2 0.11,0 -0.524,-1.44 -1.409,-3.2 -0.885,-1.76 -1.699,-3.2 -1.809,-3.2 -0.11,0 0.524,1.44 1.409,3.2 m -163.917,-1 c -0.013,0.88 0.12,2.41 0.297,3.4 0.45,2.531 0.485,-0.136 0.038,-3 -0.303,-1.948 -0.312,-1.959 -0.335,-0.4 m -173.99,2.2 c 0,0.77 0.082,1.085 0.183,0.7 0.1,-0.385 0.1,-1.015 0,-1.4 -0.101,-0.385 -0.183,-0.07 -0.183,0.7 m 157.513,-0.5 c 0.003,0.385 0.181,0.97 0.394,1.3 0.294,0.455 0.389,0.286 0.394,-0.7 0.003,-0.715 -0.174,-1.3 -0.394,-1.3 -0.22,0 -0.397,0.315 -0.394,0.7 m 49.794,6.9 c -1.214,2.42 -2.117,4.4 -2.007,4.4 0.11,0 1.193,-1.98 2.407,-4.4 1.214,-2.42 2.117,-4.4 2.007,-4.4 -0.11,0 -1.193,1.98 -2.407,4.4 m -49.231,0.263 c 0.236,0.615 -3.729,0.649 -55.658,0.48 -32.308,-0.105 -50.254,-0.049 -42.511,0.131 27.347,0.639 98.57,0.224 98.724,-0.574 0.074,-0.385 -0.078,-0.7 -0.337,-0.7 -0.276,0 -0.367,0.276 -0.218,0.663 m 16.024,1.451 c -0.149,1.199 -0.198,2.519 -0.108,2.933 0.09,0.414 0.304,-0.476 0.475,-1.978 0.171,-1.503 0.219,-2.823 0.108,-2.934 -0.111,-0.111 -0.325,0.779 -0.475,1.979 M 19.317,308.297 c 1.494,0.077 3.834,0.077 5.2,-0.001 1.365,-0.078 0.143,-0.141 -2.717,-0.141 -2.86,0.001 -3.978,0.065 -2.483,0.142 m 228.483,0.16 c 3.409,0.364 92.514,0.406 92.738,0.043 0.102,-0.165 -21.263,-0.3 -47.476,-0.3 -26.214,0 -46.582,0.115 -45.262,0.257 M 0.093,309.6 c 0,0.77 0.082,1.085 0.183,0.7 0.1,-0.385 0.1,-1.015 0,-1.4 -0.101,-0.385 -0.183,-0.07 -0.183,0.7 m 190.556,5.015 c -0.137,0.358 -0.234,0.951 -0.215,1.318 0.019,0.367 0.193,0.136 0.387,-0.513 0.377,-1.262 0.244,-1.887 -0.172,-0.805 M 161,325.223 c 2.292,0.474 5.099,0.461 4.8,-0.023 -0.136,-0.22 -1.632,-0.379 -3.324,-0.354 -2.709,0.041 -2.885,0.086 -1.476,0.377 M 349.4,326 c 0.341,0.66 0.711,1.2 0.821,1.2 0.11,0 -0.08,-0.54 -0.421,-1.2 -0.341,-0.66 -0.711,-1.2 -0.821,-1.2 -0.11,0 0.08,0.54 0.421,1.2 m 21.887,6.981 c 2.247,4.499 4.141,8.124 4.21,8.055 0.209,-0.208 -7.673,-16.192 -7.996,-16.215 -0.164,-0.012 1.54,3.66 3.786,8.16 M 170.2,325.6 c 0.136,0.22 0.642,0.387 1.124,0.372 0.845,-0.027 0.847,-0.041 0.076,-0.372 -1.101,-0.473 -1.492,-0.473 -1.2,0 m 0.867,3.067 c -0.147,0.146 -0.256,0.641 -0.242,1.1 0.024,0.766 0.057,0.756 0.409,-0.125 0.392,-0.979 0.31,-1.453 -0.167,-0.975 M 4.032,331.476 c -0.043,0.65 1.964,6.231 2.412,6.706 0.293,0.311 -0.491,-2.079 -2.159,-6.582 -0.122,-0.33 -0.236,-0.386 -0.253,-0.124 m 161.948,9.364 c -0.678,1.343 -1.166,2.507 -1.086,2.588 0.081,0.08 0.721,-1.018 1.423,-2.441 0.701,-1.423 1.19,-2.587 1.085,-2.587 -0.105,0 -0.745,1.098 -1.422,2.44 M 8.032,341.92 c -0.036,0.578 1.075,2.88 1.389,2.88 0.11,0 -0.05,-0.495 -0.356,-1.1 -0.305,-0.605 -0.656,-1.37 -0.779,-1.7 -0.15,-0.403 -0.233,-0.429 -0.254,-0.08 m 1.568,3.433 c 0,0.429 1.19,2.647 1.421,2.647 0.11,0 -0.098,-0.585 -0.462,-1.3 C 9.817,345.24 9.6,344.936 9.6,345.353 m 21.6,5.247 c 0.681,0.99 1.328,1.8 1.438,1.8 0.11,0 -0.357,-0.81 -1.038,-1.8 -0.681,-0.99 -1.328,-1.8 -1.438,-1.8 -0.11,0 0.357,0.81 1.038,1.8 m 334.8,8.6 c 1.543,3.08 2.895,5.6 3.005,5.6 0.11,0 -1.062,-2.52 -2.605,-5.6 -1.543,-3.08 -2.895,-5.6 -3.005,-5.6 -0.11,0 1.062,2.52 2.605,5.6 m -191.577,-1.7 c -0.732,1.045 -0.992,1.597 -0.577,1.227 0.725,-0.647 2.353,-3.127 2.054,-3.127 -0.08,0 -0.745,0.855 -1.477,1.9 M 39.8,360.8 c 1.75,1.76 3.271,3.2 3.381,3.2 0.11,0 -1.231,-1.44 -2.981,-3.2 -1.75,-1.76 -3.271,-3.2 -3.381,-3.2 -0.11,0 1.231,1.44 2.981,3.2 m 108.978,2.7 -1.378,1.5 1.5,-1.378 c 1.396,-1.284 1.684,-1.622 1.378,-1.622 -0.066,0 -0.741,0.675 -1.5,1.5 m -103.89,1.913 c 0.598,0.63 1.159,1.064 1.247,0.966 0.088,-0.099 -0.402,-0.614 -1.088,-1.145 l -1.247,-0.965 1.088,1.144 M 23.6,366.2 c 0.746,0.77 1.447,1.4 1.557,1.4 0.11,0 -0.411,-0.63 -1.157,-1.4 -0.746,-0.77 -1.447,-1.4 -1.557,-1.4 -0.11,0 0.411,0.63 1.157,1.4 m 143.6,0.4 c -0.517,0.55 -0.773,0.994 -0.57,0.987 0.342,-0.011 1.991,-1.987 1.658,-1.987 -0.082,0 -0.571,0.45 -1.088,1 m -4.619,5.1 -1.581,1.7 1.7,-1.581 c 1.581,-1.471 1.884,-1.819 1.581,-1.819 -0.065,0 -0.83,0.765 -1.7,1.7 M 191.2,374 c -0.449,0.88 -0.678,1.598 -0.508,1.596 0.169,-0.002 0.61,-0.722 0.978,-1.6 0.866,-2.06 0.582,-2.058 -0.47,0.004 m 199.638,-1.4 c 0,0.22 0.523,1.39 1.162,2.6 0.639,1.21 1.162,2.02 1.162,1.8 0,-0.22 -0.523,-1.39 -1.162,-2.6 -0.639,-1.21 -1.162,-2.02 -1.162,-1.8 M 31.6,374.125 c 0,0.069 0.585,0.654 1.3,1.3 l 1.3,1.175 -1.175,-1.3 C 31.93,374.088 31.6,373.816 31.6,374.125 m 362.481,5.266 c 0.478,0.985 0.938,1.723 1.022,1.639 0.181,-0.181 -1.435,-3.43 -1.706,-3.43 -0.103,0 0.205,0.806 0.684,1.791 m -206.725,2.852 c -0.332,0.794 -0.502,1.544 -0.379,1.667 0.122,0.123 0.223,0.125 0.223,0.006 0,-0.12 0.272,-0.87 0.605,-1.667 0.333,-0.797 0.504,-1.449 0.38,-1.449 -0.124,0 -0.497,0.649 -0.829,1.443 M 88.9,383.087 c 0.605,0.091 1.595,0.091 2.2,0 0.605,-0.092 0.11,-0.167 -1.1,-0.167 -1.21,0 -1.705,0.075 -1.1,0.167 m 119.2,0.404 c 0.825,0.087 2.175,0.087 3,0 0.825,-0.086 0.15,-0.157 -1.5,-0.157 -1.65,0 -2.325,0.071 -1.5,0.157 m 21.624,0.008 c 3.038,0.068 7.898,0.068 10.8,0 2.902,-0.068 0.416,-0.124 -5.524,-0.124 -5.94,0 -8.314,0.056 -5.276,0.124 m -44.145,2.756 c -0.221,0.581 -0.327,1.13 -0.236,1.221 0.09,0.091 0.356,-0.384 0.59,-1.056 0.52,-1.492 0.206,-1.638 -0.354,-0.165 M 136.4,390 c -1.598,0.875 -1.483,0.996 0.34,0.361 0.693,-0.242 1.26,-0.602 1.26,-0.8 0,-0.454 0.063,-0.472 -1.6,0.439 m 47.359,1.022 c -0.313,1.246 0.056,3.753 0.637,4.334 0.28,0.28 0.268,-0.028 -0.034,-0.893 -0.253,-0.726 -0.365,-2.026 -0.249,-2.891 0.238,-1.775 0.033,-2.094 -0.354,-0.55 M 56.8,391.053 c 0,0.27 2.855,1.425 3.048,1.233 0.088,-0.089 -0.561,-0.445 -1.444,-0.791 -0.882,-0.347 -1.604,-0.546 -1.604,-0.442 m 74.6,1.163 c -0.66,0.311 -1.83,0.838 -2.6,1.171 -0.823,0.355 -0.988,0.508 -0.4,0.369 1.213,-0.286 5.162,-2.086 4.6,-2.097 -0.22,-0.004 -0.94,0.247 -1.6,0.557 m -68.2,1.52 c 0,0.237 4.8,1.875 5.378,1.835 0.232,-0.016 -0.478,-0.35 -1.578,-0.742 -3.037,-1.081 -3.8,-1.301 -3.8,-1.093 m 61.4,1.098 c -1.1,0.425 -1.48,0.671 -0.844,0.547 1.258,-0.244 3.894,-1.315 3.244,-1.317 -0.22,-0.001 -1.3,0.345 -2.4,0.77 m 271.801,2.965 -1.765,1.799 -68.618,0.102 -68.618,0.102 68.615,0.099 68.615,0.099 1.97,-2 c 1.083,-1.1 1.879,-2 1.768,-2 -0.111,0 -0.996,0.809 -1.967,1.799 m -200.101,1.69 c 0.715,0.089 1.885,0.089 2.6,0 0.715,-0.088 0.13,-0.161 -1.3,-0.161 -1.43,0 -2.015,0.073 -1.3,0.161"
         id="path1-7"
         inkscape:connector-curvature="0"
         style="fill:#b3b3b3;fill-rule:evenodd;stroke:none" />
      <path
         d="m 91.72,24.8 c 0,1.21 0.075,1.705 0.167,1.1 0.091,-0.605 0.091,-1.595 0,-2.2 -0.092,-0.605 -0.167,-0.11 -0.167,1.1 m 174.455,-0.7 -1.175,1.3 1.3,-1.175 c 0.715,-0.646 1.3,-1.231 1.3,-1.3 0,-0.309 -0.33,-0.037 -1.425,1.175 m 35.987,2.242 c 0.847,0.953 1.038,1.04 1.038,0.472 0,-0.212 -0.405,-0.598 -0.9,-0.858 -0.895,-0.47 -0.896,-0.468 -0.138,0.386 M 91.995,29.581 c 0.209,0.73 0.491,1.438 0.625,1.573 0.376,0.375 -0.276,-2.102 -0.665,-2.527 -0.187,-0.205 -0.17,0.224 0.04,0.954 m 21.868,3.319 c 0.101,0.165 1.153,0.3 2.337,0.3 1.184,0 2.236,-0.135 2.339,-0.3 0.102,-0.165 -0.95,-0.3 -2.337,-0.3 -1.388,0 -2.44,0.135 -2.339,0.3 m 175.736,3 c 0.523,0.715 1.014,1.3 1.09,1.3 0.304,0 -0.688,-1.5 -1.344,-2.033 -0.432,-0.351 -0.335,-0.071 0.254,0.733 m 17.507,-0.082 c 0.104,0.547 0.322,1.076 0.484,1.176 0.162,0.1 0.209,-0.265 0.104,-0.812 -0.104,-0.547 -0.322,-1.076 -0.484,-1.176 -0.162,-0.1 -0.209,0.265 -0.104,0.812 m 0.562,2.582 c 0.02,1.039 0.65,2.746 0.664,1.8 0.006,-0.44 -0.143,-1.16 -0.332,-1.6 -0.211,-0.49 -0.339,-0.568 -0.332,-0.2 M 291,41.602 c 0,1.718 0.132,2.916 0.294,2.661 0.387,-0.61 0.392,-5.363 0.006,-5.6 -0.165,-0.101 -0.3,1.221 -0.3,2.939 M 98,40.73 c 0,0.375 1.495,1.788 2.4,2.271 0.33,0.175 -0.02,-0.338 -0.778,-1.141 C 98.165,40.317 98,40.202 98,40.73 m 160,0.646 c 0,0.537 0.18,1.088 0.4,1.224 0.233,0.144 0.4,-0.263 0.4,-0.976 0,-0.673 -0.18,-1.224 -0.4,-1.224 -0.22,0 -0.4,0.439 -0.4,0.976 m -124.629,1.08 c -0.888,0.946 -0.97,1.144 -0.338,0.818 0.966,-0.499 1.966,-1.608 1.695,-1.879 -0.103,-0.103 -0.713,0.375 -1.357,1.061 m 174.675,0.811 c -0.025,0.367 -0.15,0.997 -0.276,1.4 -0.218,0.695 -0.207,0.696 0.227,0.02 0.251,-0.391 0.376,-1.021 0.276,-1.4 -0.162,-0.619 -0.185,-0.621 -0.227,-0.02 m -203.045,3.135 c 0.268,0.434 2.599,1.732 2.599,1.448 0,-0.094 -0.641,-0.549 -1.424,-1.011 -0.783,-0.462 -1.312,-0.659 -1.175,-0.437 m 21.699,0.624 c -1.045,0.544 -1.9,1.079 -1.9,1.188 0,0.11 0.9,-0.257 2,-0.814 1.1,-0.557 2,-1.1 2,-1.207 0,-0.264 0.036,-0.279 -2.1,0.833 m 31.678,1.674 -1.378,1.5 1.5,-1.378 c 0.825,-0.759 1.5,-1.434 1.5,-1.5 0,-0.306 -0.338,-0.018 -1.622,1.378 m 33.822,0.9 c 0.859,0.88 1.652,1.6 1.762,1.6 0.11,0 -0.503,-0.72 -1.362,-1.6 -0.859,-0.88 -1.652,-1.6 -1.762,-1.6 -0.11,0 0.503,0.72 1.362,1.6 m 114.286,-0.139 c -0.247,0.804 -0.29,1.299 -0.096,1.1 0.392,-0.4 0.999,-2.561 0.72,-2.561 -0.096,0 -0.378,0.658 -0.624,1.461 M 156,50.869 c 0,0.257 -0.315,0.839 -0.7,1.293 -0.67,0.789 -0.669,0.8 0.022,0.264 0.952,-0.739 1.646,-2.026 1.092,-2.026 -0.228,0 -0.414,0.211 -0.414,0.469 M 265.6,58.2 c 0.746,0.77 1.447,1.4 1.557,1.4 0.11,0 -0.411,-0.63 -1.157,-1.4 -0.746,-0.77 -1.447,-1.4 -1.557,-1.4 -0.11,0 0.411,0.63 1.157,1.4 m -97.098,2.3 c -0.566,0.715 -1.362,2.3 -1.156,2.3 0.096,0 0.547,-0.63 1.001,-1.4 0.826,-1.399 0.902,-1.843 0.155,-0.9 m 103.559,2.918 c 0.363,0.371 0.879,0.602 1.145,0.513 0.267,-0.089 -0.031,-0.392 -0.661,-0.675 -1.072,-0.48 -1.103,-0.47 -0.484,0.162 M 199.6,66.424 c 0,1.113 0.151,1.93 0.336,1.815 0.458,-0.283 0.484,-3.839 0.028,-3.839 -0.2,0 -0.364,0.911 -0.364,2.024 m 82.3,-0.142 c 0.495,0.096 1.305,0.096 1.8,0 0.495,-0.095 0.09,-0.173 -0.9,-0.173 -0.99,0 -1.395,0.078 -0.9,0.173 m -50.4,2.747 c -1.495,0.811 -1.404,1.149 0.1,0.371 0.66,-0.341 1.2,-0.706 1.2,-0.81 0,-0.258 -0.043,-0.243 -1.3,0.439 m 18.9,-0.433 c 0,0.274 2.449,1.488 2.632,1.305 0.087,-0.087 -0.47,-0.457 -1.237,-0.823 -0.767,-0.366 -1.395,-0.583 -1.395,-0.482 m 8.181,5.755 c 1.827,1.905 1.686,1.817 1.686,1.049 0,-0.33 -0.089,-0.511 -0.198,-0.403 -0.108,0.109 -0.448,-0.16 -0.754,-0.596 -0.306,-0.437 -0.952,-0.998 -1.436,-1.247 -0.567,-0.291 -0.318,0.134 0.702,1.197 M 106.4,80.546 c 0,0.11 0.54,0.584 1.2,1.054 0.66,0.47 1.2,0.764 1.2,0.654 0,-0.11 -0.54,-0.584 -1.2,-1.054 -0.66,-0.47 -1.2,-0.764 -1.2,-0.654 m 85.381,3.513 c -1.486,1.559 -1.274,1.788 0.356,0.385 0.689,-0.594 1.653,-2.044 1.358,-2.044 -0.073,0 -0.844,0.746 -1.714,1.659 M 240.9,83.876 c 0.385,0.1 1.015,0.1 1.4,0 0.385,-0.101 0.07,-0.183 -0.7,-0.183 -0.77,0 -1.085,0.082 -0.7,0.183 M 71.956,85.3 c -0.47,0.895 -0.468,0.896 0.386,0.138 0.953,-0.847 1.04,-1.038 0.472,-1.038 -0.212,0 -0.598,0.405 -0.858,0.9 M 184.3,89.227 c -0.825,0.436 -1.5,0.881 -1.5,0.991 0,0.109 0.72,-0.169 1.6,-0.618 0.88,-0.449 1.6,-0.903 1.6,-1.008 0,-0.262 -0.003,-0.261 -1.7,0.635 m 81.871,2.373 c 0,3.045 0.039,3.223 0.372,1.7 0.228,-1.045 0.228,-2.355 0,-3.4 -0.333,-1.523 -0.372,-1.345 -0.372,1.7 M 68.8,90.4 c -0.449,0.88 -0.726,1.6 -0.616,1.6 0.11,0 0.567,-0.72 1.016,-1.6 0.449,-0.88 0.726,-1.6 0.616,-1.6 -0.11,0 -0.567,0.72 -1.016,1.6 m 147.867,-0.933 c -0.39,0.39 -0.327,3.649 0.076,3.898 0.188,0.116 0.343,-0.773 0.343,-1.977 0,-2.318 -0.004,-2.336 -0.419,-1.921 M 166,89.734 c 0,0.103 0.581,0.39 1.291,0.638 0.71,0.247 1.115,0.285 0.9,0.084 C 167.735,90.029 166,89.458 166,89.734 m 5.105,1.349 c 0.497,0.096 1.217,0.092 1.6,-0.008 0.382,-0.1 -0.025,-0.179 -0.905,-0.174 -0.88,0.004 -1.193,0.086 -0.695,0.182 m 6.4,0 c 0.497,0.096 1.217,0.092 1.6,-0.008 0.382,-0.1 -0.025,-0.179 -0.905,-0.174 -0.88,0.004 -1.193,0.086 -0.695,0.182 M 305.8,91.576 c -0.859,0.199 -0.427,0.285 1.517,0.301 1.494,0.013 2.664,-0.021 2.6,-0.074 -0.377,-0.313 -3.1,-0.463 -4.117,-0.227 m -215.7,0.3 c 0.385,0.1 1.015,0.1 1.4,0 0.385,-0.101 0.07,-0.183 -0.7,-0.183 -0.77,0 -1.085,0.082 -0.7,0.183 M 247.2,97.4 c -0.283,0.341 -0.424,0.709 -0.314,0.819 0.11,0.11 0.431,-0.078 0.714,-0.419 0.283,-0.341 0.424,-0.709 0.314,-0.819 -0.11,-0.11 -0.431,0.078 -0.714,0.419 M 66.509,100 c 0,0.99 0.078,1.395 0.173,0.9 0.096,-0.495 0.096,-1.305 0,-1.8 -0.095,-0.495 -0.173,-0.09 -0.173,0.9 m 260.255,0.733 c 0.216,0.403 0.707,0.988 1.091,1.3 0.432,0.351 0.335,0.071 -0.254,-0.733 -1.05,-1.435 -1.444,-1.702 -0.837,-0.567 M 90.1,107.887 c 0.605,0.091 1.595,0.091 2.2,0 0.605,-0.092 0.11,-0.167 -1.1,-0.167 -1.21,0 -1.705,0.075 -1.1,0.167 M 224.4,109 c 0.746,0.77 1.447,1.4 1.557,1.4 0.11,0 -0.411,-0.63 -1.157,-1.4 -0.746,-0.77 -1.447,-1.4 -1.557,-1.4 -0.11,0 0.411,0.63 1.157,1.4 m 86,-0.516 c 0.11,0.109 0.826,0.409 1.591,0.667 0.765,0.259 1.215,0.299 1,0.088 -0.215,-0.21 -0.931,-0.51 -1.591,-0.667 -0.66,-0.156 -1.11,-0.196 -1,-0.088 m -237.119,7.587 c 0.317,0.479 1.014,1.143 1.548,1.477 0.741,0.462 0.644,0.256 -0.407,-0.871 -1.553,-1.663 -2.002,-1.902 -1.141,-0.606 m 16.417,8.798 c 0.276,0.175 1.222,0.319 2.102,0.319 0.88,0 1.826,-0.144 2.102,-0.319 0.279,-0.177 -0.654,-0.319 -2.102,-0.319 -1.448,0 -2.381,0.142 -2.102,0.319 m 240.883,1.568 c -0.352,0.681 -0.569,1.308 -0.482,1.395 0.087,0.087 0.457,-0.47 0.823,-1.237 0.822,-1.725 0.537,-1.857 -0.341,-0.158 M 290.8,133.4 c 0.746,0.77 1.447,1.4 1.557,1.4 0.11,0 -0.411,-0.63 -1.157,-1.4 -0.746,-0.77 -1.447,-1.4 -1.557,-1.4 -0.11,0 0.411,0.63 1.157,1.4 m 34.6,0.261 c -0.978,1.015 -1.261,1.482 -0.728,1.201 0.729,-0.385 2.855,-2.863 2.455,-2.862 -0.07,0.001 -0.847,0.748 -1.727,1.661 m -252.5,7.83 c 0.825,0.087 2.175,0.087 3,0 0.825,-0.086 0.15,-0.157 -1.5,-0.157 -1.65,0 -2.325,0.071 -1.5,0.157 m 43.811,0.002 c 0.94,0.085 2.38,0.084 3.2,-0.002 0.819,-0.086 0.049,-0.155 -1.711,-0.154 -1.76,0.002 -2.43,0.072 -1.489,0.156 m -63.816,1.973 c -0.277,0.112 -0.707,0.593 -0.954,1.069 -0.421,0.81 -0.382,0.803 0.605,-0.105 0.58,-0.533 1.054,-1.028 1.054,-1.1 0,-0.146 -0.007,-0.145 -0.705,0.136 M 50,148.4 c -0.249,0.924 -0.374,1.759 -0.279,1.855 0.096,0.095 0.369,-0.592 0.606,-1.528 0.238,-0.936 0.363,-1.77 0.279,-1.854 -0.084,-0.085 -0.357,0.603 -0.606,1.527 m 91.212,1.38 c -0.009,0.861 0.108,1.06 0.429,0.739 0.317,-0.317 0.32,-0.651 0.013,-1.18 -0.377,-0.648 -0.431,-0.593 -0.442,0.441 M 50.8,153.6 c 0.449,0.88 0.906,1.6 1.016,1.6 0.11,0 -0.167,-0.72 -0.616,-1.6 -0.449,-0.88 -0.906,-1.6 -1.016,-1.6 -0.11,0 0.167,0.72 0.616,1.6 m 260.6,4.8 c -0.16,0.26 1.551,0.384 4.876,0.354 3.82,-0.034 4.717,-0.13 3.524,-0.377 -2.271,-0.47 -8.105,-0.454 -8.4,0.023 m 22.6,0.4 c -0.468,0.302 -0.357,0.389 0.5,0.394 0.605,0.003 1.1,-0.174 1.1,-0.394 0,-0.506 -0.817,-0.506 -1.6,0 m -209.011,25.8 c 0,14.3 0.05,20.092 0.111,12.871 0.061,-7.221 0.061,-18.921 0,-26 -0.061,-7.079 -0.111,-1.171 -0.111,13.129 M 341.2,167.2 c 0,0.747 0.107,0.853 0.48,0.48 0.373,-0.373 0.373,-0.587 0,-0.96 -0.373,-0.373 -0.48,-0.267 -0.48,0.48 m -86.3,7.888 3.1,0.146 v 31.983 c 0,21.181 0.136,31.983 0.402,31.983 0.268,0 0.368,-10.772 0.3,-32.1 L 258.6,175 l -3.4,-0.028 -3.4,-0.029 3.1,0.145 m 28.627,0.012 c 4.69,0.064 12.25,0.064 16.8,-0.001 4.55,-0.064 0.713,-0.116 -8.527,-0.116 -9.24,0 -12.963,0.053 -8.273,0.117 m 41.457,0.2 c -0.105,0.275 -0.143,14.99 -0.085,32.7 l 0.106,32.2 0.097,-32.486 0.098,-32.485 3.9,-0.131 3.9,-0.131 -3.913,-0.083 c -2.825,-0.061 -3.965,0.055 -4.103,0.416 M 83.501,192.6 c -0.164,3.52 -0.277,8.02 -0.251,10 l 0.048,3.6 0.354,-2.4 c 0.195,-1.32 0.308,-5.82 0.251,-10 l -0.103,-7.6 -0.299,6.4 m 42.675,18.378 c 0.428,0.342 1.058,0.608 1.4,0.59 0.539,-0.027 0.542,-0.061 0.024,-0.254 -0.33,-0.122 -0.96,-0.388 -1.4,-0.59 -0.787,-0.362 -0.788,-0.358 -0.024,0.254 m 2.41,0.999 c 0.117,0.189 0.759,0.535 1.427,0.768 0.668,0.232 1.119,0.268 1.001,0.078 -0.117,-0.189 -0.759,-0.535 -1.427,-0.768 -0.668,-0.232 -1.119,-0.268 -1.001,-0.078 m -45.498,2.956 c -0.478,1.216 -0.364,2.24 0.151,1.354 0.228,-0.391 0.352,-1.021 0.276,-1.4 -0.127,-0.627 -0.164,-0.623 -0.427,0.046 M 73,226.22 c -1.1,0.534 -1.55,0.86 -1,0.725 1.159,-0.285 3.2,-1.277 3.2,-1.555 0,-0.249 0.099,-0.286 -2.2,0.83 m -33.822,1.68 -1.378,1.5 1.5,-1.378 c 1.396,-1.284 1.684,-1.622 1.378,-1.622 -0.066,0 -0.741,0.675 -1.5,1.5 m 84.231,0.013 c 0.638,0.546 2.661,1.324 2.417,0.929 -0.123,-0.2 -0.806,-0.566 -1.516,-0.813 -0.711,-0.248 -1.116,-0.3 -0.901,-0.116 M 68.1,228.412 c -1.339,0.539 -1.089,0.812 0.3,0.328 0.66,-0.23 1.2,-0.491 1.2,-0.579 0,-0.237 -0.487,-0.156 -1.5,0.251 m -31.756,1.575 c -0.519,0.432 -0.747,0.792 -0.506,0.8 0.241,0.007 0.764,-0.347 1.162,-0.787 0.926,-1.024 0.566,-1.031 -0.656,-0.013 M 65.1,229.829 c -1.551,0.841 -1.375,1.132 0.2,0.33 1.508,-0.766 1.775,-0.965 1.267,-0.943 -0.202,0.009 -0.862,0.285 -1.467,0.613 m 91.7,-0.119 c 0,0.061 1.395,1.456 3.1,3.1 l 3.1,2.99 -2.99,-3.1 c -2.777,-2.879 -3.21,-3.283 -3.21,-2.99 M 31.789,234.9 29,237.8 l 2.9,-2.789 c 1.595,-1.534 2.9,-2.839 2.9,-2.9 0,-0.294 -0.42,0.095 -3.011,2.789 m 14.171,8.335 c -1.193,1.118 -1.289,1.264 -0.299,0.453 0.804,-0.657 1.704,-1.282 2,-1.387 0.297,-0.105 0.431,-0.309 0.299,-0.453 -0.133,-0.144 -1.033,0.48 -2,1.387 m 100.496,-0.894 c 0.254,0.407 0.841,0.97 1.303,1.25 0.589,0.356 0.489,0.134 -0.334,-0.741 -1.337,-1.423 -1.639,-1.581 -0.969,-0.509 M 330.4,250.8 c 1.104,2.2 2.097,4 2.207,4 0.11,0 -0.703,-1.8 -1.807,-4 -1.104,-2.2 -2.097,-4 -2.207,-4 -0.11,0 0.703,1.8 1.807,4 M 40.175,248.9 39,250.2 l 1.3,-1.175 c 1.212,-1.095 1.484,-1.425 1.175,-1.425 -0.069,0 -0.654,0.585 -1.3,1.3 m 112.484,-0.377 c 0.382,0.507 1.156,1.255 1.718,1.661 0.603,0.436 0.374,0.057 -0.558,-0.922 -1.758,-1.848 -2.217,-2.14 -1.16,-0.739 M 249.8,256 c -2.092,4.18 -3.714,7.6 -3.604,7.6 0.11,0 1.912,-3.42 4.004,-7.6 2.092,-4.18 3.714,-7.6 3.604,-7.6 -0.11,0 -1.912,3.42 -4.004,7.6 m 61.533,-5.5 c 0.762,1.822 2.228,4.56 2.249,4.201 0.025,-0.41 -2.397,-5.501 -2.616,-5.501 -0.097,0 0.068,0.585 0.367,1.3 m -43.452,7.321 c -0.815,1.646 -1.472,3.124 -1.461,3.286 0.011,0.161 0.742,-1.121 1.626,-2.848 0.883,-1.728 1.54,-3.206 1.46,-3.286 -0.079,-0.08 -0.811,1.202 -1.625,2.848 M 26.6,267.6 c -0.341,0.66 -0.531,1.2 -0.421,1.2 0.11,0 0.48,-0.54 0.821,-1.2 0.341,-0.66 0.531,-1.2 0.421,-1.2 -0.11,0 -0.48,0.54 -0.821,1.2 m 158.347,3.682 c 0.356,1.485 0.994,3.118 1.219,3.118 0.209,0 -0.972,-3.689 -1.28,-4 -0.109,-0.11 -0.082,0.287 0.061,0.882 m -15.529,4.418 c 0.15,0.495 0.437,1.076 0.638,1.291 0.201,0.215 0.163,-0.19 -0.084,-0.9 -0.507,-1.453 -0.975,-1.783 -0.554,-0.391 m 17.155,0.493 c 0.689,2.004 1.03,2.154 0.544,0.239 -0.228,-0.897 -0.551,-1.632 -0.719,-1.632 -0.167,0 -0.088,0.627 0.175,1.393 m -14.517,8.041 c 0.235,0.861 0.52,1.656 0.633,1.766 0.352,0.344 -0.355,-2.58 -0.717,-2.966 -0.189,-0.201 -0.151,0.339 0.084,1.2 M 350.4,290.8 c 1.104,2.2 2.097,4 2.207,4 0.11,0 -0.703,-1.8 -1.807,-4 -1.104,-2.2 -2.097,-4 -2.207,-4 -0.11,0 0.703,1.8 1.807,4 M 229.8,296 c -2.092,4.18 -3.714,7.6 -3.604,7.6 0.11,0 1.912,-3.42 4.004,-7.6 2.092,-4.18 3.714,-7.6 3.604,-7.6 -0.11,0 -1.912,3.42 -4.004,7.6 m 101.533,-5.5 c 0.762,1.822 2.228,4.56 2.249,4.201 0.025,-0.41 -2.397,-5.501 -2.616,-5.501 -0.097,0 0.068,0.585 0.367,1.3 m -84.246,8.919 c -1.916,3.839 -3.35,6.972 -3.186,6.962 0.321,-0.021 7.002,-13.611 6.794,-13.819 -0.068,-0.069 -1.692,3.017 -3.608,6.857 m -73.059,-2.743 c 0.09,1.039 0.716,1.92 0.744,1.048 0.015,-0.482 -0.152,-0.988 -0.372,-1.124 -0.22,-0.136 -0.387,-0.102 -0.372,0.076 m 0.384,5.724 c 0,0.55 0.175,1.27 0.388,1.6 0.307,0.475 0.388,0.392 0.388,-0.4 0,-0.55 -0.175,-1.27 -0.388,-1.6 -0.307,-0.475 -0.388,-0.392 -0.388,0.4 m -157.511,1.4 c 0.004,0.88 0.086,1.193 0.182,0.695 0.096,-0.497 0.092,-1.217 -0.008,-1.6 -0.1,-0.382 -0.179,0.025 -0.174,0.905 m 12.215,4.497 c 1.383,0.078 3.543,0.077 4.8,-0.002 1.256,-0.079 0.124,-0.143 -2.516,-0.142 -2.64,0 -3.668,0.065 -2.284,0.144 M 105.1,308.3 c 7.315,0.061 19.285,0.061 26.6,0 7.315,-0.061 1.33,-0.111 -13.3,-0.111 -14.63,0 -20.615,0.05 -13.3,0.111 m 150.6,-0.002 c 1.925,0.073 5.075,0.073 7,0 1.925,-0.073 0.35,-0.133 -3.5,-0.133 -3.85,0 -5.425,0.06 -3.5,0.133 m -110.867,16.647 c 0.092,0.08 4.037,0.244 8.767,0.364 5.129,0.13 7.954,0.08 7,-0.123 -1.521,-0.323 -16.117,-0.546 -15.767,-0.241 m 22.8,0.398 c 0.443,0.379 2.784,0.608 2.563,0.251 -0.134,-0.217 -0.803,-0.394 -1.486,-0.394 -0.684,0 -1.168,0.064 -1.077,0.143 m 3.653,2.118 c -0.247,0.804 -0.29,1.299 -0.096,1.1 0.392,-0.4 0.999,-2.561 0.72,-2.561 -0.096,0 -0.378,0.658 -0.624,1.461 m 180.02,2.939 c 1.132,2.685 2.044,4.4 2.341,4.4 0.164,0 -0.312,-1.193 -1.059,-2.652 -1.527,-2.981 -2.173,-3.862 -1.282,-1.748 m -181.22,0.661 c -0.247,0.804 -0.29,1.299 -0.096,1.1 0.392,-0.4 0.999,-2.561 0.72,-2.561 -0.096,0 -0.378,0.658 -0.624,1.461 m 17.194,0.419 c -0.592,1.929 -0.305,2.215 0.32,0.32 0.264,-0.799 0.402,-1.531 0.307,-1.626 -0.095,-0.096 -0.377,0.492 -0.627,1.306 m 22.499,4.562 c -1.006,2.003 -1.765,3.706 -1.686,3.784 0.078,0.078 0.988,-1.56 2.022,-3.642 1.034,-2.081 1.793,-3.784 1.686,-3.784 -0.106,0 -1.016,1.639 -2.022,3.642 M 168.9,334.1 c -0.43,1.175 -0.42,1.226 0.112,0.524 0.509,-0.672 0.809,-1.824 0.476,-1.824 -0.062,0 -0.327,0.585 -0.588,1.3 m 58.981,3.721 c -0.815,1.646 -1.472,3.124 -1.461,3.286 0.011,0.161 0.742,-1.121 1.626,-2.848 0.883,-1.728 1.54,-3.206 1.46,-3.286 -0.079,-0.08 -0.811,1.202 -1.625,2.848 M 23.6,337.2 c 1.052,2.062 1.336,2.064 0.47,0.004 -0.368,-0.878 -0.809,-1.598 -0.978,-1.6 -0.17,-0.002 0.059,0.716 0.508,1.596 m 144.065,-0.183 c -0.67,1.471 -0.542,1.785 0.182,0.448 0.339,-0.625 0.541,-1.211 0.449,-1.302 -0.091,-0.092 -0.375,0.293 -0.631,0.854 M 10.731,348.252 c 0.884,1.612 1.776,2.489 1.091,1.073 -0.339,-0.701 -0.816,-1.397 -1.059,-1.548 -0.317,-0.196 -0.326,-0.061 -0.032,0.475 m 143,9.648 c -0.135,0.385 -0.983,1.51 -1.887,2.5 -1.355,1.486 -1.241,1.418 0.657,-0.386 1.264,-1.203 2.299,-2.328 2.299,-2.5 0,-0.606 -0.828,-0.307 -1.069,0.386 M 388,366.4 c 0.449,0.88 0.906,1.6 1.016,1.6 0.11,0 -0.167,-0.72 -0.616,-1.6 -0.449,-0.88 -0.906,-1.6 -1.016,-1.6 -0.11,0 0.167,0.72 0.616,1.6 m -363.209,1.588 c 0.466,0.653 1.051,1.314 1.3,1.468 0.25,0.155 -0.05,-0.38 -0.666,-1.188 -1.337,-1.753 -1.841,-1.976 -0.634,-0.28 m 140.584,0.912 -1.175,1.3 1.3,-1.175 c 1.212,-1.095 1.484,-1.425 1.175,-1.425 -0.069,0 -0.654,0.585 -1.3,1.3 m 206.467,2.6 c 0.567,1.265 1.124,2.525 1.238,2.8 0.113,0.275 0.349,0.5 0.525,0.5 0.176,0 -0.301,-1.26 -1.059,-2.8 -1.663,-3.374 -2.148,-3.719 -0.704,-0.5 M 51.2,369.724 c 0,0.093 0.765,0.674 1.7,1.291 0.935,0.617 1.489,0.865 1.231,0.553 -0.497,-0.601 -2.931,-2.132 -2.931,-1.844 m 158.284,4.89 c -0.813,1.642 -1.391,2.986 -1.286,2.986 0.267,0 3.087,-5.649 2.908,-5.827 -0.079,-0.08 -0.809,1.199 -1.622,2.841 m -49.709,-0.114 -1.175,1.3 1.3,-1.175 c 1.212,-1.095 1.484,-1.425 1.175,-1.425 -0.069,0 -0.654,0.585 -1.3,1.3 m -28.375,0.109 c -1.1,0.518 -1.73,0.945 -1.4,0.948 0.33,0.004 1.41,-0.427 2.4,-0.957 2.3,-1.232 1.621,-1.226 -1,0.009 m 57.98,3.031 c -0.569,1.122 -0.967,2.107 -0.885,2.189 0.082,0.082 0.632,-0.836 1.223,-2.04 0.59,-1.204 0.988,-2.189 0.884,-2.189 -0.104,0 -0.654,0.918 -1.222,2.04 m -95.68,5.454 c 1.045,0.082 2.755,0.082 3.8,0 1.045,-0.082 0.19,-0.15 -1.9,-0.15 -2.09,0 -2.945,0.068 -1.9,0.15 m 185.032,0.406 c 18.332,0.058 48.212,0.058 66.4,0 18.187,-0.058 3.188,-0.105 -33.332,-0.105 -36.52,0 -51.401,0.047 -33.068,0.105 M 143.8,386.21 c -0.88,0.542 -1.42,0.981 -1.2,0.975 0.22,-0.005 1.12,-0.453 2,-0.995 0.88,-0.542 1.42,-0.981 1.2,-0.975 -0.22,0.005 -1.12,0.453 -2,0.995 m -3.4,1.99 c -0.55,0.314 -0.82,0.572 -0.6,0.572 0.22,0 0.85,-0.258 1.4,-0.572 0.55,-0.314 0.82,-0.572 0.6,-0.572 -0.22,0 -0.85,0.258 -1.4,0.572 m -89.6,-0.009 c 0,0.11 1.44,0.924 3.2,1.809 1.76,0.885 3.2,1.519 3.2,1.409 0,-0.11 -1.44,-0.924 -3.2,-1.809 -1.76,-0.885 -3.2,-1.519 -3.2,-1.409 m 142.305,11.292 c 0.497,0.096 1.217,0.092 1.6,-0.008 0.382,-0.1 -0.025,-0.179 -0.905,-0.174 -0.88,0.004 -1.193,0.086 -0.695,0.182 m 39.622,0.417 c 4.69,0.064 12.25,0.064 16.8,-10e-4 4.55,-0.064 0.713,-0.116 -8.527,-0.116 -9.24,0 -12.963,0.053 -8.273,0.117"
         id="path2-5"
         inkscape:connector-curvature="0"
         style="fill:#b3b3b3;fill-rule:evenodd;stroke:none" />
      <path
         d="m 98.8,7.979 c -0.989,0.855 -1.698,1.656 -1.575,1.78 0.124,0.123 1.016,-0.582 1.983,-1.567 2.157,-2.198 1.99,-2.285 -0.408,-0.213 M 95.753,11.5 c -1.218,1.813 -1.727,2.9 -1.356,2.9 0.192,0 0.475,-0.397 0.629,-0.881 0.154,-0.485 0.481,-1.109 0.727,-1.386 1.223,-1.381 1.448,-1.733 1.109,-1.733 -0.204,0 -0.703,0.495 -1.109,1.1 m 185.116,4.849 c -0.323,0.205 0.457,0.351 1.989,0.373 1.699,0.024 2.328,-0.086 1.931,-0.337 -0.734,-0.465 -3.209,-0.487 -3.92,-0.036 m -4.375,0.734 c -0.498,0.096 -0.813,0.324 -0.7,0.508 0.258,0.418 1.806,0.042 1.806,-0.438 0,-0.194 -0.045,-0.328 -0.1,-0.299 -0.055,0.03 -0.508,0.133 -1.006,0.229 m -2.794,1.313 c -1.721,1.049 -1.66,1.363 0.1,0.523 0.77,-0.367 1.4,-0.814 1.4,-0.993 0,-0.44 -0.016,-0.435 -1.5,0.47 m -132.37,7.666 c 0.038,1.684 0.204,2.979 0.369,2.877 0.405,-0.25 0.331,-4.137 -0.097,-5.139 -0.222,-0.521 -0.317,0.268 -0.272,2.262 M 91.301,25 c 0.004,0.88 0.086,1.193 0.182,0.695 0.096,-0.497 0.092,-1.217 -0.008,-1.6 -0.1,-0.382 -0.179,0.025 -0.174,0.905 m 23.599,7.687 c 0.605,0.091 1.595,0.091 2.2,0 0.605,-0.092 0.11,-0.167 -1.1,-0.167 -1.21,0 -1.705,0.075 -1.1,0.167 m 167.4,1.202 c 0.715,0.089 1.885,0.089 2.6,0 0.715,-0.088 0.13,-0.161 -1.3,-0.161 -1.43,0 -2.015,0.073 -1.3,0.161 M 96.8,39.502 c 0,0.22 0.27,0.624 0.6,0.898 0.335,0.278 0.6,0.321 0.6,0.098 0,-0.22 -0.27,-0.624 -0.6,-0.898 -0.335,-0.278 -0.6,-0.321 -0.6,-0.098 M 258,39.8 c 0,0.33 0.18,0.6 0.4,0.6 0.22,0 0.4,-0.27 0.4,-0.6 0,-0.33 -0.18,-0.6 -0.4,-0.6 -0.22,0 -0.4,0.27 -0.4,0.6 m 0,3.376 c 0,0.453 0.18,0.824 0.4,0.824 0.22,0 0.4,-0.259 0.4,-0.576 0,-0.317 -0.18,-0.688 -0.4,-0.824 -0.22,-0.136 -0.4,0.123 -0.4,0.576 M 100.174,43.158 c 0.149,0.241 0.642,0.637 1.097,0.88 0.591,0.316 0.749,0.318 0.555,0.004 -0.149,-0.241 -0.642,-0.637 -1.097,-0.88 -0.591,-0.316 -0.749,-0.318 -0.555,-0.004 m 30.615,1.682 c -2.653,1.987 -2.966,2.301 -1.389,1.394 1.303,-0.749 4.131,-3.006 3.789,-3.023 -0.116,-0.006 -1.196,0.727 -2.4,1.629 M 102.8,45.102 c 0,0.179 0.54,0.644 1.2,1.034 0.66,0.39 1.2,0.643 1.2,0.562 0,-0.081 -0.54,-0.547 -1.2,-1.035 -0.66,-0.488 -1.2,-0.74 -1.2,-0.561 m 88.4,3.023 c 0,0.069 0.585,0.654 1.3,1.3 l 1.3,1.175 -1.175,-1.3 C 191.53,48.088 191.2,47.816 191.2,48.125 m 114.032,4.543 c -0.676,1.248 -1.166,2.331 -1.09,2.407 0.076,0.077 0.716,-0.944 1.422,-2.268 0.706,-1.324 1.196,-2.407 1.09,-2.407 -0.107,0 -0.747,1.021 -1.422,2.268 m -150.896,0.315 c -0.799,1.169 -1.56,2.552 -1.691,3.072 -0.226,0.902 -0.215,0.899 0.259,-0.067 0.273,-0.556 1.089,-1.883 1.815,-2.948 0.725,-1.065 1.263,-1.992 1.194,-2.06 -0.068,-0.068 -0.778,0.833 -1.577,2.003 M 169,60.4 c -0.401,0.443 -0.638,0.895 -0.528,1.005 0.11,0.11 0.527,-0.162 0.928,-0.605 0.401,-0.443 0.638,-0.895 0.528,-1.005 -0.11,-0.11 -0.527,0.162 -0.928,0.605 m 125.311,2.96 c -2.244,1.334 -2.35,1.635 -0.211,0.6 1.045,-0.506 1.9,-1.064 1.9,-1.24 0,-0.389 0.119,-0.434 -1.689,0.64 M 273.2,64.286 c 0.33,0.122 0.96,0.388 1.4,0.59 0.787,0.362 0.788,0.358 0.024,-0.254 -0.428,-0.342 -1.058,-0.608 -1.4,-0.59 -0.539,0.027 -0.542,0.061 -0.024,0.254 m 9.8,2.114 -1.6,0.286 1.476,0.057 c 0.812,0.031 1.588,-0.123 1.724,-0.343 0.136,-0.22 0.192,-0.374 0.124,-0.343 -0.068,0.031 -0.844,0.185 -1.724,0.343 m -58.586,7.614 c -1.548,1.547 -2.814,3.007 -2.814,3.243 0,0.237 0.716,-0.437 1.592,-1.496 0.876,-1.06 2.341,-2.52 3.256,-3.244 0.916,-0.724 1.465,-1.317 1.222,-1.317 -0.243,0 -1.709,1.266 -3.256,2.814 M 169.4,73.007 c 0.44,0.359 1.16,0.828 1.6,1.044 l 0.8,0.393 -0.8,-0.651 c -0.44,-0.359 -1.16,-0.828 -1.6,-1.044 l -0.8,-0.393 0.8,0.651 M 102.003,77.5 c 0.002,0.165 0.767,0.702 1.7,1.193 l 1.697,0.893 -1.385,-1.193 c -1.374,-1.184 -2.018,-1.47 -2.012,-0.893 M 77.3,80.046 c -1.283,0.821 -1.587,1.168 -1,1.14 0.331,-0.016 2.821,-1.985 2.5,-1.977 -0.11,0.002 -0.785,0.379 -1.5,0.837 M 73.978,83.1 72.6,84.6 74.1,83.222 c 1.396,-1.284 1.684,-1.622 1.378,-1.622 -0.066,0 -0.741,0.675 -1.5,1.5 m 82.748,-0.053 c 0.707,1.034 2.874,2.877 2.874,2.446 0,-0.07 -0.839,-0.929 -1.864,-1.91 -1.527,-1.461 -1.71,-1.558 -1.01,-0.536 m 78.797,2.453 c -0.331,0.385 -0.732,0.97 -0.892,1.3 -0.16,0.33 -0.003,0.24 0.348,-0.2 0.351,-0.44 0.939,-1.025 1.306,-1.3 0.367,-0.275 0.481,-0.5 0.253,-0.5 -0.228,0 -0.685,0.315 -1.015,0.7 m -45.801,0.729 -1.122,1.029 1.3,-0.904 c 0.715,-0.497 1.3,-0.961 1.3,-1.029 0,-0.316 -0.442,-0.045 -1.478,0.904 M 70.493,87.1 c -1.036,1.496 -1.372,2.1 -1.17,2.1 0.094,0 0.647,-0.72 1.23,-1.6 1.183,-1.788 1.131,-2.221 -0.06,-0.5 m 163.2,4.5 c 0,0.77 0.082,1.085 0.183,0.7 0.1,-0.385 0.1,-1.015 0,-1.4 -0.101,-0.385 -0.183,-0.07 -0.183,0.7 M 96.7,93.288 c 0.495,0.239 0.9,0.587 0.9,0.773 0,0.187 0.225,0.333 0.5,0.326 0.275,-0.008 0.075,-0.368 -0.444,-0.8 -0.52,-0.433 -1.15,-0.775 -1.4,-0.76 -0.251,0.015 -0.051,0.222 0.444,0.461 m 119.7,0.465 c 0,0.33 0.18,0.711 0.4,0.847 0.22,0.136 0.4,-0.023 0.4,-0.353 0,-0.33 -0.18,-0.711 -0.4,-0.847 -0.22,-0.136 -0.4,0.023 -0.4,0.353 m 81.3,0.081 c -0.715,0.312 -1.3,0.648 -1.3,0.746 0,0.295 2.384,-0.631 2.624,-1.019 0.267,-0.432 0.305,-0.44 -1.324,0.273 m -3.713,2.28 c -0.557,0.487 -1.264,1.246 -1.571,1.686 -0.38,0.545 -0.222,0.481 0.494,-0.2 1.487,-1.413 2.043,-1.846 2.708,-2.108 0.498,-0.196 0.495,-0.231 -0.018,-0.246 -0.33,-0.009 -1.056,0.381 -1.613,0.868 m 27.024,-0.375 c 2.314,1.579 2.989,1.92 2.989,1.507 0,-0.245 -0.197,-0.446 -0.437,-0.446 -0.24,0 -0.894,-0.36 -1.454,-0.8 -0.559,-0.44 -1.213,-0.8 -1.452,-0.8 -0.239,0 -0.08,0.242 0.354,0.539 M 116.128,100 c 0,1.43 0.073,2.015 0.161,1.3 0.089,-0.715 0.089,-1.885 0,-2.6 -0.088,-0.715 -0.161,-0.13 -0.161,1.3 M 324.4,97.864 c 0,0.218 0.495,0.833 1.1,1.366 l 1.1,0.97 -1,-1.2 c -0.55,-0.66 -1.045,-1.275 -1.1,-1.367 -0.055,-0.091 -0.1,0.012 -0.1,0.231 M 99.693,100 c 0,0.77 0.082,1.085 0.183,0.7 0.1,-0.385 0.1,-1.015 0,-1.4 -0.101,-0.385 -0.183,-0.07 -0.183,0.7 m 141.412,-0.117 c 0.497,0.096 1.217,0.092 1.6,-0.008 0.382,-0.1 -0.025,-0.179 -0.905,-0.174 -0.88,0.004 -1.193,0.086 -0.695,0.182 m 22.875,1.756 c -0.46,0.901 -0.767,1.707 -0.683,1.791 0.084,0.084 0.544,-0.654 1.022,-1.639 1.09,-2.244 0.796,-2.376 -0.339,-0.152 m -1.58,2.961 c 0,0.33 -0.174,0.6 -0.386,0.6 -0.212,0 -0.579,0.36 -0.814,0.8 -0.29,0.542 -0.295,0.8 -0.014,0.8 0.228,0 0.414,-0.27 0.414,-0.6 0,-0.33 0.174,-0.6 0.386,-0.6 0.212,0 0.579,-0.36 0.814,-0.8 0.29,-0.542 0.295,-0.8 0.014,-0.8 -0.228,0 -0.414,0.27 -0.414,0.6 m 39.617,6.042 c -0.697,0.793 -1.141,1.558 -0.987,1.7 0.154,0.142 0.374,-0.01 0.49,-0.338 0.116,-0.328 0.708,-1.093 1.315,-1.7 0.607,-0.607 0.956,-1.104 0.776,-1.104 -0.181,0 -0.898,0.649 -1.594,1.442 m 11.984,-0.042 c 0.55,0.66 1.044,1.275 1.099,1.367 0.055,0.091 0.188,0.078 0.296,-0.029 0.108,-0.108 -0.387,-0.723 -1.099,-1.367 l -1.294,-1.171 0.998,1.2 m -242.227,3.9 c 0.616,0.825 1.196,1.5 1.288,1.5 0.352,0 -0.631,-1.446 -1.499,-2.204 -0.746,-0.652 -0.708,-0.524 0.211,0.704 m 3.2,3.458 c 0.149,0.241 0.642,0.637 1.097,0.88 0.591,0.316 0.749,0.318 0.555,0.004 -0.149,-0.241 -0.642,-0.637 -1.097,-0.88 -0.591,-0.316 -0.749,-0.318 -0.555,-0.004 m 29.626,2.541 c -0.66,0.48 -1.29,0.988 -1.4,1.129 -0.11,0.141 -0.74,0.545 -1.4,0.898 -0.66,0.353 -1.002,0.649 -0.759,0.658 0.242,0.009 1.052,-0.434 1.8,-0.985 0.747,-0.551 1.662,-1.108 2.031,-1.239 0.37,-0.132 0.769,-0.491 0.888,-0.799 0.271,-0.707 0.278,-0.709 -1.16,0.338 m 209.434,2.054 -0.965,1.247 1.144,-1.088 c 0.63,-0.598 1.064,-1.159 0.966,-1.247 -0.099,-0.088 -0.614,0.402 -1.145,1.088 m 14.341,7.935 c -1.722,2.273 -2.081,2.952 -0.801,1.512 1.212,-1.363 2.195,-2.8 1.915,-2.8 -0.076,0 -0.577,0.579 -1.114,1.288 m -37.775,3.078 c 0.778,0.895 3,2.632 3,2.346 0,-0.078 -0.855,-0.845 -1.9,-1.704 -1.045,-0.859 -1.54,-1.148 -1.1,-0.642 M 68.307,141.49 c 0.719,0.089 1.799,0.087 2.4,-0.004 0.601,-0.091 0.013,-0.164 -1.307,-0.162 -1.32,0.002 -1.812,0.077 -1.093,0.166 m 53.798,-0.003 c 0.609,0.092 1.509,0.09 2,-0.005 0.492,-0.095 -0.005,-0.171 -1.105,-0.168 -1.1,0.003 -1.503,0.081 -0.895,0.173 m 184.991,0.199 c 0.63,0.304 1.281,0.309 2.2,0.014 1.247,-0.4 1.207,-0.419 -0.896,-0.432 -1.856,-0.012 -2.06,0.054 -1.304,0.418 m -165.604,8.956 c -0.161,0.16 -0.292,0.567 -0.292,0.905 0,0.45 0.118,0.495 0.445,0.168 0.245,-0.245 0.376,-0.652 0.292,-0.905 -0.085,-0.253 -0.285,-0.329 -0.445,-0.168 m 178.708,7.781 c 2.319,0.48 6.701,0.464 6.4,-0.023 -0.141,-0.228 -1.918,-0.38 -4.124,-0.354 -3.146,0.037 -3.575,0.108 -2.276,0.377 m -256.694,0.268 2.505,0.146 -0.105,25.962 c -0.058,14.278 0.03,25.825 0.197,25.658 0.167,-0.167 0.257,-11.903 0.2,-26.08 L 66.2,158.6 l -2.6,-0.027 -2.6,-0.028 2.506,0.146 m 26.619,0.008 c 3.479,0.067 9.059,0.067 12.4,0 3.341,-0.067 0.495,-0.121 -6.325,-0.121 -6.82,0 -9.554,0.055 -6.075,0.121 m 35.172,25.801 0.097,26.1 0.106,-25.883 0.106,-25.882 2.897,-0.138 2.897,-0.138 -3.1,-0.08 -3.1,-0.079 0.097,26.1 M 335.6,158.8 c 0,0.22 0.27,0.4 0.6,0.4 0.33,0 0.6,-0.18 0.6,-0.4 0,-0.22 -0.27,-0.4 -0.6,-0.4 -0.33,0 -0.6,0.18 -0.6,0.4 m 5.6,6.953 c 0,0.33 0.18,0.711 0.4,0.847 0.22,0.136 0.4,-0.023 0.4,-0.353 0,-0.33 -0.18,-0.711 -0.4,-0.847 -0.22,-0.136 -0.4,0.023 -0.4,0.353 m -15.905,41.755 -0.095,32.508 1.804,3.592 c 0.992,1.976 1.894,3.592 2.004,3.592 0.111,0 -0.566,-1.485 -1.504,-3.3 l -1.704,-3.3 -0.205,-32.8 -0.204,-32.8 -0.096,32.508 M 83.44,206.035 c -0.178,1.889 -0.246,3.779 -0.151,4.2 0.237,1.047 0.823,-4.938 0.63,-6.435 -0.085,-0.66 -0.3,0.346 -0.479,2.235 M 54.386,216.33 c -0.998,0.589 -2.167,1.281 -2.597,1.54 -0.43,0.258 -0.67,0.582 -0.533,0.719 0.137,0.137 0.504,-0.006 0.815,-0.317 0.311,-0.312 0.963,-0.692 1.448,-0.846 0.484,-0.154 0.881,-0.428 0.881,-0.61 0,-0.181 0.45,-0.442 1,-0.58 0.55,-0.138 1,-0.428 1,-0.644 0,-0.484 0.152,-0.54 -2.014,0.738 M 83,216.8 c -0.15,0.473 -0.183,0.95 -0.073,1.06 0.11,0.11 0.323,-0.187 0.473,-0.66 0.15,-0.473 0.183,-0.95 0.073,-1.06 -0.11,-0.11 -0.323,0.187 -0.473,0.66 m 58.203,1.073 c 0.001,0.18 0.541,0.634 1.2,1.008 1.54,0.877 1.539,0.617 -0.003,-0.481 -0.66,-0.47 -1.199,-0.707 -1.197,-0.527 m 3.23,2.257 c 0.092,0.071 0.797,0.536 1.567,1.033 l 1.4,0.903 -1.2,-1.031 c -0.66,-0.567 -1.365,-1.032 -1.567,-1.033 -0.201,-0.001 -0.291,0.056 -0.2,0.128 m -36.033,0.562 c 0,0.716 2.731,2.773 4.853,3.655 2.577,1.071 2.503,0.674 -0.099,-0.532 -1.126,-0.521 -2.656,-1.538 -3.4,-2.26 -0.745,-0.722 -1.354,-1.11 -1.354,-0.863 m -71.038,8.166 c -0.757,0.852 -0.756,0.855 0.116,0.398 0.972,-0.51 1.571,-1.256 1.008,-1.256 -0.199,0 -0.705,0.386 -1.124,0.858 m 123.212,4.351 c 4.136,4.46 4.499,4.782 2.929,2.591 -0.789,-1.1 -2.395,-2.806 -3.569,-3.791 -2.106,-1.768 -2.098,-1.752 0.64,1.2 m -128.118,0.661 -2.656,2.669 2.8,-2.552 c 1.54,-1.403 2.875,-2.604 2.967,-2.669 0.091,-0.065 0.027,-0.118 -0.144,-0.118 -0.171,0 -1.506,1.201 -2.967,2.67 m 133.144,4.419 c 0,0.232 0.371,0.847 0.824,1.367 l 0.823,0.944 -0.702,-1.2 c -0.925,-1.579 -0.945,-1.603 -0.945,-1.111 m -21.401,2.509 c 0.135,0.219 0.641,0.605 1.123,0.858 0.872,0.457 0.873,0.454 0.116,-0.398 -0.763,-0.86 -1.702,-1.208 -1.239,-0.46 m -99.789,4.021 c -1.545,1.33 -2.81,2.518 -2.81,2.639 0,0.122 1.125,-0.73 2.5,-1.892 3.408,-2.882 3.713,-3.166 3.396,-3.166 -0.152,0 -1.54,1.088 -3.086,2.419 m 104.39,-0.004 c 0.99,0.932 2.34,2.267 3,2.966 0.66,0.7 0.936,0.9 0.612,0.445 -1.095,-1.54 -3.007,-3.492 -4.212,-4.301 -0.784,-0.526 -0.576,-0.218 0.6,0.89 m 105.4,1.985 c -0.557,1.1 -0.923,2 -0.813,2 0.11,0 0.656,-0.9 1.213,-2 0.557,-1.1 0.923,-2 0.813,-2 -0.11,0 -0.656,0.9 -1.213,2 m -99.781,3.895 c 0.508,0.712 1.017,1.202 1.131,1.088 0.114,-0.114 -0.301,-0.697 -0.924,-1.295 l -1.131,-1.088 0.924,1.295 m -137.362,1.499 c -1.543,2.324 -1.846,3.052 -0.857,2.063 0.33,-0.33 0.6,-0.793 0.6,-1.028 0,-0.236 0.18,-0.429 0.4,-0.429 0.22,0 0.4,-0.27 0.4,-0.6 0,-0.33 0.18,-0.6 0.4,-0.6 0.22,0 0.4,-0.255 0.4,-0.567 0,-0.311 0.225,-0.657 0.5,-0.768 0.299,-0.121 0.322,-0.215 0.057,-0.233 -0.244,-0.018 -1.099,0.955 -1.9,2.162 m -2.463,3.958 c -0.368,0.563 -0.576,1.253 -0.463,1.535 0.134,0.333 0.217,0.278 0.237,-0.158 0.018,-0.37 0.323,-0.963 0.68,-1.319 0.356,-0.357 0.55,-0.745 0.432,-0.864 -0.119,-0.118 -0.517,0.244 -0.886,0.806 m -3.116,6.053 c -0.366,0.767 -0.583,1.395 -0.482,1.395 0.274,0 1.488,-2.449 1.305,-2.632 -0.087,-0.087 -0.457,0.47 -0.823,1.237 m 306.403,1.995 c 0.367,0.77 0.811,1.4 0.987,1.4 0.175,0 0.019,-0.63 -0.349,-1.4 -0.367,-0.77 -0.811,-1.4 -0.987,-1.4 -0.175,0 -0.019,0.63 0.349,1.4 m -55.197,4.017 c -1.053,2.081 -1.769,3.783 -1.59,3.783 0.179,0 1.175,-1.71 2.213,-3.8 1.038,-2.09 1.754,-3.792 1.59,-3.783 -0.163,0.01 -1.159,1.72 -2.213,3.8 M 27.4,266.8 c -0.341,0.66 -0.531,1.2 -0.421,1.2 0.11,0 0.48,-0.54 0.821,-1.2 0.341,-0.66 0.531,-1.2 0.421,-1.2 -0.11,0 -0.48,0.54 -0.821,1.2 m -2.2,4 c -0.666,1.32 -1.122,2.4 -1.012,2.4 0.11,0 0.746,-1.08 1.412,-2.4 0.666,-1.32 1.122,-2.4 1.012,-2.4 -0.11,0 -0.746,1.08 -1.412,2.4 m 319.6,8.4 c 2.202,4.4 4.086,8 4.186,8 0.31,0 -7.567,-15.956 -7.888,-15.979 -0.166,-0.012 1.5,3.579 3.702,7.979 m -110.6,7.6 c -0.557,1.1 -0.923,2 -0.813,2 0.11,0 0.656,-0.9 1.213,-2 0.557,-1.1 0.923,-2 0.813,-2 -0.11,0 -0.656,0.9 -1.213,2 m 11.272,16.619 c -0.94,1.97 -0.808,2.305 0.175,0.443 0.446,-0.846 0.74,-1.608 0.654,-1.695 -0.087,-0.086 -0.46,0.477 -0.829,1.252 m 92.514,0.954 c 1.138,2.231 1.816,2.465 0.743,0.256 -0.489,-1.006 -1.036,-1.829 -1.217,-1.829 -0.18,0 0.033,0.708 0.474,1.573 M 174.412,304.2 c 0,0.44 0.175,1.07 0.388,1.4 0.321,0.497 0.388,0.462 0.388,-0.2 0,-0.44 -0.175,-1.07 -0.388,-1.4 -0.321,-0.497 -0.388,-0.462 -0.388,0.2 m -157.548,2.3 -0.064,1.5 4.9,-0.086 4.9,-0.086 -4.676,-0.126 -4.675,-0.127 -0.161,-1.287 c -0.156,-1.253 -0.162,-1.247 -0.224,0.212 M 303,308 l -37.2,0.206 37.3,0.097 c 24.665,0.064 37.3,-0.039 37.3,-0.303 0,-0.22 -0.045,-0.356 -0.1,-0.303 -0.055,0.053 -16.84,0.19 -37.3,0.303 m -150.7,0.299 c 4.235,0.065 11.165,0.065 15.4,0 4.235,-0.064 0.77,-0.117 -7.7,-0.117 -8.47,0 -11.935,0.053 -7.7,0.117 M 363.2,316 c 1.323,2.64 2.496,4.8 2.606,4.8 0.11,0 -0.883,-2.16 -2.206,-4.8 -1.323,-2.64 -2.496,-4.8 -2.606,-4.8 -0.11,0 0.883,2.16 2.206,4.8 m -149,10.8 c -1.214,2.42 -2.117,4.4 -2.007,4.4 0.11,0 1.193,-1.98 2.407,-4.4 1.214,-2.42 2.117,-4.4 2.007,-4.4 -0.11,0 -1.193,1.98 -2.407,4.4 m -82.4,-1.58 c 5.28,0.15 12.84,0.264 16.8,0.254 l 7.2,-0.017 -6.2,-0.276 c -3.41,-0.151 -10.97,-0.265 -16.8,-0.254 l -10.6,0.022 9.6,0.271 m 240.239,8.18 c 0,0.22 0.612,1.57 1.361,3 0.749,1.43 1.361,2.42 1.361,2.2 0,-0.22 -0.612,-1.57 -1.361,-3 -0.749,-1.43 -1.361,-2.42 -1.361,-2.2 m -189.805,11.389 c -0.813,1.546 -1.331,2.811 -1.151,2.811 0.322,0 2.954,-5.295 2.739,-5.511 -0.061,-0.061 -0.776,1.154 -1.588,2.7 M 357.685,343.8 c 0.481,0.99 1.016,1.8 1.19,1.8 0.173,0 -0.079,-0.81 -0.56,-1.8 -0.481,-0.99 -1.016,-1.8 -1.19,-1.8 -0.173,0 0.079,0.81 0.56,1.8 m -134.992,4.4 c -1.038,2.09 -1.75,3.8 -1.581,3.8 0.169,0 1.157,-1.71 2.195,-3.8 1.038,-2.09 1.75,-3.8 1.581,-3.8 -0.169,0 -1.157,1.71 -2.195,3.8 M 29.877,348.031 c 0.398,0.677 0.979,1.442 1.291,1.7 0.312,0.258 0.064,-0.296 -0.553,-1.231 -1.295,-1.963 -1.806,-2.288 -0.738,-0.469 m 349.995,1.059 c -0.103,0.171 0.788,2.2 1.98,4.51 1.192,2.31 2.049,3.759 1.905,3.219 -0.425,-1.59 -3.681,-8.067 -3.885,-7.729 m -221.918,3.81 c -0.26,0.495 -0.672,1.032 -0.914,1.194 -0.308,0.205 -0.294,0.296 0.046,0.3 0.267,0.003 0.699,-0.399 0.96,-0.894 0.26,-0.495 0.672,-1.032 0.914,-1.194 0.308,-0.205 0.294,-0.296 -0.046,-0.3 -0.267,-0.003 -0.699,0.399 -0.96,0.894 m -123.379,1.632 c 0.616,0.807 1.201,1.468 1.3,1.468 0.278,0 -1.454,-2.34 -1.966,-2.656 -0.25,-0.155 0.05,0.38 0.666,1.188 M 155.46,356 c -0.329,0.66 -0.535,1.2 -0.457,1.2 0.079,0 0.527,-0.54 0.997,-1.2 0.47,-0.66 0.675,-1.2 0.457,-1.2 -0.219,0 -0.668,0.54 -0.997,1.2 m 43.868,0.828 c -0.474,0.864 -0.73,1.572 -0.569,1.572 0.313,0 1.759,-2.815 1.553,-3.022 -0.068,-0.067 -0.511,0.585 -0.984,1.45 m -162.566,0.301 c 0.243,0.455 0.639,0.948 0.88,1.097 0.314,0.194 0.312,0.036 -0.004,-0.555 -0.243,-0.455 -0.639,-0.948 -0.88,-1.097 -0.314,-0.194 -0.312,-0.036 0.004,0.555 m 114.669,3.222 -1.97,2.249 2.151,-2.086 c 1.182,-1.147 2.068,-2.159 1.969,-2.249 -0.1,-0.089 -1.067,0.849 -2.15,2.086 M 385.4,360.8 c 0.776,1.54 1.5,2.8 1.61,2.8 0.11,0 -0.434,-1.26 -1.21,-2.8 -0.776,-1.54 -1.5,-2.8 -1.61,-2.8 -0.11,0 0.434,1.26 1.21,2.8 m -343.604,1.563 c 0.758,0.868 2.204,1.851 2.204,1.499 0,-0.092 -0.675,-0.672 -1.5,-1.288 -1.228,-0.919 -1.356,-0.957 -0.704,-0.211 m 2.604,2.162 c 0,0.099 0.661,0.684 1.468,1.3 0.808,0.616 1.343,0.916 1.188,0.666 -0.316,-0.512 -2.656,-2.244 -2.656,-1.966 m -21.025,2.007 c 0.616,0.807 1.201,1.468 1.3,1.468 0.278,0 -1.454,-2.34 -1.966,-2.656 -0.25,-0.155 0.05,0.38 0.666,1.188 m 170.004,2.309 c -0.787,1.563 -1.365,2.906 -1.285,2.986 0.079,0.08 0.809,-1.199 1.622,-2.841 0.813,-1.642 1.391,-2.986 1.286,-2.986 -0.106,0 -0.836,1.278 -1.623,2.841 m -29.389,1.817 c -1.645,1.681 -2.579,2.785 -2.076,2.452 0.851,-0.563 5.528,-5.51 5.21,-5.51 -0.079,0 -1.49,1.376 -3.134,3.058 M 27.6,371 c 0.746,0.77 1.447,1.4 1.557,1.4 0.11,0 -0.411,-0.63 -1.157,-1.4 -0.746,-0.77 -1.447,-1.4 -1.557,-1.4 -0.11,0 0.411,0.63 1.157,1.4 m 105.4,2.571 c -3.146,1.531 -2.642,1.568 0.646,0.047 1.405,-0.65 2.374,-1.189 2.154,-1.198 -0.22,-0.01 -1.48,0.508 -2.8,1.151 m 73.478,7.662 c -1.076,1.87 -0.813,2.096 2.173,1.863 l 1.949,-0.152 -2.333,-0.072 -2.332,-0.072 0.878,-1.421 c 0.483,-0.782 0.81,-1.49 0.726,-1.573 -0.084,-0.084 -0.561,0.558 -1.061,1.427 m -56.889,1.453 c -0.544,0.377 -1.338,1.007 -1.764,1.4 -0.427,0.393 -1.012,0.714 -1.3,0.714 -0.289,0 -0.525,0.186 -0.525,0.414 0,0.513 0.717,0.137 3.399,-1.783 1.099,-0.787 1.814,-1.431 1.589,-1.431 -0.226,0 -0.855,0.309 -1.399,0.686 M 45.11,385.201 c 1.698,1.036 2.254,1.035 0.69,-0.001 -0.66,-0.437 -1.38,-0.795 -1.6,-0.796 -0.22,0 0.189,0.358 0.91,0.797 m 351.071,13.299 -1.581,1.7 1.7,-1.581 c 1.581,-1.471 1.884,-1.819 1.581,-1.819 -0.065,0 -0.83,0.765 -1.7,1.7 M 190.5,399.476 c 0.385,0.1 1.015,0.1 1.4,0 0.385,-0.101 0.07,-0.183 -0.7,-0.183 -0.77,0 -1.085,0.082 -0.7,0.183 m -96.587,0.419 c 1.163,0.081 2.963,0.081 4,-0.002 1.038,-0.082 0.087,-0.148 -2.113,-0.147 -2.2,0.001 -3.049,0.068 -1.887,0.149 m 118.209,0.004 c 2.377,0.071 6.157,0.07 8.4,-10e-4 2.243,-0.071 0.298,-0.129 -4.322,-0.129 -4.62,10e-4 -6.455,0.059 -4.078,0.13"
         id="path3-3"
         inkscape:connector-curvature="0"
         style="fill:#b3b3b3;fill-rule:evenodd;stroke:none" />
      <path
         d="m 300.793,24.347 c 0.955,0.909 1.832,1.653 1.947,1.653 0.366,0 -2.106,-2.451 -2.912,-2.887 -0.425,-0.23 0.009,0.325 0.965,1.234 M 124.501,25 c 0.004,0.88 0.086,1.193 0.182,0.695 0.096,-0.497 0.092,-1.217 -0.008,-1.6 -0.1,-0.382 -0.179,0.025 -0.174,0.905 M 157.2,49 c -0.517,0.55 -0.759,1 -0.539,1 0.22,0 0.822,-0.45 1.339,-1 0.517,-0.55 0.759,-1 0.539,-1 -0.22,0 -0.822,0.45 -1.339,1 m 108.629,9.838 c 0.644,0.791 1.252,1.37 1.35,1.287 0.099,-0.083 -0.428,-0.73 -1.17,-1.438 l -1.351,-1.287 1.171,1.438 M 300.8,58.6 c -0.517,0.55 -0.759,1 -0.539,1 0.22,0 0.822,-0.45 1.339,-1 0.517,-0.55 0.759,-1 0.539,-1 -0.22,0 -0.822,0.45 -1.339,1 M 181,61.2 c 0.398,0.44 0.792,0.8 0.876,0.8 0.084,0 -0.041,-0.36 -0.276,-0.8 -0.235,-0.44 -0.63,-0.8 -0.876,-0.8 -0.246,0 -0.122,0.36 0.276,0.8 m -31.307,5.2 c 0,0.77 0.082,1.085 0.183,0.7 0.1,-0.385 0.1,-1.015 0,-1.4 -0.101,-0.385 -0.183,-0.07 -0.183,0.7 M 73.578,83.1 72.2,84.6 73.7,83.222 c 1.396,-1.284 1.684,-1.622 1.378,-1.622 -0.066,0 -0.741,0.675 -1.5,1.5 m 82.036,-0.851 c -0.015,0.491 3.377,3.76 3.877,3.737 0.17,-0.008 -0.207,-0.437 -0.838,-0.953 -0.631,-0.516 -1.57,-1.455 -2.086,-2.086 -0.516,-0.631 -0.945,-0.945 -0.953,-0.698 m 91.62,3.198 c 0.531,0.686 1.046,1.176 1.145,1.088 0.098,-0.088 -0.336,-0.649 -0.966,-1.247 l -1.144,-1.088 0.965,1.247 m 72.776,9.079 c 0.116,0.126 0.889,0.688 1.718,1.251 1.63,1.106 2.58,1.39 1.272,0.38 -0.848,-0.655 -3.347,-2.018 -2.99,-1.631 m -29.227,4.358 -1.719,2.116 1.949,-1.886 c 1.072,-1.037 1.845,-1.989 1.718,-2.116 -0.126,-0.127 -1.003,0.722 -1.948,1.886 M 324.8,97.93 c 0,0.182 0.482,0.767 1.071,1.3 l 1.071,0.97 -0.898,-1.3 C 325.137,97.588 324.8,97.325 324.8,97.93 m -60.719,4.279 c -0.479,0.985 -0.787,1.791 -0.684,1.791 0.271,0 1.887,-3.249 1.706,-3.43 -0.084,-0.084 -0.544,0.654 -1.022,1.639 M 218.4,101.6 c 0,0.22 0.168,0.4 0.373,0.4 0.205,0 0.492,0.374 0.637,0.83 0.144,0.457 0.343,0.75 0.441,0.652 0.264,-0.264 -0.723,-2.282 -1.115,-2.282 -0.185,0 -0.336,0.18 -0.336,0.4 m -109.419,15.7 -1.581,1.7 1.7,-1.581 c 1.581,-1.471 1.884,-1.819 1.581,-1.819 -0.065,0 -0.83,0.765 -1.7,1.7 m 174.32,0.5 c 0.004,0.88 0.086,1.193 0.182,0.695 0.096,-0.497 0.092,-1.217 -0.008,-1.6 -0.1,-0.382 -0.179,0.025 -0.174,0.905 M 297.6,139 c 0.55,0.314 1.18,0.572 1.4,0.572 0.22,0 -0.05,-0.258 -0.6,-0.572 -0.55,-0.314 -1.18,-0.572 -1.4,-0.572 -0.22,0 0.05,0.258 0.6,0.572 m 29.12,19.48 c 0.373,0.373 0.587,0.373 0.96,0 0.373,-0.373 0.267,-0.48 -0.48,-0.48 -0.747,0 -0.853,0.107 -0.48,0.48 m -82.545,2.02 -1.175,1.3 1.3,-1.175 c 0.715,-0.646 1.3,-1.231 1.3,-1.3 0,-0.309 -0.33,-0.037 -1.425,1.175 M 83.701,209.4 c 0.004,0.88 0.086,1.193 0.182,0.695 0.096,-0.497 0.092,-1.217 -0.008,-1.6 -0.1,-0.382 -0.179,0.025 -0.174,0.905 m -2.131,12.455 c -0.534,0.58 -0.715,0.975 -0.404,0.878 0.527,-0.165 1.947,-1.933 1.553,-1.933 -0.099,0 -0.616,0.475 -1.149,1.055 m -49.958,12.333 c -1.853,1.863 -3.289,3.455 -3.191,3.537 0.098,0.082 1.721,-1.442 3.606,-3.388 1.885,-1.945 3.321,-3.537 3.191,-3.537 -0.13,0 -1.752,1.524 -3.606,3.388 m 132.186,1.923 c 0.613,0.831 1.214,1.41 1.337,1.287 0.123,-0.123 -0.378,-0.803 -1.113,-1.511 l -1.337,-1.287 1.113,1.511 m -121.03,10.683 c -1.852,1.757 -3.184,3.197 -2.959,3.2 0.226,0.003 1.841,-1.434 3.591,-3.194 4.102,-4.126 3.716,-4.129 -0.632,-0.006 M 331.64,252.2 c 0,0.22 0.792,1.93 1.76,3.8 0.968,1.87 1.76,3.22 1.76,3 0,-0.22 -0.792,-1.93 -1.76,-3.8 -0.968,-1.87 -1.76,-3.22 -1.76,-3 m -82.968,5.219 c -0.94,1.97 -0.808,2.305 0.175,0.443 0.446,-0.846 0.74,-1.608 0.654,-1.695 -0.087,-0.086 -0.46,0.477 -0.829,1.252 M 178.428,256.6 c 0,0.22 0.258,0.85 0.572,1.4 0.314,0.55 0.572,0.82 0.572,0.6 0,-0.22 -0.258,-0.85 -0.572,-1.4 -0.314,-0.55 -0.572,-0.82 -0.572,-0.6 m 88.244,4.419 c -0.94,1.97 -0.808,2.305 0.175,0.443 0.446,-0.846 0.74,-1.608 0.654,-1.695 -0.087,-0.086 -0.46,0.477 -0.829,1.252 M 342.04,272.6 c 0,0.22 0.702,1.75 1.56,3.4 0.858,1.65 1.56,2.82 1.56,2.6 0,-0.22 -0.702,-1.75 -1.56,-3.4 -0.858,-1.65 -1.56,-2.82 -1.56,-2.6 m -103.14,4.423 c -0.589,0.64 -0.638,0.977 -0.143,0.977 0.341,0 0.98,-1.204 0.752,-1.417 -0.06,-0.056 -0.334,0.142 -0.609,0.44 m 17.565,3.994 c -0.67,1.471 -0.542,1.785 0.182,0.448 0.339,-0.625 0.541,-1.211 0.449,-1.302 -0.091,-0.092 -0.375,0.293 -0.631,0.854 M 351.64,292.2 c 0,0.22 0.792,1.93 1.76,3.8 0.968,1.87 1.76,3.22 1.76,3 0,-0.22 -0.792,-1.93 -1.76,-3.8 -0.968,-1.87 -1.76,-3.22 -1.76,-3 m -122.968,5.219 c -0.94,1.97 -0.808,2.305 0.175,0.443 0.446,-0.846 0.74,-1.608 0.654,-1.695 -0.087,-0.086 -0.46,0.477 -0.829,1.252 M 28.917,307.897 c 1.494,0.077 3.834,0.077 5.2,-10e-4 1.365,-0.078 0.143,-0.141 -2.717,-0.141 -2.86,10e-4 -3.978,0.065 -2.483,0.142 m 334.045,6.876 c 1.114,2.185 2.082,3.916 2.152,3.846 0.188,-0.188 -3.654,-7.819 -3.936,-7.819 -0.133,0 0.669,1.788 1.784,3.973 m -144.062,2.25 c -0.589,0.64 -0.638,0.977 -0.143,0.977 0.341,0 0.98,-1.204 0.752,-1.417 -0.06,-0.056 -0.334,0.142 -0.609,0.44 m -92.4,8.475 c 2.365,0.071 6.235,0.071 8.6,0 2.365,-0.07 0.43,-0.128 -4.3,-0.128 -4.73,0 -6.665,0.058 -4.3,0.128 m 82.78,10.722 c -0.704,1.428 -1.271,2.727 -1.26,2.888 0.01,0.16 0.652,-0.941 1.426,-2.449 0.773,-1.507 1.34,-2.806 1.26,-2.887 -0.081,-0.08 -0.723,1.021 -1.426,2.448 m -42.015,0.797 c -0.67,1.471 -0.542,1.785 0.182,0.448 0.339,-0.625 0.541,-1.211 0.449,-1.302 -0.091,-0.092 -0.375,0.293 -0.631,0.854 m 59.407,4.002 c -0.94,1.97 -0.808,2.305 0.175,0.443 0.446,-0.846 0.74,-1.608 0.654,-1.695 -0.087,-0.086 -0.46,0.477 -0.829,1.252 m -43.807,3.198 c -0.67,1.471 -0.542,1.785 0.182,0.448 0.339,-0.625 0.541,-1.211 0.449,-1.302 -0.091,-0.092 -0.375,0.293 -0.631,0.854 M 154.8,356.2 c -0.283,0.341 -0.424,0.709 -0.314,0.819 0.11,0.11 0.431,-0.078 0.714,-0.419 0.283,-0.341 0.424,-0.709 0.314,-0.819 -0.11,-0.11 -0.431,0.078 -0.714,0.419 m 228.834,0 c 0,0.22 0.344,1.03 0.766,1.8 0.422,0.77 0.766,1.22 0.766,1 0,-0.22 -0.344,-1.03 -0.766,-1.8 -0.422,-0.77 -0.766,-1.22 -0.766,-1 m -345.703,2.059 c 0.377,0.693 1.878,2.174 3.969,3.915 1.735,1.446 0.875,0.396 -1.736,-2.118 -1.45,-1.396 -2.455,-2.205 -2.233,-1.797 m 178.534,2.758 c -0.67,1.471 -0.542,1.785 0.182,0.448 0.339,-0.625 0.541,-1.211 0.449,-1.302 -0.091,-0.092 -0.375,0.293 -0.631,0.854 m -51.084,8.683 -1.581,1.7 1.7,-1.581 c 1.581,-1.471 1.884,-1.819 1.581,-1.819 -0.065,0 -0.83,0.765 -1.7,1.7 M 26.4,370.125 c 0,0.069 0.585,0.654 1.3,1.3 L 29,372.6 27.825,371.3 C 26.73,370.088 26.4,369.816 26.4,370.125 m 134.385,3.859 c -0.762,0.651 -1.194,1.191 -0.96,1.2 0.234,0.009 0.943,-0.524 1.575,-1.184 1.468,-1.533 1.168,-1.541 -0.615,-0.016 m 232.043,1.416 c 0,0.22 0.258,0.85 0.572,1.4 0.314,0.55 0.572,0.82 0.572,0.6 0,-0.22 -0.258,-0.85 -0.572,-1.4 -0.314,-0.55 -0.572,-0.82 -0.572,-0.6 M 210.9,383.076 c 0.385,0.1 1.015,0.1 1.4,0 0.385,-0.101 0.07,-0.183 -0.7,-0.183 -0.77,0 -1.085,0.082 -0.7,0.183 m -69.7,5.124 c -0.55,0.314 -0.82,0.572 -0.6,0.572 0.22,0 0.85,-0.258 1.4,-0.572 0.55,-0.314 0.82,-0.572 0.6,-0.572 -0.22,0 -0.85,0.258 -1.4,0.572 m 64.705,11.683 c 0.497,0.096 1.217,0.092 1.6,-0.008 0.382,-0.1 -0.025,-0.179 -0.905,-0.174 -0.88,0.004 -1.193,0.086 -0.695,0.182"
         id="path4-5"
         inkscape:connector-curvature="0"
         style="fill:#b3b3b3;fill-rule:evenodd;stroke:none" />
    </g>
    <g
       aria-label="-gt"
       transform="matrix(0.26458333,0,0,0.26458333,81.734685,14.622767)"
       style="font-style:normal;font-weight:normal;font-size:373.33334351px;line-height:1.25;font-family:sans-serif;letter-spacing:0px;word-spacing:0px;fill:#000000;fill-opacity:1;stroke:none"
       id="flowRoot150">
      <path
         d="m 589.6569,472.76107 h 98.25521 v 29.89584 H 589.6569 Z"
         style="font-size:373.33334351px;fill:#b3b3b3"
         id="path158"
         inkscape:connector-curvature="0" />
      <path
         d="m 875.85483,485.52149 q 0,-36.45833 -15.13021,-56.51042 -14.94791,-20.05208 -42.10937,-20.05208 -26.97917,0 -42.10938,20.05208 -14.94792,20.05209 -14.94792,56.51042 0,36.27604 14.94792,56.32813 15.13021,20.05208 42.10938,20.05208 27.16146,0 42.10937,-20.05208 15.13021,-20.05209 15.13021,-56.32813 z m 33.54167,79.11459 q 0,52.13541 -23.15104,77.47396 -23.15104,25.52083 -70.91146,25.52083 -17.68229,0 -33.35938,-2.73437 -15.67708,-2.55209 -30.44271,-8.02084 v -32.63021 q 14.76563,8.02084 29.16667,11.84896 14.40104,3.82813 29.34896,3.82813 32.99479,0 49.40104,-17.31771 16.40625,-17.13542 16.40625,-51.95313 v -16.58854 q -10.39062,18.04687 -26.61458,26.97917 -16.22396,8.93229 -38.82813,8.93229 -37.55208,0 -60.52083,-28.61979 -22.96875,-28.6198 -22.96875,-75.83334 0,-47.39583 22.96875,-76.01563 22.96875,-28.61979 60.52083,-28.61979 22.60417,0 38.82813,8.93229 16.22396,8.93229 26.61458,26.97917 v -30.98958 h 33.54167 z"
         style="font-size:373.33334351px;fill:#b3b3b3"
         id="path160"
         inkscape:connector-curvature="0" />
      <path
         d="m 1011.6621,327.83919 v 57.96876 h 69.0886 v 26.06771 h -69.0886 v 110.83333 q 0,24.97396 6.7448,32.08334 6.9271,7.10937 27.8906,7.10937 h 34.4532 v 28.07292 h -34.4532 q -38.8281,0 -53.59372,-14.40104 -14.76563,-14.58334 -14.76563,-52.86459 V 411.87566 h -24.60937 v -26.06771 h 24.60937 v -57.96876 z"
         style="font-size:373.33334351px;fill:#b3b3b3"
         id="path162"
         inkscape:connector-curvature="0" />
    </g>
  </g>
</svg>
