<svg id="svg" version="1.1" width="765" height="720" xmlns="http://www.w3.org/2000/svg" xmlns:xlink="http://www.w3.org/1999/xlink" ><g id="svgg"><path id="path0" d="M111.099 1.222 C 110.674 1.828,110.327 2.588,110.327 2.909 C 110.327 3.231,109.407 3.770,108.284 4.107 C 102.805 5.748,101.363 12.512,105.862 15.460 C 107.279 16.388,110.867 15.881,111.631 14.645 C 111.798 14.375,111.109 14.499,110.102 14.921 C 107.783 15.889,107.110 15.882,105.852 14.873 C 104.885 14.098,104.895 14.088,106.062 14.656 C 107.610 15.410,109.373 14.972,112.680 13.012 C 114.118 12.160,114.771 11.917,114.131 12.471 L 112.968 13.479 114.149 15.236 C 115.658 17.482,116.927 17.637,120.201 15.978 C 122.870 14.626,124.967 14.246,124.967 15.114 C 124.967 15.375,124.527 15.473,123.989 15.333 C 123.452 15.192,121.812 15.685,120.347 16.427 C 116.519 18.367,114.076 17.583,112.801 14.006 C 112.669 13.636,112.413 13.469,112.232 13.635 C 111.659 14.159,115.589 18.301,116.659 18.301 C 117.222 18.301,118.843 17.712,120.261 16.993 C 123.433 15.386,123.922 15.369,123.919 16.863 C 123.917 17.809,123.071 18.471,119.596 20.246 C 117.219 21.460,114.809 22.818,114.239 23.264 C 113.669 23.711,115.673 22.787,118.693 21.211 C 122.606 19.169,124.231 18.039,124.350 17.277 C 124.442 16.690,124.729 16.209,124.987 16.209 C 126.213 16.209,124.351 18.697,122.302 19.798 C 121.036 20.477,118.118 22.107,115.817 23.420 C 113.516 24.734,111.217 25.780,110.708 25.746 C 110.198 25.712,109.904 25.883,110.054 26.126 C 110.308 26.537,95.070 36.363,90.980 38.426 C 87.830 40.015,89.429 38.928,96.732 34.517 C 100.614 32.172,104.026 30.001,104.314 29.692 C 104.601 29.384,103.778 29.766,102.484 30.541 C 101.190 31.315,97.501 33.517,94.287 35.434 C 91.073 37.350,88.553 39.096,88.688 39.313 C 89.018 39.847,82.449 42.798,79.290 43.535 L 76.749 44.127 76.992 46.650 C 77.311 49.975,77.201 49.930,81.917 48.639 C 87.429 47.129,94.908 43.294,107.451 35.547 C 141.421 14.566,160.135 12.349,177.778 27.215 C 179.380 28.565,178.469 28.077,174.420 25.417 C 169.204 21.990,160.836 18.734,157.572 18.861 C 157.038 18.882,158.411 19.344,160.624 19.888 C 165.779 21.156,170.634 23.368,175.422 26.631 L 179.226 29.223 181.378 27.381 C 184.023 25.117,184.042 24.636,181.569 22.666 C 174.829 17.301,164.517 11.953,161.095 12.050 C 160.636 12.062,161.908 12.612,163.922 13.270 C 167.652 14.491,173.016 17.046,174.902 18.500 C 175.477 18.943,173.595 18.135,170.719 16.704 C 158.557 10.653,143.630 10.482,130.196 16.241 C 128.577 16.936,128.165 17.002,128.876 16.455 C 132.530 13.643,144.367 11.298,153.408 11.595 C 157.177 11.719,159.556 11.659,158.693 11.462 C 152.919 10.144,141.542 11.242,133.839 13.862 C 131.735 14.578,129.995 15.163,129.974 15.163 C 129.952 15.163,129.865 14.087,129.780 12.772 C 129.607 10.084,127.338 4.472,126.607 4.923 C 126.346 5.085,125.811 4.808,125.419 4.308 C 124.774 3.485,124.793 3.467,125.621 4.116 C 126.158 4.538,126.536 4.606,126.536 4.282 C 126.536 0.845,113.213 -1.796,111.099 1.222 M123.256 1.569 C 123.987 2.144,124.414 2.614,124.205 2.614 C 123.996 2.614,123.227 2.144,122.496 1.569 C 121.764 0.993,121.337 0.523,121.546 0.523 C 121.755 0.523,122.525 0.993,123.256 1.569 M17.692 2.572 C 13.747 3.834,11.370 5.344,7.451 9.078 C 4.536 11.855,3.149 13.773,4.787 12.761 C 5.164 12.528,5.248 12.617,5.012 13.000 C 4.804 13.336,4.410 13.474,4.137 13.305 C 3.863 13.136,2.884 14.603,1.959 16.564 C -1.297 23.473,0.146 36.759,4.538 40.323 C 5.309 40.948,5.368 40.939,4.978 40.261 C 4.696 39.771,4.952 39.851,5.662 40.473 C 6.930 41.586,7.243 42.328,6.013 41.307 C 4.464 40.022,5.265 41.668,6.920 43.170 C 8.259 44.386,8.395 44.438,7.574 43.420 C 7.003 42.713,7.830 43.204,9.412 44.512 C 14.257 48.519,23.417 53.856,25.449 53.856 C 25.610 53.856,25.615 52.503,25.460 50.850 L 25.179 47.843 25.792 50.719 C 26.542 54.238,29.598 60.843,30.281 60.421 C 30.554 60.252,30.948 60.389,31.156 60.726 C 31.392 61.108,31.307 61.198,30.930 60.965 C 29.360 59.994,30.618 61.823,33.202 64.267 C 35.785 66.710,40.510 69.468,41.101 68.877 C 41.227 68.751,40.285 68.248,39.007 67.760 C 37.729 67.272,36.371 66.491,35.989 66.025 C 35.365 65.263,35.430 65.265,36.629 66.045 C 38.774 67.440,43.535 68.895,47.263 69.294 L 50.719 69.664 50.771 68.165 L 50.823 66.667 51.287 67.974 C 51.654 69.010,51.699 68.848,51.502 67.190 C 51.365 66.039,51.251 64.837,51.248 64.518 C 51.244 64.198,49.912 63.800,48.279 63.631 C 45.057 63.299,39.511 60.856,37.876 59.049 C 37.277 58.387,37.992 58.694,39.653 59.812 C 42.780 61.916,46.851 63.299,49.637 63.204 C 51.075 63.155,50.817 63.040,48.511 62.702 C 44.643 62.135,40.762 60.449,38.936 58.543 C 38.139 57.711,37.304 57.144,37.080 57.282 C 36.857 57.420,36.503 57.258,36.295 56.921 C 36.071 56.558,36.143 56.449,36.471 56.651 C 36.838 56.879,36.956 56.247,36.822 54.771 C 36.673 53.142,36.729 52.898,37.032 53.856 L 37.446 55.163 44.213 55.081 C 51.065 54.999,59.172 53.960,64.183 52.523 L 66.928 51.735 66.928 49.075 C 66.928 46.565,66.862 46.433,65.752 46.750 C 57.623 49.069,49.863 50.196,42.033 50.196 L 36.718 50.196 36.312 52.157 C 36.067 53.345,35.822 53.755,35.692 53.196 C 35.573 52.689,35.275 52.399,35.029 52.551 C 34.783 52.703,34.412 52.552,34.204 52.215 C 33.996 51.879,34.038 51.735,34.298 51.895 C 34.571 52.064,34.771 49.429,34.771 45.684 C 34.771 41.013,34.650 39.737,34.339 41.158 C 34.102 42.247,34.007 45.018,34.130 47.317 C 34.252 49.616,34.168 51.028,33.945 50.455 C 33.316 48.845,33.488 42.389,34.236 39.477 C 34.606 38.039,34.957 37.333,35.016 37.908 C 35.097 38.703,35.233 38.584,35.583 37.412 C 35.837 36.564,35.934 35.760,35.800 35.625 C 35.665 35.491,35.552 35.715,35.548 36.122 C 35.541 36.758,35.473 36.758,35.068 36.118 C 34.674 35.496,34.071 35.610,31.384 36.815 C 29.617 37.608,27.860 38.138,27.479 37.992 C 26.779 37.723,25.414 38.475,22.976 40.472 C 22.240 41.075,22.506 40.745,23.567 39.739 C 28.993 34.591,45.266 29.034,48.699 31.156 C 49.127 31.420,49.225 31.191,49.020 30.408 C 48.858 29.787,48.932 29.408,49.185 29.564 C 50.077 30.115,50.959 35.205,51.945 45.490 C 52.072 46.820,52.140 46.606,52.194 44.706 C 52.258 42.448,51.291 34.374,50.472 30.327 C 50.326 29.608,50.538 30.002,50.941 31.203 C 51.777 33.686,52.807 41.374,52.809 45.140 C 52.811 47.964,52.253 47.775,57.559 46.746 L 59.170 46.434 58.906 41.910 L 58.641 37.386 59.359 42.092 L 60.077 46.797 59.825 42.614 C 59.686 40.314,59.334 37.074,59.043 35.415 C 58.751 33.756,58.655 32.168,58.830 31.886 C 59.004 31.603,58.858 31.373,58.506 31.373 C 58.153 31.373,58.010 31.228,58.186 31.051 C 58.794 30.444,63.041 32.926,65.114 35.101 C 66.255 36.298,66.895 37.112,66.536 36.909 C 65.664 36.416,65.694 36.577,67.039 39.541 C 67.973 41.600,68.258 43.451,68.517 49.150 L 68.838 56.209 68.929 50.193 C 68.979 46.884,68.788 43.370,68.506 42.385 C 68.099 40.965,68.126 40.727,68.637 41.239 C 69.095 41.698,69.281 44.368,69.281 50.485 L 69.281 59.085 71.765 59.085 C 73.981 59.085,74.252 58.958,74.285 57.908 C 74.320 56.792,74.343 56.785,74.744 57.778 C 75.073 58.593,75.245 58.246,75.524 56.209 C 75.721 54.771,76.080 52.569,76.322 51.314 C 76.700 49.350,76.119 41.963,75.541 41.381 C 75.439 41.278,75.474 43.278,75.619 45.825 C 75.765 48.373,75.671 51.869,75.411 53.595 C 74.996 56.356,74.944 55.948,74.986 50.196 C 75.012 46.601,74.867 42.601,74.664 41.307 C 74.428 39.803,74.462 39.332,74.758 40.000 C 75.069 40.703,75.233 40.789,75.257 40.261 C 75.438 36.363,64.419 24.296,62.464 26.251 C 62.365 26.349,63.527 27.081,65.047 27.877 C 66.566 28.672,68.611 30.186,69.591 31.241 L 71.373 33.159 69.074 31.153 C 64.883 27.494,56.566 24.395,57.244 26.744 C 57.440 27.421,57.713 28.381,57.851 28.878 C 57.990 29.376,57.838 30.199,57.515 30.708 C 57.025 31.481,56.980 31.389,57.243 30.152 C 57.454 29.159,57.372 28.786,56.993 29.020 C 56.614 29.254,56.535 28.883,56.753 27.887 C 56.974 26.879,56.919 26.630,56.582 27.109 C 56.205 27.644,55.948 27.419,55.515 26.176 C 55.184 25.229,55.155 24.670,55.446 24.850 C 55.722 25.020,55.966 25.558,55.989 26.044 C 56.012 26.530,56.143 26.652,56.281 26.314 C 56.621 25.480,54.458 21.327,53.872 21.689 C 53.616 21.848,53.235 21.702,53.027 21.366 C 52.777 20.961,52.877 20.894,53.320 21.168 C 53.768 21.445,53.911 21.341,53.750 20.857 C 53.617 20.458,53.253 20.131,52.941 20.131 C 52.630 20.131,52.179 19.917,51.939 19.655 C 51.686 19.378,51.777 19.336,52.157 19.555 C 52.516 19.762,52.804 19.741,52.795 19.508 C 52.775 18.959,49.800 15.686,49.321 15.686 C 49.120 15.686,49.645 16.451,50.489 17.386 L 52.024 19.085 50.195 17.427 L 48.366 15.770 46.582 17.275 C 45.600 18.103,44.617 18.668,44.396 18.532 C 44.175 18.395,43.863 18.495,43.703 18.754 C 43.333 19.352,45.432 22.059,45.996 21.710 C 46.228 21.567,46.738 21.859,47.130 22.359 C 47.775 23.182,47.756 23.200,46.928 22.550 C 46.383 22.123,46.013 22.058,46.013 22.389 C 46.013 22.695,46.248 23.090,46.536 23.268 C 47.775 24.033,46.805 24.441,43.007 24.750 C 40.778 24.932,38.248 25.318,37.386 25.609 C 35.956 26.090,36.002 26.108,37.908 25.819 C 39.059 25.645,41.974 25.343,44.387 25.150 L 48.774 24.797 49.516 26.573 C 49.924 27.549,50.149 28.456,50.017 28.588 C 49.885 28.720,49.495 27.973,49.150 26.928 C 48.805 25.883,48.402 25.149,48.253 25.298 C 48.105 25.446,48.234 26.285,48.540 27.163 C 48.846 28.040,48.978 28.758,48.834 28.758 C 48.691 28.758,48.316 28.020,48.001 27.117 L 47.429 25.476 43.192 25.782 C 34.433 26.414,24.143 30.594,18.094 35.978 L 14.902 38.819 18.062 35.733 C 21.442 32.433,27.386 29.018,32.543 27.413 C 34.193 26.900,35.443 26.380,35.322 26.258 C 34.621 25.558,25.133 29.700,21.176 32.434 C 16.208 35.866,13.349 39.477,15.599 39.477 C 15.935 39.477,17.018 40.122,18.007 40.911 C 19.165 41.836,20.125 42.222,20.707 41.999 C 21.392 41.736,21.500 41.831,21.156 42.395 C 20.906 42.803,21.842 42.137,23.235 40.915 C 25.814 38.652,27.002 38.109,26.498 39.424 C 26.344 39.826,26.053 41.826,25.852 43.868 C 25.650 45.911,25.256 47.582,24.976 47.582 C 23.496 47.582,16.839 43.393,13.989 40.667 L 10.719 37.540 13.779 40.218 C 15.461 41.691,17.344 43.140,17.962 43.438 C 18.579 43.736,18.379 43.452,17.516 42.806 C 16.654 42.161,14.895 40.560,13.609 39.248 C 12.323 37.936,11.107 36.863,10.908 36.863 C 10.708 36.863,10.349 36.649,10.109 36.387 C 9.856 36.110,9.947 36.068,10.327 36.287 C 11.236 36.810,11.151 36.371,9.856 33.835 C 9.170 32.494,8.572 30.001,8.325 27.451 L 7.919 23.268 8.063 27.709 C 8.145 30.211,8.030 31.695,7.801 31.108 C 7.296 29.814,7.215 24.237,7.677 22.512 C 7.994 21.327,8.048 21.308,8.417 22.250 C 8.773 23.160,8.819 23.169,8.852 22.332 C 8.872 21.817,9.359 20.474,9.935 19.346 C 11.151 16.962,11.225 16.530,10.327 17.046 C 9.947 17.265,9.856 17.223,10.109 16.947 C 10.349 16.685,10.709 16.471,10.911 16.471 C 11.112 16.471,12.126 15.622,13.163 14.584 C 16.499 11.248,19.385 10.196,25.200 10.196 C 28.454 10.196,29.858 10.041,29.121 9.763 C 25.075 8.235,17.677 10.141,13.032 13.907 L 10.719 15.782 12.973 13.674 C 18.227 8.760,26.795 7.453,32.874 10.637 L 35.683 12.108 37.343 10.499 C 38.257 9.613,39.170 8.889,39.373 8.889 C 39.576 8.889,38.816 9.725,37.684 10.748 L 35.627 12.607 33.520 11.532 C 32.362 10.941,31.228 10.468,31.001 10.482 C 30.774 10.495,31.713 11.092,33.088 11.807 L 35.587 13.108 38.186 10.917 C 41.172 8.399,41.176 8.385,39.608 6.945 C 34.638 2.382,24.570 0.372,17.692 2.572 M30.165 2.826 C 33.570 3.733,38.480 6.194,39.641 7.577 C 40.496 8.596,40.491 8.602,39.477 7.772 C 30.521 0.446,17.221 1.118,8.112 9.358 L 5.490 11.730 7.582 9.497 C 13.380 3.309,22.195 0.705,30.165 2.826 M59.085 3.368 C 55.513 4.120,50.479 5.884,49.150 6.849 C 48.261 7.495,48.641 7.378,53.072 5.636 C 59.343 3.171,68.619 2.478,76.127 3.914 C 80.771 4.803,81.990 4.607,77.814 3.643 C 73.640 2.680,63.091 2.525,59.085 3.368 M61.176 3.990 C 51.271 5.901,44.429 9.471,36.863 16.672 L 32.681 20.654 36.340 16.801 C 38.353 14.682,41.762 11.782,43.916 10.358 C 48.164 7.548,49.103 6.799,47.059 7.852 C 43.745 9.558,39.356 12.959,35.790 16.583 C 32.251 20.180,30.860 22.122,32.549 21.107 C 32.993 20.840,32.973 20.998,32.485 21.599 C 31.649 22.630,31.131 22.783,31.703 21.830 C 31.970 21.386,31.813 21.406,31.211 21.894 C 30.190 22.722,30.006 23.776,30.980 23.215 C 31.360 22.996,31.451 23.038,31.198 23.315 C 30.959 23.577,30.508 23.791,30.196 23.791 C 29.885 23.791,29.545 24.046,29.441 24.357 C 28.877 26.048,36.823 23.961,39.215 21.790 L 41.044 20.131 39.476 21.899 C 38.614 22.871,38.148 23.577,38.441 23.468 C 38.735 23.358,40.146 21.974,41.578 20.392 C 43.010 18.810,43.695 17.869,43.099 18.301 C 42.504 18.732,42.913 18.232,44.008 17.190 C 54.624 7.088,80.523 7.116,92.026 17.241 L 93.333 18.391 91.765 17.366 C 84.298 12.485,77.476 10.378,68.497 10.182 L 61.438 10.027 68.497 10.448 C 77.790 11.003,85.990 13.687,91.861 18.096 C 93.613 19.413,94.397 19.698,93.856 18.824 C 93.330 17.972,93.930 18.228,94.707 19.185 C 95.326 19.949,95.317 20.006,94.641 19.602 C 94.209 19.345,96.061 21.241,98.755 23.815 C 104.998 29.781,104.594 29.597,107.479 27.801 C 109.340 26.643,109.702 26.217,109.041 25.963 C 108.543 25.772,108.314 25.848,108.497 26.144 C 108.680 26.440,108.417 26.527,107.870 26.350 C 107.068 26.090,107.045 26.135,107.712 26.652 C 108.349 27.144,108.250 27.196,107.190 26.928 C 106.142 26.664,106.038 26.715,106.667 27.190 C 107.299 27.667,107.198 27.725,106.144 27.490 C 105.425 27.330,105.132 27.335,105.493 27.500 C 106.212 27.830,105.875 28.758,105.036 28.758 C 104.749 28.758,104.657 28.526,104.833 28.241 C 105.009 27.957,104.835 27.846,104.447 27.995 C 104.058 28.144,103.164 27.612,102.459 26.813 L 101.176 25.359 102.543 26.560 L 103.910 27.761 105.799 26.647 C 106.838 26.034,108.093 25.473,108.587 25.400 C 114.252 24.569,91.521 6.854,82.353 4.955 C 81.490 4.777,82.667 5.416,84.967 6.377 C 89.570 8.298,95.976 11.749,96.493 12.585 C 96.674 12.878,95.657 12.401,94.233 11.525 C 84.628 5.615,70.016 2.284,61.176 3.990 M109.150 4.922 C 107.784 5.289,106.141 6.038,105.499 6.586 C 104.353 7.564,104.346 7.564,105.107 6.587 C 106.067 5.353,108.589 4.219,110.327 4.239 C 111.139 4.248,110.693 4.507,109.150 4.922 M123.591 8.096 C 128.073 10.247,128.933 16.272,125.200 19.370 C 124.533 19.924,124.588 19.660,125.425 18.286 C 129.964 10.840,120.937 5.463,110.065 9.137 L 109.020 9.491 110.065 8.821 C 113.345 6.721,119.985 6.365,123.591 8.096 M104.184 9.132 C 104.048 9.841,104.189 11.143,104.497 12.026 C 104.804 12.908,104.839 13.497,104.574 13.333 C 103.937 12.939,103.334 9.631,103.717 8.631 C 104.186 7.410,104.457 7.701,104.184 9.132 M129.284 12.352 C 129.433 13.537,129.385 14.783,129.177 15.120 C 128.969 15.457,128.757 14.604,128.705 13.226 C 128.654 11.847,128.487 10.248,128.333 9.673 C 128.121 8.875,128.168 8.813,128.533 9.412 C 128.796 9.843,129.134 11.166,129.284 12.352 M54.595 11.944 C 49.897 13.579,43.744 17.067,44.214 17.828 C 44.508 18.304,47.227 16.683,47.863 15.653 C 48.036 15.375,48.432 15.304,48.744 15.497 C 49.063 15.694,49.163 15.607,48.972 15.299 C 48.581 14.666,54.102 12.326,58.514 11.254 C 60.122 10.864,60.850 10.528,60.131 10.508 C 59.412 10.488,56.921 11.134,54.595 11.944 M219.346 12.287 C 219.634 12.385,222.575 12.560,225.882 12.678 C 229.190 12.795,231.190 12.724,230.327 12.520 C 228.793 12.158,218.314 11.935,219.346 12.287 M213.940 13.168 C 212.692 13.447,211.771 13.775,211.894 13.898 C 212.016 14.020,213.626 13.791,215.470 13.387 C 217.314 12.984,218.235 12.656,217.516 12.658 C 216.797 12.659,215.188 12.889,213.940 13.168 M103.619 18.402 C 105.494 20.216,105.829 20.638,104.364 19.340 C 102.898 18.043,100.641 16.077,99.346 14.972 C 98.052 13.866,97.717 13.444,98.602 14.033 C 99.486 14.623,101.744 16.589,103.619 18.402 M215.930 13.851 C 207.383 15.556,200.361 18.778,184.052 28.476 C 170.540 36.511,168.594 37.571,163.137 39.862 C 156.538 42.632,155.632 42.794,158.417 40.707 C 159.703 39.743,160.785 39.072,160.820 39.216 C 160.856 39.359,161.274 39.154,161.750 38.760 C 162.725 37.950,162.940 36.861,162.011 37.436 C 161.634 37.669,161.549 37.579,161.785 37.196 C 161.994 36.860,162.355 36.703,162.590 36.848 C 162.824 36.992,163.312 36.396,163.674 35.522 C 164.642 33.184,163.613 30.209,161.201 28.373 C 160.157 27.578,158.366 25.930,157.221 24.709 C 155.415 22.784,151.892 21.006,151.218 21.679 C 151.101 21.796,151.933 22.142,153.067 22.447 C 154.200 22.752,155.577 23.514,156.126 24.139 C 157.069 25.213,157.031 25.208,155.437 24.052 C 153.715 22.803,150.033 22.464,147.301 23.304 C 146.665 23.499,146.318 23.476,146.530 23.252 C 146.743 23.027,147.802 22.672,148.883 22.462 C 150.722 22.106,150.747 22.077,149.267 22.021 C 147.342 21.948,145.176 23.343,145.580 24.395 C 145.742 24.818,145.642 25.011,145.353 24.833 C 144.153 24.091,144.966 26.937,146.430 28.605 C 147.744 30.102,147.910 30.558,147.375 31.203 C 147.017 31.634,146.565 32.966,146.369 34.163 C 146.036 36.202,146.009 36.230,145.948 34.606 C 145.912 33.653,146.131 32.358,146.434 31.730 C 146.967 30.627,146.958 30.623,146.173 31.603 C 144.435 33.772,145.510 37.965,148.131 39.247 C 149.138 39.739,149.119 39.672,147.974 38.708 L 146.667 37.608 148.889 38.726 C 151.452 40.016,151.526 40.224,149.935 41.674 C 144.813 46.338,132.108 43.598,120.624 35.352 L 116.542 32.421 114.349 33.596 C 113.143 34.242,112.056 34.833,111.934 34.907 C 111.207 35.351,117.746 40.724,122.614 43.683 C 125.323 45.329,123.308 43.677,119.170 40.859 C 116.988 39.373,114.635 37.521,113.941 36.745 C 112.884 35.562,112.998 35.602,114.641 36.997 C 133.334 52.862,151.235 53.510,176.209 39.227 C 177.791 38.322,178.497 38.062,177.778 38.650 C 175.653 40.385,163.199 46.416,158.922 47.781 C 147.756 51.344,137.907 50.799,127.775 46.058 C 125.943 45.201,124.444 44.617,124.444 44.761 C 124.444 44.905,125.943 45.724,127.775 46.581 C 140.843 52.696,153.387 51.899,169.136 43.952 C 174.452 41.270,189.378 32.421,190.588 31.234 C 191.301 30.536,189.086 31.705,185.899 33.709 C 181.119 36.716,179.346 37.735,179.346 37.479 C 179.346 37.262,187.422 32.186,191.373 29.920 C 192.598 29.218,192.616 29.223,191.665 30.010 C 189.882 31.485,191.062 30.934,197.576 27.251 C 201.077 25.271,205.934 22.877,208.370 21.929 C 210.806 20.981,212.706 20.114,212.593 20.000 C 212.009 19.416,202.249 23.941,195.163 28.082 C 193.941 28.796,192.941 29.254,192.941 29.099 C 192.941 28.509,203.478 22.885,208.167 20.972 C 220.998 15.739,233.395 15.451,243.291 20.159 C 246.214 21.550,245.847 21.470,240.430 19.537 C 238.510 18.852,235.804 18.174,234.417 18.031 C 232.193 17.802,232.296 17.863,235.294 18.549 C 239.667 19.548,244.706 21.426,244.706 22.055 C 244.706 22.325,244.978 22.377,245.310 22.172 C 245.687 21.939,245.771 22.029,245.535 22.411 C 245.327 22.748,244.965 22.905,244.730 22.760 C 242.592 21.438,242.859 29.695,245.029 31.960 C 246.518 33.514,250.190 34.025,250.200 32.680 C 250.202 32.392,250.614 31.575,251.115 30.864 C 251.783 29.916,252.026 29.800,252.026 30.429 C 252.026 30.901,252.175 31.718,252.358 32.245 C 252.652 33.093,252.589 33.083,251.812 32.157 C 251.157 31.377,251.209 31.677,252.017 33.341 L 253.101 35.570 251.910 36.010 C 251.255 36.252,249.002 36.865,246.903 37.372 C 244.805 37.880,243.195 38.402,243.327 38.534 C 243.458 38.665,245.858 38.163,248.659 37.417 C 251.460 36.671,253.845 36.154,253.958 36.268 C 254.216 36.526,247.439 38.365,240.092 40.031 C 221.582 44.227,206.080 42.235,194.936 34.229 C 192.468 32.456,190.327 31.872,190.327 32.972 C 190.327 33.277,190.621 33.354,190.980 33.144 C 191.340 32.933,191.186 33.272,190.638 33.897 C 189.449 35.252,188.851 35.422,189.862 34.118 C 190.438 33.373,190.353 33.388,189.403 34.199 C 188.078 35.329,187.861 36.601,188.995 36.601 C 189.412 36.601,191.282 37.670,193.151 38.976 C 210.457 51.074,227.453 50.545,269.310 36.608 C 297.338 27.276,316.131 23.212,321.069 25.415 C 321.913 25.792,321.212 25.895,318.358 25.816 L 314.510 25.708 318.431 26.115 C 320.588 26.340,322.503 26.440,322.686 26.339 C 322.869 26.238,323.340 26.551,323.732 27.034 C 324.264 27.690,324.273 27.810,323.770 27.508 C 323.267 27.205,323.175 27.418,323.408 28.348 C 323.661 29.355,323.207 30.108,321.042 32.273 C 316.415 36.899,318.661 41.866,323.966 38.736 L 325.753 37.681 324.952 38.904 C 324.273 39.940,323.777 40.105,321.684 39.987 L 319.216 39.848 321.046 40.509 C 322.052 40.872,323.010 41.095,323.173 41.005 C 323.337 40.914,323.350 41.592,323.202 42.511 L 322.933 44.183 322.574 42.614 L 322.215 41.046 322.153 42.654 C 322.046 45.453,326.769 48.521,330.197 47.877 C 332.595 47.428,335.163 44.335,335.163 41.899 C 335.163 41.147,335.567 40.807,336.601 40.688 C 337.457 40.590,338.039 40.205,338.039 39.739 C 338.039 39.307,338.392 38.954,338.824 38.954 C 339.346 38.954,339.608 38.431,339.608 37.386 C 339.608 36.360,339.368 35.867,338.915 35.961 C 338.527 36.041,338.379 35.852,338.578 35.530 C 339.441 34.133,332.916 29.281,330.174 29.281 C 328.993 29.281,328.354 28.948,327.920 28.105 C 327.325 26.949,327.321 26.951,327.644 28.235 C 328.014 29.705,327.753 29.578,326.855 27.853 L 326.248 26.686 331.098 26.949 C 341.004 27.487,352.946 30.017,365.452 34.227 C 369.313 35.527,372.564 36.500,372.674 36.389 C 372.963 36.100,357.654 31.093,352.680 29.849 C 346.689 28.351,339.582 27.166,331.765 26.364 L 324.967 25.666 330.481 25.914 C 341.931 26.431,352.636 28.825,369.935 34.737 C 386.246 40.312,392.301 40.937,396.675 37.496 C 397.470 36.871,397.941 36.649,397.722 37.003 C 397.503 37.357,397.568 37.647,397.866 37.647 C 400.246 37.647,400.813 29.733,398.585 27.599 C 395.941 25.066,386.405 23.108,386.405 25.098 C 386.405 25.386,387.304 25.621,388.404 25.621 C 391.235 25.621,394.947 27.007,396.404 28.608 C 397.088 29.358,397.344 29.797,396.973 29.583 C 396.462 29.288,396.383 29.532,396.648 30.586 C 396.904 31.610,396.672 32.420,395.773 33.637 L 394.550 35.294 396.098 34.314 C 397.510 33.422,397.568 33.418,396.756 34.272 C 396.053 35.011,394.782 35.257,390.743 35.439 C 387.926 35.566,385.503 35.786,385.359 35.928 C 385.216 36.070,387.135 36.103,389.624 36.002 C 392.113 35.900,393.878 35.990,393.545 36.201 C 390.765 37.969,384.538 36.555,369.060 30.642 C 334.896 17.591,312.177 17.651,271.477 30.901 C 266.214 32.615,261.685 33.878,261.412 33.709 C 261.139 33.541,260.915 33.652,260.915 33.956 C 260.915 34.261,260.651 34.510,260.328 34.510 C 259.921 34.510,259.939 34.272,260.387 33.731 C 260.743 33.303,261.220 33.068,261.449 33.209 C 261.677 33.351,262.415 33.245,263.089 32.975 C 264.233 32.517,263.588 32.156,261.925 32.325 C 261.762 32.341,261.726 31.690,261.845 30.878 C 261.964 30.066,261.791 28.845,261.460 28.165 C 260.887 26.989,260.897 26.978,261.671 27.943 C 262.118 28.501,262.516 29.678,262.555 30.557 C 262.613 31.869,262.668 31.936,262.859 30.931 C 263.156 29.371,262.188 27.017,260.746 25.789 C 259.648 24.855,259.641 24.857,260.385 25.882 C 260.951 26.662,260.783 26.605,259.723 25.660 C 258.010 24.134,258.021 24.225,259.477 23.519 C 260.561 22.994,260.579 23.009,259.707 23.712 C 259.187 24.131,258.959 24.597,259.201 24.747 C 259.444 24.897,260.201 24.202,260.885 23.204 L 262.129 21.389 261.097 20.008 C 258.301 16.262,251.225 14.728,248.356 17.246 L 247.059 18.384 248.352 17.558 C 251.026 15.849,257.984 16.783,259.869 19.104 C 260.414 19.775,260.129 19.685,258.932 18.809 C 256.366 16.930,250.480 16.655,248.242 18.310 C 247.365 18.958,246.813 19.221,247.015 18.894 C 247.228 18.550,247.046 18.301,246.582 18.301 C 246.143 18.301,244.379 17.587,242.663 16.715 C 239.182 14.946,234.004 13.059,232.729 13.095 C 232.270 13.108,233.542 13.655,235.556 14.310 C 239.215 15.500,246.421 18.852,246.072 19.201 C 245.970 19.302,244.268 18.583,242.290 17.602 C 233.749 13.367,224.767 12.089,215.930 13.851 M208.366 14.883 C 206.347 15.808,207.286 15.821,209.673 14.902 C 210.680 14.514,211.150 14.190,210.719 14.181 C 210.288 14.172,209.229 14.488,208.366 14.883 M2.556 17.527 C 1.981 18.826,1.295 20.885,1.031 22.102 L 0.552 24.314 0.738 22.174 C 0.913 20.161,2.768 15.163,3.340 15.163 C 3.484 15.163,3.131 16.227,2.556 17.527 M200.477 18.222 C 196.332 20.249,173.760 33.282,170.458 35.554 C 167.690 37.458,175.009 33.370,184.314 27.815 C 190.353 24.210,197.882 20.008,201.046 18.478 C 204.209 16.948,206.541 15.694,206.228 15.691 C 205.915 15.688,203.327 16.827,200.477 18.222 M224.983 17.640 C 226.358 17.748,228.475 17.747,229.689 17.637 C 230.903 17.527,229.778 17.439,227.190 17.440 C 224.601 17.442,223.608 17.532,224.983 17.640 M218.039 18.326 C 217.158 18.626,217.583 18.672,219.346 18.469 C 220.784 18.303,222.059 18.079,222.179 17.972 C 222.590 17.605,219.346 17.882,218.039 18.326 M144.052 18.908 C 140.617 19.552,134.379 21.402,134.379 21.777 C 134.379 21.940,134.778 21.919,135.266 21.732 C 138.672 20.425,145.495 19.131,150.588 18.825 L 156.601 18.464 151.634 18.441 C 148.902 18.428,145.490 18.638,144.052 18.908 M214.118 19.346 C 213.458 19.630,213.362 19.796,213.856 19.796 C 214.288 19.796,215.111 19.594,215.686 19.346 C 216.345 19.063,216.442 18.897,215.948 18.897 C 215.516 18.897,214.693 19.099,214.118 19.346 M181.086 22.843 C 181.899 23.508,182.438 24.052,182.284 24.052 C 181.908 24.052,176.209 19.779,176.209 19.497 C 176.209 19.228,179.049 21.177,181.086 22.843 M97.778 21.699 C 98.753 22.706,99.434 23.529,99.290 23.529 C 99.146 23.529,98.230 22.706,97.255 21.699 C 96.279 20.693,95.599 19.869,95.743 19.869 C 95.886 19.869,96.802 20.693,97.778 21.699 M315.425 20.257 C 317.366 20.358,320.542 20.358,322.484 20.257 C 324.425 20.156,322.837 20.074,318.954 20.074 C 315.072 20.074,313.484 20.156,315.425 20.257 M303.007 21.238 C 293.607 22.927,261.952 32.174,264.865 32.379 C 265.168 32.401,267.873 31.584,270.878 30.565 C 284.399 25.977,298.102 22.414,306.928 21.189 C 310.090 20.750,311.040 20.497,309.542 20.493 C 308.248 20.489,305.307 20.824,303.007 21.238 M327.712 20.770 C 328.647 20.886,330.176 20.886,331.111 20.770 C 332.046 20.654,331.281 20.560,329.412 20.560 C 327.542 20.560,326.778 20.654,327.712 20.770 M336.456 21.514 C 343.913 22.470,353.435 24.713,361.564 27.429 C 370.580 30.442,373.129 30.964,365.703 28.277 C 355.170 24.466,339.662 20.812,334.736 20.981 C 333.494 21.024,334.105 21.213,336.456 21.514 M126.607 25.084 C 123.117 26.802,120.261 28.333,120.261 28.487 C 120.261 28.641,122.791 27.516,125.882 25.987 C 128.974 24.458,132.092 22.943,132.810 22.620 C 133.529 22.296,133.856 22.016,133.536 21.996 C 133.215 21.977,130.098 23.366,126.607 25.084 M255.031 25.997 C 256.648 28.060,257.778 29.976,257.778 30.656 C 257.778 30.875,257.109 29.999,256.291 28.710 C 255.473 27.420,253.767 25.465,252.500 24.364 C 250.496 22.624,250.410 22.472,251.839 23.192 C 252.743 23.648,254.179 24.910,255.031 25.997 M244.444 26.878 C 244.444 28.720,244.272 29.955,244.060 29.623 C 243.428 28.629,243.686 23.529,244.370 23.529 C 244.411 23.529,244.444 25.036,244.444 26.878 M390.588 24.029 C 394.787 24.395,396.292 24.973,398.562 27.090 C 399.353 27.827,400.000 28.248,400.000 28.025 C 400.000 26.109,394.201 23.538,390.065 23.620 L 386.667 23.687 390.588 24.029 M33.309 24.951 C 31.641 25.388,30.380 25.848,30.506 25.974 C 30.740 26.209,37.213 24.652,37.603 24.267 C 37.990 23.886,36.413 24.137,33.309 24.951 M57.778 25.018 C 59.395 25.710,62.105 26.245,61.176 25.688 C 60.745 25.430,59.569 25.072,58.562 24.894 C 57.328 24.675,57.072 24.716,57.778 25.018 M182.484 25.820 C 182.484 25.930,181.601 26.653,180.523 27.427 L 178.562 28.834 180.372 27.227 C 182.156 25.645,182.484 25.426,182.484 25.820 M156.646 30.954 C 158.253 34.022,157.201 37.814,153.920 40.784 C 152.204 42.337,152.106 42.377,153.275 41.046 C 154.032 40.183,155.032 38.724,155.496 37.804 C 157.125 34.573,156.348 30.952,153.275 27.451 C 152.122 26.138,152.225 26.181,153.902 27.712 C 155.004 28.719,156.239 30.178,156.646 30.954 M307.451 26.496 C 303.630 27.107,295.424 28.932,295.619 29.126 C 295.743 29.250,298.161 28.857,300.994 28.253 C 303.826 27.649,308.026 26.959,310.327 26.719 C 313.868 26.350,314.068 26.283,311.634 26.285 C 310.052 26.285,308.170 26.380,307.451 26.496 M390.831 26.985 C 392.546 27.400,394.546 28.127,395.276 28.601 C 396.513 29.406,396.553 29.405,395.885 28.590 C 395.118 27.653,390.578 26.115,388.794 26.187 C 388.199 26.211,389.116 26.570,390.831 26.985 M149.273 30.770 C 149.134 30.910,148.961 30.925,148.889 30.803 C 148.817 30.682,148.053 29.761,147.191 28.756 L 145.623 26.928 147.575 28.722 C 148.648 29.709,149.413 30.631,149.273 30.770 M161.066 28.796 L 162.876 30.402 160.784 28.948 C 159.634 28.148,158.595 27.425,158.475 27.341 C 158.355 27.258,158.482 27.190,158.756 27.190 C 159.031 27.190,160.070 27.912,161.066 28.796 M2.316 34.771 C 2.517 35.346,2.320 35.198,1.880 34.442 C 1.439 33.686,0.954 32.039,0.801 30.782 L 0.524 28.497 1.237 31.111 C 1.629 32.549,2.115 34.196,2.316 34.771 M111.608 33.545 C 92.575 45.201,88.258 47.455,81.493 49.265 C 79.231 49.871,77.480 50.465,77.601 50.586 C 78.961 51.946,92.914 45.602,104.765 38.237 C 109.039 35.581,112.663 33.534,112.819 33.690 C 112.974 33.846,113.867 33.500,114.802 32.922 L 116.503 31.871 120.605 34.832 C 128.069 40.221,136.842 43.478,143.482 43.326 C 146.543 43.256,146.494 43.237,142.222 42.842 C 134.321 42.111,127.335 39.299,120.035 33.912 C 116.188 31.073,116.230 31.265,119.040 29.443 C 119.568 29.100,119.870 28.806,119.712 28.789 C 119.554 28.772,115.907 30.912,111.608 33.545 M293.072 29.542 C 292.784 29.640,289.666 30.601,286.143 31.678 C 282.619 32.755,279.830 33.730,279.944 33.844 C 280.059 33.958,282.941 33.193,286.351 32.144 C 294.597 29.606,295.298 29.364,294.379 29.364 C 293.948 29.364,293.359 29.444,293.072 29.542 M334.238 31.388 C 335.553 32.259,336.947 33.366,337.334 33.847 C 337.722 34.329,336.880 33.846,335.463 32.773 C 332.907 30.838,332.171 30.533,329.150 30.156 C 327.907 30.001,328.024 29.944,329.714 29.882 C 331.300 29.824,332.459 30.210,334.238 31.388 M324.183 30.913 C 323.464 31.199,322.277 31.948,321.544 32.579 C 320.812 33.210,320.985 32.961,321.929 32.026 C 322.873 31.092,324.060 30.342,324.567 30.360 C 325.221 30.383,325.109 30.545,324.183 30.913 M370.774 30.556 C 371.264 31.047,381.768 34.961,383.386 35.257 C 384.328 35.428,383.216 34.890,380.915 34.060 C 378.614 33.231,375.488 32.051,373.968 31.439 C 371.277 30.357,370.306 30.088,370.774 30.556 M248.366 32.555 L 250.196 32.774 248.316 32.857 C 246.943 32.919,246.168 32.624,245.441 31.765 C 244.452 30.598,244.453 30.595,245.490 31.462 C 246.065 31.943,247.359 32.435,248.366 32.555 M42.876 31.909 C 37.176 32.577,25.548 36.829,27.563 37.508 C 28.323 37.764,34.510 35.067,34.510 34.480 C 34.510 33.954,41.163 32.434,43.763 32.366 C 44.857 32.338,46.340 32.126,47.059 31.895 C 48.738 31.358,47.542 31.361,42.876 31.909 M191.907 31.801 C 192.344 31.997,193.816 32.934,195.178 33.883 C 203.720 39.842,216.604 42.790,228.235 41.448 C 231.224 41.104,230.216 41.018,222.745 40.985 C 210.406 40.929,202.714 38.771,194.936 33.183 C 193.550 32.187,192.122 31.389,191.763 31.409 C 191.360 31.432,191.415 31.582,191.907 31.801 M58.510 35.773 C 58.589 38.093,58.211 37.190,57.871 34.248 C 57.668 32.485,57.714 32.060,58.014 32.941 C 58.258 33.660,58.481 34.935,58.510 35.773 M60.433 32.637 C 61.318 33.022,62.965 34.131,64.093 35.100 C 65.221 36.070,65.791 36.412,65.359 35.861 C 64.190 34.366,60.616 31.893,59.660 31.916 C 59.200 31.927,59.548 32.252,60.433 32.637 M163.132 35.410 C 162.567 36.290,162.551 36.289,162.836 35.382 C 163.002 34.855,163.169 33.914,163.208 33.291 C 163.280 32.158,163.280 32.158,163.504 33.318 C 163.628 33.957,163.460 34.898,163.132 35.410 M276.340 34.752 C 274.320 35.677,275.260 35.691,277.647 34.771 C 278.654 34.384,279.124 34.059,278.693 34.050 C 278.261 34.041,277.203 34.357,276.340 34.752 M329.549 40.365 C 329.012 42.041,328.994 42.007,328.935 39.216 C 328.902 37.634,328.762 35.752,328.624 35.033 C 328.486 34.314,328.762 34.831,329.237 36.182 C 329.914 38.107,329.982 39.012,329.549 40.365 M319.509 36.732 C 319.300 38.546,319.218 38.682,319.064 37.472 C 318.895 36.136,319.192 34.510,319.605 34.510 C 319.694 34.510,319.651 35.510,319.509 36.732 M74.211 38.431 C 74.211 38.719,73.875 38.366,73.464 37.647 C 73.053 36.928,72.717 36.105,72.717 35.817 C 72.717 35.529,73.053 35.882,73.464 36.601 C 73.875 37.320,74.211 38.144,74.211 38.431 M264.837 38.693 C 260.810 40.085,257.761 41.243,258.061 41.266 C 258.707 41.315,272.448 36.746,272.843 36.351 C 273.386 35.808,272.030 36.205,264.837 38.693 M373.899 37.117 C 375.161 37.855,383.759 40.265,385.026 40.236 C 385.641 40.222,384.026 39.656,381.438 38.980 C 378.850 38.303,376.070 37.491,375.260 37.175 C 373.483 36.482,372.761 36.451,373.899 37.117 M191.902 39.225 C 203.306 47.576,224.143 51.197,236.728 47.014 L 238.170 46.535 236.601 46.755 C 216.778 49.533,204.595 47.499,193.151 39.499 C 188.951 36.563,187.975 36.349,191.902 39.225 M164.088 38.450 C 163.317 38.869,162.197 39.286,161.598 39.377 C 160.507 39.544,158.830 40.807,159.765 40.759 C 160.508 40.720,166.620 37.741,166.013 37.713 C 165.725 37.700,164.859 38.031,164.088 38.450 M396.610 38.156 C 396.437 38.435,395.363 38.943,394.223 39.285 C 393.083 39.627,392.254 40.010,392.380 40.136 C 392.773 40.529,396.222 39.203,396.885 38.405 C 397.231 37.988,397.381 37.647,397.219 37.647 C 397.057 37.647,396.783 37.876,396.610 38.156 M27.119 41.830 C 26.682 44.398,26.849 49.155,27.503 52.810 L 27.736 54.118 27.149 52.810 C 26.461 51.279,26.235 42.246,26.830 40.069 C 27.485 37.677,27.651 38.694,27.119 41.830 M236.340 39.795 C 233.310 40.459,232.728 40.684,234.510 40.502 C 237.407 40.205,243.484 38.805,241.830 38.815 C 241.255 38.818,238.784 39.260,236.340 39.795 M336.471 39.875 L 338.039 40.105 336.340 40.183 C 334.856 40.252,334.640 40.444,334.633 41.699 C 334.628 42.490,334.399 43.490,334.124 43.922 C 333.784 44.456,333.727 44.039,333.945 42.614 C 334.121 41.464,334.348 40.427,334.449 40.310 C 334.549 40.192,334.339 39.722,333.982 39.264 C 333.432 38.558,333.453 38.524,334.118 39.039 C 334.549 39.373,335.608 39.749,336.471 39.875 M17.516 41.473 C 18.667 42.510,19.802 43.368,20.040 43.379 C 20.278 43.390,19.807 42.864,18.994 42.210 C 16.227 39.984,15.419 39.581,17.516 41.473 M149.799 40.253 C 149.974 40.537,149.341 41.242,148.392 41.820 C 147.443 42.399,146.929 42.873,147.250 42.874 C 148.023 42.876,150.588 40.840,150.588 40.223 C 150.588 39.957,150.339 39.739,150.035 39.739 C 149.730 39.739,149.624 39.970,149.799 40.253 M83.660 41.046 C 82.941 41.457,82.588 41.793,82.876 41.793 C 83.163 41.793,83.987 41.457,84.706 41.046 C 85.425 40.635,85.778 40.298,85.490 40.298 C 85.203 40.298,84.379 40.635,83.660 41.046 M387.582 40.636 C 388.373 40.756,389.667 40.756,390.458 40.636 C 391.248 40.516,390.601 40.418,389.020 40.418 C 387.438 40.418,386.791 40.516,387.582 40.636 M251.503 42.925 C 249.059 43.754,247.851 44.293,248.819 44.122 C 250.954 43.746,257.836 41.379,256.732 41.401 C 256.301 41.410,253.948 42.095,251.503 42.925 M78.954 42.655 L 76.601 43.378 78.693 43.079 C 79.843 42.915,81.137 42.574,81.569 42.321 C 82.656 41.684,81.730 41.803,78.954 42.655 M18.867 44.120 C 19.400 44.606,24.575 47.049,24.575 46.815 C 24.575 46.520,19.582 43.922,19.015 43.922 C 18.814 43.922,18.747 44.011,18.867 44.120 M8.366 44.759 C 8.366 44.980,8.895 45.763,9.542 46.499 C 10.499 47.586,10.523 47.683,9.673 47.017 C 7.966 45.679,6.975 46.371,5.570 49.879 C 1.927 58.980,1.600 66.625,4.510 74.644 C 4.954 75.868,5.530 76.738,5.790 76.577 C 6.050 76.417,6.131 76.628,5.971 77.046 C 5.563 78.110,7.736 82.220,8.467 81.768 C 8.817 81.551,8.904 81.644,8.684 82.000 C 8.229 82.736,9.294 84.840,9.925 84.451 C 10.178 84.294,10.556 84.441,10.764 84.778 C 11.014 85.183,10.914 85.249,10.470 84.975 C 10.020 84.697,9.886 84.799,10.063 85.287 C 10.208 85.686,10.609 85.948,10.954 85.869 C 11.299 85.790,11.436 85.960,11.259 86.247 C 10.857 86.898,12.507 89.499,13.093 89.137 C 13.329 88.991,13.693 89.147,13.901 89.484 C 14.137 89.866,14.053 89.956,13.676 89.723 C 12.733 89.141,12.967 90.245,13.957 91.047 C 14.719 91.666,14.779 91.657,14.390 90.980 C 14.107 90.490,14.364 90.570,15.074 91.192 C 16.342 92.305,16.655 93.047,15.425 92.026 C 14.182 90.995,14.514 92.276,15.776 93.383 C 16.486 94.006,16.742 94.085,16.460 93.595 C 16.071 92.919,16.130 92.909,16.893 93.528 C 17.851 94.305,18.106 94.905,17.255 94.379 C 16.244 93.754,16.745 95.013,17.899 95.997 C 19.055 96.983,19.059 96.983,18.301 95.948 C 17.542 94.913,17.546 94.912,18.702 95.898 C 19.898 96.918,20.282 97.572,19.346 96.993 C 19.030 96.798,18.824 97.521,18.824 98.824 C 18.824 100.126,19.030 100.849,19.346 100.654 C 20.557 99.905,19.748 100.970,18.469 101.808 C 17.412 102.501,15.512 102.799,10.710 103.027 C 5.451 103.275,4.014 103.526,2.405 104.475 C 1.335 105.106,0.621 105.363,0.817 105.044 C 1.783 103.481,5.536 102.506,10.719 102.472 C 14.196 102.448,16.473 102.179,17.516 101.668 C 18.379 101.245,18.614 101.059,18.039 101.255 C 17.464 101.451,14.170 101.756,10.719 101.934 C 2.115 102.377,0.000 103.546,0.000 107.854 C 0.000 110.287,0.076 110.434,1.215 110.217 C 2.397 109.990,2.411 110.034,1.760 111.855 C 0.936 114.160,0.862 117.336,1.597 118.858 C 2.130 119.961,2.122 119.965,1.336 118.985 C 0.421 117.843,0.281 115.084,1.009 112.546 C 1.362 111.316,1.326 110.850,0.879 110.852 C -0.145 110.857,-0.208 117.297,0.797 119.240 C 1.264 120.143,1.780 120.747,1.944 120.583 C 2.108 120.419,3.066 121.008,4.072 121.892 C 5.559 123.198,6.207 123.441,7.526 123.188 C 8.693 122.965,8.929 123.022,8.366 123.391 C 7.025 124.270,5.857 123.982,3.940 122.299 C 2.923 121.406,2.092 120.904,2.092 121.182 C 2.092 122.275,6.209 124.574,7.560 124.235 C 9.692 123.700,12.390 117.734,10.912 116.821 C 10.662 116.666,10.454 117.436,10.450 118.531 C 10.445 119.627,10.188 120.876,9.877 121.307 C 9.408 121.959,9.365 121.930,9.624 121.134 C 9.795 120.607,9.962 118.725,9.995 116.951 C 10.029 115.177,10.172 114.196,10.313 114.771 C 10.950 117.364,12.585 117.787,14.962 115.974 L 16.471 114.824 15.467 115.982 C 14.916 116.619,13.739 117.351,12.853 117.608 C 11.585 117.976,11.488 118.086,12.400 118.123 C 14.818 118.221,18.751 113.362,18.146 111.022 C 17.970 110.338,17.882 110.447,17.838 111.403 C 17.805 112.139,17.412 113.198,16.965 113.756 C 16.191 114.722,16.180 114.712,16.751 113.540 C 17.090 112.843,17.208 111.480,17.022 110.402 C 16.770 108.943,16.828 108.680,17.270 109.281 C 17.823 110.033,17.635 108.846,16.884 106.845 C 16.759 106.511,17.162 106.078,17.779 105.882 C 18.397 105.686,18.800 105.423,18.674 105.297 C 18.548 105.172,17.766 105.325,16.935 105.639 C 15.781 106.075,15.568 106.065,16.031 105.597 C 16.364 105.260,17.385 104.925,18.300 104.853 C 19.382 104.768,20.541 104.123,21.616 103.009 C 22.873 101.706,23.018 101.383,22.222 101.659 C 21.377 101.953,21.303 101.895,21.837 101.357 C 22.371 100.819,22.772 100.982,23.929 102.209 C 24.716 103.044,24.948 103.419,24.444 103.041 C 23.127 102.054,23.315 103.179,24.665 104.363 C 25.384 104.994,25.639 105.072,25.359 104.575 C 25.080 104.078,25.335 104.156,26.054 104.787 C 27.323 105.900,27.635 106.642,26.405 105.621 C 24.997 104.452,25.582 105.927,27.043 107.229 C 28.103 108.174,28.272 108.231,27.706 107.451 C 26.954 106.416,26.958 106.415,28.114 107.401 C 28.756 107.949,29.281 108.518,29.281 108.665 C 29.281 108.812,29.134 108.785,28.954 108.605 C 28.571 108.223,23.007 113.401,23.007 114.139 C 23.007 114.414,23.418 114.322,23.922 113.936 C 24.425 113.550,24.266 113.874,23.569 114.656 C 22.161 116.236,21.433 116.595,22.541 115.163 C 23.118 114.418,23.033 114.434,22.082 115.244 C 20.846 116.299,20.462 117.458,21.569 116.793 C 22.013 116.526,21.992 116.684,21.505 117.285 C 20.669 118.316,20.151 118.469,20.723 117.516 C 20.990 117.072,20.832 117.093,20.231 117.580 C 19.210 118.409,19.026 119.462,20.000 118.901 C 20.380 118.683,20.471 118.725,20.218 119.001 C 19.978 119.263,19.512 119.477,19.182 119.477 C 18.459 119.477,13.749 128.766,13.349 130.980 C 13.151 132.074,13.321 131.866,13.908 130.294 C 14.963 127.468,15.441 127.711,14.434 130.562 C 12.116 137.135,11.384 150.176,12.782 160.000 L 13.043 161.830 12.528 160.000 C 12.244 158.993,11.814 155.699,11.572 152.680 C 11.163 147.578,11.126 147.449,11.057 150.850 C 10.923 157.359,15.099 176.409,16.258 174.579 C 16.546 174.125,16.719 174.084,16.724 174.467 C 16.728 174.803,16.872 175.509,17.043 176.036 C 17.301 176.832,17.259 176.861,16.789 176.209 C 16.288 175.512,16.225 175.512,16.225 176.209 C 16.225 177.368,17.223 178.846,17.284 177.778 C 17.314 177.249,17.475 177.335,17.778 178.039 C 18.412 179.516,18.388 180.278,17.736 179.346 C 16.733 177.914,17.754 180.854,21.278 189.542 C 24.462 197.395,25.549 201.124,24.454 200.448 C 24.194 200.287,24.100 199.846,24.245 199.468 C 24.390 199.089,24.156 198.644,23.725 198.478 C 23.290 198.312,23.108 197.907,23.316 197.570 C 23.551 197.189,23.462 197.104,23.079 197.341 C 22.742 197.549,22.602 197.938,22.767 198.206 C 22.933 198.474,22.739 198.693,22.337 198.693 C 21.455 198.693,20.237 201.157,20.728 201.950 C 20.932 202.280,20.833 202.364,20.489 202.152 C 19.754 201.697,15.493 209.985,15.907 211.064 C 16.067 211.479,15.989 211.690,15.735 211.533 C 14.684 210.884,10.952 222.113,11.053 225.621 C 11.100 227.257,11.207 226.984,11.547 224.363 C 11.785 222.520,12.218 220.776,12.508 220.486 C 12.831 220.163,12.805 220.752,12.442 222.005 C 12.115 223.131,11.830 227.699,11.807 232.157 C 11.784 236.614,11.615 239.556,11.433 238.693 C 11.215 237.664,11.171 237.920,11.304 239.435 C 11.541 242.129,13.865 247.538,14.593 247.088 C 14.867 246.919,15.261 247.056,15.469 247.393 C 15.719 247.797,15.620 247.864,15.176 247.590 C 14.729 247.313,14.586 247.417,14.747 247.901 C 14.880 248.301,15.244 248.627,15.556 248.627 C 15.867 248.627,16.318 248.842,16.558 249.103 C 16.804 249.372,16.749 249.440,16.431 249.259 C 15.496 248.728,14.451 255.117,15.164 257.004 C 17.440 263.026,24.866 265.057,28.992 260.784 C 30.172 259.562,31.778 258.228,32.561 257.821 C 33.345 257.413,33.903 256.997,33.802 256.896 C 33.702 256.796,32.938 257.069,32.104 257.504 C 31.270 257.939,30.000 258.270,29.281 258.241 C 28.412 258.206,28.724 258.021,30.209 257.688 C 31.621 257.372,33.207 256.463,34.515 255.219 L 36.585 253.249 36.304 254.844 C 35.976 256.707,35.556 257.327,35.556 255.948 C 35.556 254.588,34.855 255.457,34.637 257.087 C 34.308 259.544,30.791 267.756,25.394 278.675 C 19.943 289.702,17.028 297.364,16.535 301.961 C 16.374 303.462,16.412 303.918,16.624 303.033 C 16.827 302.185,17.001 305.950,17.010 311.399 C 17.022 318.643,17.255 322.292,17.876 324.967 C 19.206 330.697,19.395 331.960,18.544 329.412 C 18.112 328.118,17.435 325.294,17.041 323.137 C 16.646 320.980,16.302 319.804,16.275 320.523 C 16.131 324.466,20.285 338.514,22.209 340.590 C 22.935 341.374,23.521 342.297,23.511 342.641 C 23.501 342.986,23.138 342.680,22.705 341.961 C 21.020 339.165,22.584 343.107,26.928 352.607 C 32.915 365.700,33.415 368.123,30.812 371.432 C 30.232 372.170,29.826 372.958,29.911 373.184 C 30.318 374.267,26.222 373.869,25.003 372.708 C 24.268 372.006,24.183 371.831,24.802 372.288 C 25.795 373.021,25.817 373.011,25.132 372.128 C 24.728 371.608,24.083 370.079,23.698 368.729 C 23.191 366.952,23.045 366.736,23.169 367.946 C 23.263 368.866,23.147 369.499,22.912 369.353 C 22.676 369.208,22.484 368.397,22.484 367.551 C 22.484 364.969,21.444 365.842,21.356 368.497 L 21.274 370.980 20.915 368.366 L 20.556 365.752 20.474 368.252 C 20.388 370.888,21.615 374.654,22.403 374.168 C 22.658 374.010,23.310 374.405,23.852 375.045 L 24.837 376.209 23.660 375.213 C 23.013 374.665,22.484 374.432,22.484 374.695 C 22.484 376.779,29.602 377.114,32.317 375.158 L 34.248 373.767 32.781 375.119 C 31.974 375.862,31.519 376.471,31.768 376.471 C 33.383 376.471,36.776 370.856,36.450 368.723 C 36.240 367.351,36.233 367.355,36.149 368.889 C 36.101 369.752,35.815 370.810,35.513 371.242 C 35.096 371.838,35.054 371.712,35.340 370.719 C 36.008 368.396,35.666 363.745,34.573 360.284 C 33.986 358.427,33.598 356.816,33.710 356.704 C 34.007 356.407,36.077 363.310,36.086 364.630 C 36.091 365.247,36.326 366.105,36.609 366.536 C 36.973 367.092,37.033 366.788,36.815 365.490 C 36.122 361.373,34.756 357.479,31.120 349.257 C 22.972 330.831,20.166 317.663,21.933 306.144 C 22.242 304.131,22.531 302.181,22.576 301.812 C 22.625 301.409,23.303 301.748,24.270 302.658 C 25.157 303.493,26.353 304.435,26.928 304.752 C 27.503 305.069,27.688 305.335,27.338 305.344 C 26.989 305.352,25.813 304.624,24.724 303.724 L 22.745 302.089 24.784 304.064 L 26.822 306.039 25.666 309.629 C 24.344 313.734,24.495 314.656,26.822 316.700 C 28.182 317.894,28.497 318.563,28.497 320.261 C 28.497 321.535,28.728 322.310,29.089 322.243 C 29.414 322.182,29.650 322.527,29.612 323.010 C 29.510 324.295,32.911 326.004,34.685 325.559 C 37.808 324.775,42.428 319.114,42.299 316.230 C 42.256 315.258,42.175 315.328,41.867 316.601 C 41.457 318.301,40.381 320.523,39.968 320.523 C 39.827 320.523,40.071 319.829,40.509 318.980 C 40.948 318.132,41.307 316.838,41.307 316.104 C 41.307 315.135,41.583 314.771,42.318 314.771 C 44.129 314.771,44.658 310.392,43.190 307.553 C 41.737 304.743,39.259 303.268,35.993 303.268 C 32.583 303.268,28.435 302.122,26.346 300.604 L 24.837 299.506 26.283 300.846 C 28.104 302.534,32.264 303.790,36.043 303.793 C 38.415 303.796,39.245 304.046,40.523 305.144 L 42.092 306.492 40.442 305.403 C 39.282 304.637,37.954 304.314,35.962 304.314 C 31.845 304.314,27.951 302.993,25.708 300.835 C 24.653 299.821,24.094 299.150,24.465 299.344 C 24.979 299.612,25.047 299.343,24.748 298.214 C 24.016 295.446,24.472 294.205,30.791 281.775 C 36.766 270.023,40.286 262.199,40.242 260.771 C 40.231 260.419,39.501 261.970,38.621 264.218 C 37.740 266.466,36.923 268.208,36.804 268.089 C 36.685 267.970,36.983 266.955,37.467 265.832 C 37.950 264.709,39.020 261.673,39.843 259.085 C 41.174 254.903,41.397 254.817,40.525 258.824 C 40.368 259.542,40.569 259.296,40.972 258.275 C 41.374 257.254,41.841 255.372,42.009 254.092 C 42.247 252.287,42.204 252.058,41.819 253.072 C 41.389 254.202,41.358 254.131,41.590 252.549 C 42.552 246.009,42.977 239.489,42.765 234.510 C 42.631 231.346,42.687 229.582,42.891 230.588 C 43.256 232.392,43.262 232.396,43.325 230.850 C 43.475 227.190,39.577 214.833,34.311 202.268 C 32.018 196.797,31.993 196.675,32.981 195.781 C 34.099 194.769,34.356 193.704,33.333 194.318 C 32.889 194.585,32.910 194.427,33.397 193.826 C 34.233 192.795,34.751 192.642,34.179 193.595 C 33.912 194.039,34.070 194.018,34.671 193.531 C 35.692 192.703,35.876 191.649,34.902 192.210 C 34.522 192.428,34.431 192.387,34.684 192.110 C 34.924 191.848,35.375 191.634,35.686 191.634 C 35.998 191.634,36.362 191.307,36.495 190.908 C 36.660 190.411,36.509 190.313,36.016 190.599 C 35.590 190.846,35.473 190.822,35.730 190.541 C 35.969 190.280,36.420 190.065,36.732 190.065 C 37.044 190.065,37.407 189.738,37.541 189.339 C 37.706 188.842,37.555 188.745,37.061 189.031 C 36.635 189.277,36.518 189.254,36.776 188.973 C 37.015 188.711,37.466 188.497,37.778 188.497 C 38.089 188.497,38.453 188.170,38.586 187.770 C 38.752 187.274,38.600 187.176,38.107 187.462 C 37.681 187.709,37.564 187.685,37.821 187.404 C 38.061 187.142,38.512 186.928,38.824 186.928 C 39.135 186.928,39.499 186.601,39.632 186.202 C 39.794 185.718,39.650 185.614,39.203 185.890 C 38.759 186.165,38.660 186.098,38.910 185.693 C 39.118 185.356,39.495 185.209,39.748 185.366 C 40.002 185.522,40.456 185.188,40.758 184.624 C 41.472 183.290,41.454 182.854,40.704 183.318 C 40.327 183.551,40.242 183.461,40.478 183.079 C 40.686 182.742,41.069 182.598,41.328 182.758 C 41.991 183.168,47.839 171.309,49.670 165.844 C 53.640 153.994,53.796 142.163,50.129 130.980 C 48.660 126.501,43.802 116.863,43.014 116.863 C 42.698 116.863,42.244 116.649,42.004 116.387 C 41.747 116.106,41.864 116.082,42.290 116.329 C 42.783 116.615,42.935 116.517,42.769 116.020 C 42.636 115.621,42.272 115.294,41.961 115.294 C 41.649 115.294,41.198 115.080,40.959 114.818 C 40.701 114.537,40.818 114.513,41.244 114.760 C 41.738 115.046,41.889 114.949,41.724 114.452 C 41.590 114.052,41.227 113.725,40.915 113.725 C 40.603 113.725,40.153 113.511,39.913 113.250 C 39.656 112.968,39.773 112.945,40.199 113.192 C 40.692 113.478,40.843 113.380,40.678 112.883 C 40.545 112.484,40.181 112.157,39.869 112.157 C 39.558 112.157,39.107 111.943,38.867 111.681 C 38.610 111.400,38.727 111.376,39.153 111.623 C 39.646 111.909,39.798 111.811,39.632 111.315 C 39.499 110.915,39.135 110.588,38.824 110.588 C 38.512 110.588,38.061 110.374,37.821 110.112 C 37.580 109.849,37.619 109.752,37.908 109.896 C 38.196 110.039,39.246 109.194,40.242 108.019 C 41.883 106.083,41.907 106.010,40.504 107.244 C 38.388 109.102,37.335 109.390,36.509 108.335 C 35.887 107.541,35.910 107.524,36.732 108.169 C 37.379 108.676,37.647 108.706,37.647 108.268 C 37.647 107.929,37.903 107.809,38.215 108.002 C 38.528 108.195,39.622 107.562,40.647 106.595 C 41.671 105.628,42.343 105.131,42.139 105.490 C 41.312 106.948,42.752 105.977,45.606 103.154 C 48.448 100.341,49.731 98.372,47.712 99.920 C 47.209 100.306,47.368 99.982,48.065 99.200 C 49.473 97.621,50.201 97.261,49.093 98.693 C 48.516 99.438,48.601 99.423,49.551 98.612 C 50.706 97.627,51.207 96.369,50.196 96.993 C 49.345 97.519,49.600 96.919,50.558 96.142 C 51.321 95.523,51.379 95.533,50.980 96.209 C 50.582 96.886,50.640 96.895,51.403 96.276 C 52.392 95.474,52.626 94.369,51.684 94.952 C 51.307 95.185,51.222 95.095,51.459 94.713 C 51.667 94.376,52.059 94.238,52.331 94.406 C 53.610 95.197,59.155 80.323,59.048 76.387 C 59.028 75.642,58.582 77.033,58.057 79.477 C 57.097 83.948,56.188 86.797,55.722 86.797 C 55.584 86.797,55.806 85.848,56.216 84.687 C 57.699 80.485,58.615 73.808,58.930 64.923 L 59.251 55.859 56.684 56.226 C 53.261 56.715,53.480 56.097,53.171 66.144 C 52.917 74.422,51.927 81.093,50.784 82.236 C 50.558 82.462,50.830 80.933,51.389 78.840 C 52.351 75.231,53.439 56.254,52.640 57.006 C 52.480 57.157,52.228 61.275,52.080 66.157 C 51.770 76.376,50.821 80.962,47.707 87.276 C 45.207 92.347,45.250 92.237,45.945 91.807 C 46.851 91.247,46.647 91.808,45.651 92.616 C 44.888 93.235,44.830 93.226,45.229 92.549 C 45.627 91.873,45.569 91.863,44.806 92.482 C 43.866 93.245,43.561 94.402,44.444 93.856 C 45.296 93.330,45.040 93.930,44.083 94.707 C 43.325 95.322,43.263 95.316,43.652 94.671 C 43.902 94.257,41.765 96.345,38.903 99.311 C 34.042 104.348,33.648 104.641,32.928 103.755 C 32.470 103.191,32.422 102.965,32.810 103.198 C 33.917 103.863,33.533 102.704,32.297 101.650 C 31.141 100.664,31.137 100.664,31.895 101.699 C 32.654 102.735,32.650 102.735,31.494 101.749 C 30.298 100.729,29.914 100.075,30.850 100.654 C 31.860 101.278,31.359 100.020,30.205 99.035 C 29.050 98.049,29.045 98.050,29.797 99.085 C 30.363 99.864,30.195 99.808,29.135 98.863 C 27.655 97.545,27.122 96.637,28.497 97.778 C 29.905 98.946,29.320 97.472,27.859 96.170 C 26.799 95.225,26.630 95.168,27.196 95.948 C 27.948 96.983,27.944 96.983,26.788 95.997 C 25.592 94.977,25.208 94.324,26.144 94.902 C 27.027 95.448,26.722 94.291,25.782 93.528 C 25.019 92.909,24.960 92.919,25.349 93.595 C 25.631 94.085,25.375 94.006,24.665 93.383 C 23.396 92.270,23.084 91.528,24.314 92.549 C 25.556 93.580,25.225 92.299,23.962 91.192 C 23.338 90.644,22.999 90.490,23.209 90.850 C 23.764 91.799,23.254 91.650,22.417 90.619 C 21.929 90.017,21.909 89.860,22.353 90.127 C 23.330 90.714,23.142 89.649,22.122 88.822 C 21.521 88.335,21.363 88.314,21.630 88.758 C 22.202 89.711,21.684 89.558,20.848 88.527 C 20.361 87.926,20.340 87.768,20.784 88.035 C 21.761 88.622,21.573 87.558,20.553 86.731 C 19.952 86.243,19.794 86.223,20.061 86.667 C 20.634 87.619,20.116 87.466,19.280 86.436 C 18.671 85.685,18.671 85.617,19.284 85.985 C 19.782 86.286,19.930 86.196,19.763 85.694 C 19.630 85.294,19.266 84.967,18.954 84.967 C 18.643 84.967,18.192 84.753,17.952 84.491 C 17.695 84.210,17.812 84.187,18.238 84.433 C 18.731 84.719,18.883 84.622,18.717 84.125 C 18.584 83.726,18.220 83.399,17.908 83.399 C 17.597 83.399,17.146 83.184,16.906 82.923 C 16.649 82.642,16.766 82.618,17.192 82.865 C 17.685 83.151,17.837 83.053,17.671 82.556 C 17.538 82.157,17.174 81.830,16.863 81.830 C 16.551 81.830,16.100 81.616,15.861 81.354 C 15.607 81.078,15.699 81.036,16.078 81.254 C 16.876 81.713,16.909 81.307,16.183 79.951 C 15.881 79.387,15.374 79.086,15.056 79.282 C 14.729 79.484,14.626 79.401,14.817 79.091 C 15.003 78.790,14.559 77.194,13.829 75.545 C 10.576 68.189,10.230 61.014,12.789 53.980 C 13.549 51.892,14.028 49.950,13.852 49.667 C 13.343 48.842,14.098 49.065,15.713 50.215 C 17.498 51.486,25.145 55.029,25.448 54.726 C 25.565 54.609,24.064 53.836,22.112 53.008 C 18.879 51.637,13.460 48.320,9.804 45.476 C 9.013 44.861,8.366 44.538,8.366 44.759 M241.830 45.524 C 239.179 46.221,238.812 46.403,240.498 46.186 C 242.931 45.872,247.637 44.543,246.275 44.554 C 245.843 44.558,243.843 44.994,241.830 45.524 M329.108 47.056 C 329.707 47.054,330.873 46.699,331.701 46.267 C 333.015 45.582,333.125 45.581,332.564 46.257 C 331.078 48.047,324.812 47.254,323.485 45.107 C 323.315 44.832,324.265 45.158,325.598 45.832 C 326.930 46.507,328.510 47.057,329.108 47.056 M63.296 46.323 C 62.017 46.724,59.736 47.172,58.228 47.318 C 56.719 47.465,54.824 47.841,54.017 48.155 C 53.210 48.469,48.902 48.921,44.444 49.160 L 36.340 49.594 44.706 49.392 C 53.089 49.190,61.265 47.943,65.027 46.294 C 67.129 45.373,66.280 45.387,63.296 46.323 M67.601 49.412 C 67.604 50.850,67.706 51.376,67.826 50.581 C 67.946 49.786,67.943 48.610,67.819 47.967 C 67.695 47.324,67.597 47.974,67.601 49.412 M12.680 48.358 C 12.895 48.362,13.092 48.562,13.115 48.802 C 13.208 49.731,12.675 49.632,11.718 48.541 C 11.116 47.854,11.030 47.590,11.503 47.876 C 11.935 48.137,12.464 48.354,12.680 48.358 M5.265 53.375 C 4.712 54.934,4.242 55.957,4.221 55.649 C 4.167 54.859,5.826 50.096,6.070 50.340 C 6.181 50.451,5.819 51.817,5.265 53.375 M64.902 52.851 C 62.436 53.838,51.822 55.450,44.680 55.923 L 37.386 56.405 44.967 56.170 C 54.930 55.862,58.530 55.570,59.265 55.011 C 59.597 54.759,61.163 54.272,62.745 53.930 C 64.327 53.587,65.974 53.082,66.405 52.806 C 67.396 52.172,66.534 52.198,64.902 52.851 M11.277 57.350 C 10.961 58.735,10.652 59.345,10.565 58.754 C 10.423 57.794,11.242 54.902,11.656 54.902 C 11.754 54.902,11.583 56.004,11.277 57.350 M59.811 62.484 C 59.812 66.222,59.895 67.683,59.996 65.730 C 60.097 63.777,60.096 60.718,59.994 58.933 C 59.893 57.147,59.810 58.745,59.811 62.484 M3.784 61.830 C 3.627 65.519,3.804 68.248,4.352 70.585 C 5.231 74.338,5.122 75.493,4.186 72.337 C 3.102 68.680,2.857 56.471,3.868 56.471 C 3.947 56.471,3.909 58.882,3.784 61.830 M68.497 60.063 C 68.065 60.296,66.341 60.781,64.665 61.140 C 62.989 61.499,61.720 61.894,61.843 62.018 C 61.967 62.141,63.691 61.863,65.675 61.398 C 67.658 60.934,71.869 60.375,75.033 60.158 L 80.784 59.762 75.033 59.701 C 71.869 59.667,68.928 59.830,68.497 60.063 M11.414 70.282 C 11.730 71.408,11.788 72.114,11.541 71.851 C 10.788 71.048,9.930 66.005,10.010 62.850 C 10.080 60.071,10.110 60.153,10.462 64.052 C 10.669 66.353,11.097 69.156,11.414 70.282 M83.786 60.901 C 87.663 61.898,90.215 63.231,92.810 65.616 L 94.902 67.538 92.549 65.729 C 85.498 60.311,75.147 59.169,63.399 62.515 L 60.654 63.297 60.654 66.214 C 60.654 68.403,60.825 69.066,61.338 68.869 C 70.293 65.432,84.369 66.125,88.819 70.222 C 91.001 72.230,92.585 78.752,91.111 79.656 C 90.895 79.788,90.719 78.407,90.719 76.587 C 90.719 72.228,87.288 68.024,83.697 67.982 C 83.286 67.978,84.211 68.621,85.753 69.412 C 90.069 71.625,91.673 76.493,89.657 81.262 C 89.327 82.043,89.397 82.168,89.977 81.832 C 90.417 81.576,90.542 81.595,90.283 81.877 C 90.044 82.139,89.691 82.357,89.499 82.361 C 88.745 82.378,87.842 83.235,88.113 83.674 C 88.548 84.377,85.511 85.753,83.555 85.740 C 81.350 85.725,77.946 84.167,76.605 82.558 L 75.563 81.307 76.874 82.459 C 79.839 85.064,84.287 85.930,86.797 84.390 C 87.635 83.876,87.729 83.723,87.059 83.965 C 83.490 85.252,78.624 84.192,77.045 81.783 C 76.594 81.095,76.032 80.651,75.796 80.797 C 75.560 80.943,75.196 80.787,74.988 80.451 C 74.752 80.068,74.836 79.979,75.213 80.212 C 75.981 80.686,75.979 80.235,75.207 78.791 C 74.871 78.164,74.419 75.650,74.202 73.204 L 73.807 68.758 73.939 73.434 C 74.012 76.006,73.893 77.653,73.674 77.095 C 73.455 76.536,73.260 74.490,73.239 72.549 C 73.199 68.673,73.157 68.637,69.550 69.358 L 67.858 69.696 68.067 74.886 C 68.181 77.740,68.106 79.646,67.900 79.122 C 67.631 78.441,67.515 78.393,67.493 78.954 C 67.449 80.046,69.816 85.013,70.615 85.507 C 71.081 85.795,71.144 85.699,70.830 85.179 C 70.453 84.553,70.519 84.551,71.272 85.162 C 72.230 85.939,72.485 86.539,71.634 86.013 C 70.142 85.091,71.412 86.971,73.333 88.529 C 80.506 94.346,87.714 94.351,94.141 88.544 C 96.164 86.716,97.103 84.923,95.294 86.341 C 94.469 86.989,94.448 86.971,95.083 86.161 C 95.470 85.666,96.040 85.313,96.350 85.376 C 99.381 85.989,99.365 71.379,96.332 68.921 C 95.709 68.416,95.589 68.408,95.878 68.889 C 96.451 69.841,95.933 69.688,95.097 68.658 C 94.609 68.057,94.589 67.899,95.033 68.166 C 96.610 69.114,95.471 67.348,93.203 65.331 C 90.245 62.700,86.374 60.810,83.137 60.416 C 80.973 60.153,81.025 60.192,83.786 60.901 M33.758 63.922 L 35.294 65.621 33.595 64.085 C 32.660 63.241,31.895 62.476,31.895 62.386 C 31.895 61.982,32.327 62.338,33.758 63.922 M72.157 67.268 C 67.315 68.001,61.637 69.221,61.417 69.576 C 61.274 69.808,61.926 69.772,62.866 69.496 C 63.806 69.220,66.450 68.872,68.742 68.723 C 71.033 68.573,73.070 68.189,73.267 67.870 C 73.508 67.480,75.148 67.378,78.251 67.561 C 80.795 67.711,82.170 67.658,81.307 67.443 C 79.659 67.032,74.383 66.932,72.157 67.268 M42.614 69.529 C 43.613 69.971,46.947 70.270,46.492 69.877 C 46.373 69.773,45.216 69.548,43.922 69.377 C 42.350 69.169,41.916 69.220,42.614 69.529 M59.242 72.157 C 59.242 73.739,59.340 74.386,59.459 73.595 C 59.579 72.804,59.579 71.510,59.459 70.719 C 59.340 69.928,59.242 70.575,59.242 72.157 M67.006 70.676 C 66.963 71.444,66.793 72.502,66.627 73.029 C 66.343 73.934,66.359 73.936,66.922 73.059 C 67.250 72.548,67.420 71.489,67.301 70.706 L 67.085 69.281 67.006 70.676 M47.712 70.426 C 48.216 70.557,49.039 70.557,49.542 70.426 C 50.046 70.294,49.634 70.187,48.627 70.187 C 47.621 70.187,47.209 70.294,47.712 70.426 M98.196 77.647 L 98.139 81.307 97.776 77.124 C 97.577 74.824,97.257 72.471,97.065 71.895 C 96.873 71.320,97.062 71.556,97.485 72.418 C 97.962 73.391,98.232 75.377,98.196 77.647 M67.060 76.078 C 67.066 77.229,67.173 77.638,67.298 76.987 C 67.423 76.337,67.418 75.396,67.287 74.896 C 67.156 74.396,67.054 74.928,67.060 76.078 M48.366 88.366 C 47.920 89.229,47.437 89.935,47.293 89.935 C 47.150 89.935,47.397 89.229,47.843 88.366 C 48.289 87.503,48.772 86.797,48.916 86.797 C 49.060 86.797,48.812 87.503,48.366 88.366 M77.908 90.492 C 81.341 92.235,86.169 92.205,89.778 90.420 C 92.974 88.839,92.966 89.424,89.768 91.087 C 85.008 93.563,77.288 92.090,73.727 88.026 L 72.422 86.536 73.989 87.916 C 74.851 88.676,76.614 89.834,77.908 90.492 M39.507 99.839 C 35.786 103.582,35.449 104.086,36.092 104.937 C 36.775 105.841,36.762 105.843,35.804 104.964 C 34.828 104.070,34.911 103.937,38.957 99.866 C 41.243 97.567,43.230 95.686,43.374 95.686 C 43.518 95.686,41.778 97.555,39.507 99.839 M46.536 101.602 C 46.536 101.692,45.771 102.456,44.837 103.301 L 43.137 104.837 44.673 103.137 C 46.105 101.553,46.536 101.198,46.536 101.602 M8.387 106.468 C 6.306 108.219,5.342 110.108,4.766 113.570 L 4.305 116.340 4.256 113.987 C 4.195 111.125,5.639 107.766,7.587 106.233 C 9.642 104.617,10.343 104.822,8.387 106.468 M30.717 110.536 C 31.587 111.560,31.587 111.579,30.719 110.907 C 29.855 110.238,29.553 110.467,29.781 111.619 C 29.836 111.899,29.389 111.682,28.788 111.138 C 27.711 110.164,27.672 110.168,26.241 111.414 C 25.198 112.323,25.245 112.225,26.409 111.068 C 28.304 109.182,29.448 109.041,30.717 110.536 M33.775 114.591 C 34.020 114.986,33.917 115.051,33.477 114.779 C 33.029 114.503,32.886 114.606,33.048 115.091 C 33.181 115.490,33.545 115.817,33.856 115.817 C 34.168 115.817,34.619 116.031,34.858 116.293 C 35.116 116.574,34.999 116.598,34.573 116.351 C 34.079 116.065,33.928 116.162,34.093 116.659 C 34.227 117.059,34.590 117.386,34.902 117.386 C 35.214 117.386,35.664 117.600,35.904 117.862 C 36.161 118.143,36.044 118.166,35.618 117.920 C 35.125 117.634,34.974 117.731,35.139 118.228 C 35.272 118.627,35.636 118.954,35.948 118.954 C 36.259 118.954,36.710 119.168,36.950 119.430 C 37.203 119.707,37.112 119.749,36.732 119.530 C 35.934 119.071,35.902 119.477,36.628 120.833 C 36.930 121.398,37.384 121.731,37.637 121.575 C 37.890 121.418,38.268 121.566,38.476 121.902 C 38.712 122.285,38.628 122.374,38.251 122.141 C 37.374 121.599,37.421 121.736,40.000 127.180 C 41.294 129.912,42.357 132.473,42.361 132.871 C 42.367 133.459,42.451 133.466,42.805 132.907 C 43.698 131.499,46.002 142.448,46.009 148.135 C 46.014 151.786,45.198 157.544,44.070 161.830 C 43.258 164.911,42.167 167.105,42.666 164.650 C 42.806 163.962,42.242 165.163,41.413 167.320 C 40.583 169.477,39.497 172.028,38.999 172.988 C 38.502 173.949,38.226 175.079,38.388 175.499 C 38.549 175.920,38.456 176.125,38.182 175.955 C 37.566 175.575,34.350 181.802,34.792 182.517 C 34.967 182.801,34.828 182.968,34.483 182.889 C 34.138 182.810,33.737 183.072,33.592 183.471 C 33.415 183.959,33.549 184.061,34.000 183.783 C 34.443 183.509,34.543 183.576,34.293 183.980 C 34.085 184.317,33.707 184.464,33.454 184.308 C 33.201 184.151,32.747 184.485,32.445 185.049 C 31.719 186.405,31.751 186.811,32.549 186.352 C 32.929 186.134,33.020 186.176,32.767 186.452 C 32.527 186.714,32.076 186.928,31.765 186.928 C 31.453 186.928,31.089 187.255,30.956 187.654 C 30.791 188.151,30.942 188.249,31.435 187.963 C 31.861 187.716,31.978 187.740,31.721 188.021 C 31.481 188.283,31.031 188.497,30.719 188.497 C 30.407 188.497,30.044 188.824,29.910 189.223 C 29.743 189.725,29.891 189.815,30.390 189.515 C 31.002 189.146,31.002 189.214,30.393 189.965 C 29.617 190.923,29.016 191.178,29.542 190.327 C 29.720 190.039,29.648 189.804,29.382 189.804 C 29.116 189.804,28.384 188.392,27.754 186.667 C 27.125 184.941,26.376 183.529,26.089 183.529 C 25.519 183.529,23.842 179.906,24.231 179.516 C 24.363 179.384,24.753 180.131,25.098 181.176 C 25.443 182.222,25.814 182.988,25.923 182.879 C 26.032 182.770,24.962 179.365,23.545 175.311 C 20.453 166.465,18.306 156.983,19.261 156.393 C 19.723 156.107,19.614 155.748,18.859 155.065 C 17.633 153.955,17.686 154.719,19.400 162.836 C 19.942 165.402,20.292 167.595,20.178 167.709 C 19.921 167.966,18.544 161.956,17.819 157.416 C 17.151 153.238,17.319 153.066,19.748 155.433 C 24.815 160.371,33.627 160.235,39.215 155.134 L 41.044 153.464 39.476 155.230 C 35.143 160.110,25.443 161.010,20.682 156.974 C 19.666 156.113,19.655 156.117,20.401 157.076 C 22.768 160.122,30.555 160.997,35.294 158.750 C 38.374 157.290,42.144 153.610,41.548 152.646 C 41.288 152.226,41.360 152.128,41.750 152.369 C 42.119 152.597,42.558 152.208,42.877 151.370 C 43.531 149.648,43.497 148.393,42.833 149.804 C 42.462 150.593,42.410 150.385,42.620 148.953 C 42.774 147.910,42.657 146.381,42.361 145.555 C 41.862 144.157,41.879 144.123,42.611 145.067 C 43.389 146.070,43.742 145.604,42.999 144.557 C 42.341 143.631,39.627 141.698,39.014 141.720 C 38.694 141.732,39.078 142.092,39.869 142.521 C 41.784 143.560,41.725 144.034,39.805 143.041 C 38.979 142.614,38.195 142.371,38.064 142.502 C 37.933 142.633,37.845 142.330,37.867 141.828 C 37.890 141.326,37.673 140.845,37.386 140.760 C 37.098 140.675,36.107 139.873,35.183 138.978 C 33.200 137.055,29.712 136.775,27.300 138.345 C 26.056 139.155,25.970 139.161,26.597 138.396 C 28.347 136.260,32.676 136.153,34.902 138.190 C 35.549 138.783,36.071 139.050,36.062 138.784 C 35.983 136.470,29.832 135.469,27.291 137.357 C 24.603 139.352,23.627 144.039,25.895 144.056 C 26.176 144.058,26.987 144.470,27.698 144.971 L 28.991 145.882 27.672 145.882 C 26.946 145.882,26.124 146.059,25.845 146.275 C 25.566 146.490,25.744 146.284,26.241 145.817 C 26.738 145.349,27.011 144.833,26.848 144.669 C 26.291 144.112,23.994 147.404,23.708 149.170 C 23.477 150.592,23.695 151.220,24.848 152.458 C 25.633 153.299,25.962 153.516,25.581 152.941 C 24.991 152.052,24.996 151.993,25.615 152.544 C 26.015 152.900,26.392 153.529,26.452 153.940 C 26.610 155.014,22.050 154.579,20.959 153.415 C 20.416 152.836,20.379 152.673,20.852 152.940 C 21.342 153.217,21.496 153.115,21.331 152.622 C 21.198 152.222,20.834 151.895,20.523 151.895 C 20.211 151.895,19.760 151.681,19.521 151.419 C 19.262 151.137,19.387 151.119,19.827 151.374 C 20.392 151.702,20.484 151.581,20.210 150.868 C 17.665 144.236,18.836 135.075,23.320 126.536 C 25.329 122.712,25.345 122.666,24.512 123.148 C 24.086 123.395,23.969 123.371,24.227 123.090 C 24.466 122.829,24.917 122.614,25.229 122.614 C 25.540 122.614,25.904 122.288,26.037 121.888 C 26.203 121.391,26.051 121.294,25.558 121.580 C 25.132 121.826,25.015 121.803,25.272 121.522 C 25.512 121.260,25.963 121.046,26.275 121.046 C 26.586 121.046,26.950 120.719,27.083 120.319 C 27.251 119.817,27.103 119.727,26.604 120.028 C 25.999 120.392,26.000 120.318,26.610 119.565 C 27.011 119.071,27.462 118.791,27.614 118.943 C 27.966 119.295,29.804 117.648,29.804 116.979 C 29.804 116.701,29.392 116.787,28.889 117.171 C 28.386 117.555,28.657 117.121,29.492 116.208 C 30.327 115.294,31.161 114.641,31.347 114.755 C 31.532 114.870,32.026 114.748,32.443 114.483 C 33.397 113.880,33.333 113.875,33.775 114.591 M50.464 133.883 C 50.922 135.648,51.212 137.344,51.110 137.651 C 51.007 137.958,50.616 136.818,50.240 135.118 C 49.864 133.417,48.995 130.633,48.308 128.929 C 47.621 127.226,47.078 125.697,47.102 125.531 C 47.209 124.773,49.719 131.006,50.464 133.883 M12.288 134.379 C 12.089 135.283,12.036 136.131,12.169 136.265 C 12.302 136.398,12.561 135.755,12.745 134.837 C 13.181 132.657,12.759 132.235,12.288 134.379 M19.035 136.507 C 18.187 139.816,18.198 146.862,19.055 149.281 L 19.425 150.327 18.732 149.281 C 17.794 147.865,17.816 138.547,18.765 135.279 C 19.823 131.636,20.035 132.601,19.035 136.507 M42.949 134.379 C 42.949 134.810,43.152 135.634,43.399 136.209 C 43.682 136.868,43.848 136.965,43.848 136.471 C 43.848 136.039,43.646 135.216,43.399 134.641 C 43.115 133.981,42.949 133.885,42.949 134.379 M11.319 138.938 C 11.139 140.025,11.023 142.327,11.061 144.052 C 11.118 146.673,11.196 146.372,11.535 142.223 C 11.960 137.002,11.869 135.609,11.319 138.938 M44.284 140.392 C 44.444 142.118,44.664 143.627,44.771 143.747 C 45.121 144.136,44.856 140.436,44.418 138.824 C 44.138 137.792,44.092 138.329,44.284 140.392 M52.089 149.542 C 51.844 155.618,50.270 164.318,49.228 165.360 C 49.008 165.580,49.412 163.582,50.125 160.919 C 51.251 156.717,51.428 154.917,51.463 147.274 C 51.491 141.139,51.632 139.158,51.928 140.738 C 52.162 141.986,52.235 145.948,52.089 149.542 M25.882 141.388 C 25.882 142.367,25.706 143.059,25.490 142.926 C 24.810 142.506,25.115 139.608,25.839 139.608 C 25.863 139.608,25.882 140.409,25.882 141.388 M34.978 143.579 C 37.876 147.262,36.085 154.270,31.708 156.381 C 30.968 156.737,31.082 156.537,32.045 155.789 C 36.292 152.488,36.719 146.614,33.008 142.547 C 31.789 141.211,31.762 141.107,32.770 141.628 C 33.395 141.951,34.388 142.829,34.978 143.579 M45.147 148.235 C 45.148 150.536,45.240 151.412,45.351 150.182 C 45.461 148.952,45.460 147.070,45.347 145.999 C 45.235 144.928,45.145 145.935,45.147 148.235 M44.045 156.601 C 43.682 158.902,43.236 161.373,43.053 162.092 C 42.871 162.810,42.870 163.265,43.052 163.102 C 43.578 162.630,45.059 154.904,44.874 153.600 C 44.781 152.950,44.409 154.301,44.045 156.601 M28.460 155.353 C 28.076 155.974,25.035 155.930,24.052 155.290 C 23.518 154.942,24.103 154.888,25.882 155.123 C 28.403 155.455,28.469 155.431,27.712 154.466 C 26.988 153.541,26.998 153.519,27.837 154.177 C 28.337 154.569,28.618 155.098,28.460 155.353 M14.013 165.490 C 14.013 166.318,13.926 166.264,13.595 165.229 C 13.365 164.510,13.176 163.451,13.176 162.876 C 13.176 162.048,13.263 162.102,13.595 163.137 C 13.825 163.856,14.013 164.915,14.013 165.490 M16.165 173.333 C 16.118 174.172,14.803 170.331,14.458 168.347 C 14.285 167.351,14.605 167.948,15.169 169.673 C 15.733 171.399,16.182 173.046,16.165 173.333 M22.682 174.359 C 23.154 175.786,23.335 176.727,23.082 176.450 C 22.829 176.174,22.236 174.780,21.763 173.354 C 21.290 171.927,21.110 170.986,21.363 171.262 C 21.615 171.539,22.209 172.932,22.682 174.359 M21.776 189.118 C 21.550 189.344,19.846 185.314,19.906 184.695 C 19.927 184.485,20.402 185.348,20.963 186.612 C 21.524 187.876,21.890 189.004,21.776 189.118 M24.538 195.294 C 24.538 195.582,24.202 195.229,23.791 194.510 C 23.380 193.791,23.044 192.967,23.044 192.680 C 23.044 192.392,23.380 192.745,23.791 193.464 C 24.202 194.183,24.538 195.007,24.538 195.294 M31.050 195.208 C 30.786 196.056,30.894 196.098,31.977 195.572 C 33.081 195.034,33.111 195.049,32.278 195.722 C 31.712 196.180,31.473 196.848,31.661 197.450 C 31.841 198.027,31.639 197.893,31.170 197.124 C 30.731 196.405,30.505 195.376,30.667 194.836 C 30.857 194.205,30.758 193.982,30.389 194.210 C 30.023 194.436,29.935 194.254,30.144 193.709 C 30.608 192.500,31.456 193.904,31.050 195.208 M26.969 201.702 C 26.803 201.868,26.667 201.716,26.667 201.363 C 26.667 201.011,26.422 200.874,26.123 201.059 C 25.823 201.244,25.717 201.905,25.886 202.528 C 26.162 203.544,26.133 203.564,25.605 202.718 C 25.177 202.033,25.172 201.586,25.589 201.085 C 25.904 200.705,26.025 199.952,25.858 199.413 C 25.691 198.873,25.941 199.099,26.413 199.916 C 26.885 200.732,27.135 201.536,26.969 201.702 M33.427 201.569 C 33.427 201.856,33.091 201.503,32.680 200.784 C 32.269 200.065,31.932 199.242,31.932 198.954 C 31.932 198.667,32.269 199.020,32.680 199.739 C 33.091 200.458,33.427 201.281,33.427 201.569 M29.978 210.730 C 31.548 214.606,33.467 219.778,34.243 222.222 C 36.303 228.708,36.679 229.695,36.336 227.712 C 36.127 226.508,36.186 226.344,36.591 227.007 C 38.016 229.341,38.871 238.052,38.251 243.922 C 37.557 250.490,36.546 254.708,36.746 250.196 C 36.810 248.758,36.711 247.582,36.525 247.582 C 36.340 247.582,35.752 247.206,35.218 246.746 C 33.621 245.370,32.357 245.149,31.037 246.013 C 30.359 246.458,29.804 246.695,29.804 246.540 C 29.804 246.386,30.569 245.793,31.503 245.223 C 32.438 244.653,32.961 244.186,32.665 244.185 C 32.369 244.184,31.311 244.743,30.312 245.427 L 28.497 246.671 27.019 245.427 C 26.082 244.639,24.933 244.205,23.881 244.243 C 22.259 244.302,22.266 244.312,24.210 244.688 C 25.303 244.900,26.479 245.361,26.824 245.714 C 27.319 246.219,27.156 246.222,26.053 245.726 C 24.217 244.900,21.529 245.437,19.007 247.133 C 17.899 247.878,17.168 248.305,17.381 248.083 C 17.594 247.860,17.477 247.317,17.120 246.876 C 16.602 246.236,16.603 246.153,17.124 246.466 C 17.957 246.967,17.949 246.868,16.932 244.118 C 16.454 242.825,15.921 239.102,15.708 235.556 L 15.329 229.281 15.259 234.248 C 15.220 236.980,15.400 240.127,15.658 241.240 C 16.017 242.789,15.984 243.121,15.515 242.651 C 14.526 241.660,14.813 226.222,15.875 223.268 C 16.340 221.974,16.597 221.503,16.446 222.222 C 16.295 222.941,16.071 224.824,15.949 226.405 L 15.728 229.281 16.203 226.337 C 16.810 222.581,18.460 217.683,20.442 213.758 C 21.297 212.063,21.835 210.415,21.637 210.095 C 21.424 209.750,21.513 209.658,21.854 209.868 C 22.171 210.065,22.678 209.764,22.980 209.199 C 23.706 207.843,23.674 207.437,22.876 207.896 C 22.496 208.115,22.405 208.073,22.658 207.796 C 22.898 207.534,23.349 207.320,23.660 207.320 C 23.972 207.320,24.336 206.993,24.469 206.594 C 24.634 206.097,24.483 206.000,23.989 206.286 C 23.563 206.532,23.446 206.509,23.704 206.228 C 23.943 205.966,24.394 205.752,24.706 205.752 C 25.017 205.752,25.381 205.425,25.514 205.025 C 25.676 204.541,25.533 204.437,25.085 204.714 C 24.641 204.988,24.542 204.921,24.792 204.517 C 25.000 204.180,25.373 204.030,25.621 204.183 C 25.869 204.336,26.229 204.207,26.421 203.895 C 26.911 203.103,26.815 202.920,29.978 210.730 M36.308 208.430 C 37.070 210.334,37.600 211.986,37.486 212.100 C 37.371 212.215,36.795 211.069,36.206 209.553 C 35.616 208.037,34.969 206.386,34.766 205.882 C 34.564 205.379,34.516 204.967,34.660 204.967 C 34.804 204.967,35.545 206.525,36.308 208.430 M32.214 213.651 C 32.648 214.689,32.908 215.633,32.792 215.748 C 32.676 215.864,32.211 215.015,31.758 213.862 C 30.733 211.254,31.135 211.069,32.214 213.651 M14.030 217.020 C 13.724 217.898,13.377 218.518,13.258 218.400 C 12.999 218.141,13.986 215.425,14.339 215.425 C 14.475 215.425,14.336 216.143,14.030 217.020 M34.210 219.085 C 34.453 219.993,34.412 220.153,34.075 219.608 C 33.809 219.176,33.433 218.235,33.241 217.516 C 32.998 216.608,33.039 216.448,33.376 216.993 C 33.642 217.425,34.018 218.366,34.210 219.085 M40.289 219.419 C 40.578 220.178,40.717 220.896,40.598 221.014 C 40.479 221.133,40.132 220.512,39.826 219.635 C 39.146 217.684,39.557 217.493,40.289 219.419 M36.015 224.302 C 36.353 225.302,36.405 225.890,36.130 225.609 C 35.855 225.328,35.462 224.392,35.258 223.529 C 34.778 221.506,35.223 221.960,36.015 224.302 M42.249 227.712 C 42.249 228.540,42.162 228.486,41.830 227.451 C 41.600 226.732,41.411 225.673,41.411 225.098 C 41.411 224.270,41.499 224.324,41.830 225.359 C 42.060 226.078,42.249 227.137,42.249 227.712 M10.640 232.157 C 10.640 234.601,10.730 235.601,10.840 234.379 C 10.950 233.157,10.950 231.157,10.840 229.935 C 10.730 228.712,10.640 229.712,10.640 232.157 M36.693 230.327 C 36.676 230.902,36.856 232.314,37.094 233.464 C 37.458 235.223,37.527 235.306,37.525 233.987 C 37.523 232.155,36.742 228.719,36.693 230.327 M43.594 238.170 C 43.595 241.333,43.682 242.560,43.786 240.896 C 43.890 239.232,43.889 236.644,43.784 235.144 C 43.678 233.645,43.593 235.007,43.594 238.170 M37.814 238.954 C 37.814 240.824,37.909 241.588,38.025 240.654 C 38.141 239.719,38.141 238.190,38.025 237.255 C 37.909 236.320,37.814 237.085,37.814 238.954 M37.274 244.967 C 37.278 246.405,37.379 246.931,37.499 246.137 C 37.620 245.342,37.616 244.165,37.492 243.522 C 37.368 242.879,37.270 243.529,37.274 244.967 M42.958 245.752 C 42.906 246.758,42.753 248.523,42.617 249.673 L 42.369 251.765 42.905 249.673 C 43.200 248.523,43.354 246.758,43.247 245.752 L 43.052 243.922 42.958 245.752 M19.477 245.746 C 17.116 247.185,17.337 247.537,19.739 246.162 C 22.154 244.780,22.252 244.705,21.656 244.708 C 21.392 244.709,20.412 245.176,19.477 245.746 M16.175 252.729 C 15.739 254.462,15.726 255.572,16.131 256.732 C 16.438 257.614,16.482 258.208,16.228 258.051 C 15.353 257.510,15.114 254.778,15.728 252.340 C 16.066 250.995,16.441 249.993,16.561 250.112 C 16.681 250.232,16.507 251.410,16.175 252.729 M30.931 252.560 C 28.429 254.644,24.302 254.884,21.033 253.135 C 19.244 252.177,19.653 251.989,21.683 252.837 C 24.178 253.880,27.617 253.785,29.804 252.612 C 32.195 251.331,32.418 251.321,30.931 252.560 M35.033 259.608 C 34.215 262.085,33.841 261.711,34.614 259.190 C 34.941 258.126,35.310 257.357,35.434 257.482 C 35.558 257.606,35.378 258.563,35.033 259.608 M20.227 261.373 C 22.162 262.369,26.338 262.097,28.034 260.864 L 29.542 259.767 28.075 261.125 C 25.491 263.518,20.095 262.837,17.519 259.792 L 16.478 258.562 17.782 259.673 C 18.498 260.284,19.599 261.049,20.227 261.373 M33.159 264.532 C 32.680 265.730,32.202 266.624,32.097 266.520 C 31.992 266.415,32.294 265.344,32.767 264.139 C 33.240 262.935,33.718 262.040,33.829 262.151 C 33.940 262.262,33.638 263.333,33.159 264.532 M34.798 272.889 C 34.054 274.356,33.335 275.556,33.199 275.556 C 33.064 275.556,33.584 274.268,34.356 272.694 C 35.128 271.121,35.847 269.921,35.954 270.028 C 36.061 270.135,35.541 271.423,34.798 272.889 M17.974 299.542 C 17.790 300.461,17.531 301.104,17.398 300.971 C 17.264 300.837,17.318 299.989,17.516 299.085 C 17.987 296.941,18.410 297.363,17.974 299.542 M21.222 312.288 C 21.257 318.834,21.523 321.979,22.379 325.989 C 22.990 328.852,23.404 331.281,23.298 331.386 C 22.201 332.483,20.119 314.473,20.632 308.320 C 21.138 302.246,21.169 302.459,21.222 312.288 M15.893 311.895 C 15.893 315.922,15.975 317.500,16.075 315.402 C 16.174 313.304,16.174 310.010,16.073 308.082 C 15.973 306.153,15.892 307.869,15.893 311.895 M26.622 309.978 C 25.298 314.090,25.778 315.829,28.524 316.873 C 30.066 317.460,30.225 317.921,28.752 317.536 C 27.610 317.237,25.098 314.525,25.098 313.592 C 25.098 312.677,27.365 305.884,27.594 306.113 C 27.708 306.226,27.270 307.966,26.622 309.978 M35.948 310.067 C 37.449 312.264,37.475 315.286,36.019 318.294 C 34.707 321.003,34.152 320.983,35.287 318.267 C 36.940 314.312,36.290 311.307,33.010 307.738 L 31.111 305.672 32.941 307.008 C 33.948 307.744,35.301 309.120,35.948 310.067 M43.457 309.773 C 43.554 311.585,43.327 313.445,42.962 313.831 C 42.771 314.033,42.694 313.057,42.792 311.662 C 42.890 310.267,42.700 308.573,42.371 307.896 C 41.801 306.726,41.811 306.715,42.586 307.682 C 43.033 308.240,43.425 309.181,43.457 309.773 M29.351 320.131 C 29.181 321.192,29.002 321.475,28.875 320.884 C 28.680 319.986,29.035 318.431,29.436 318.431 C 29.539 318.431,29.501 319.196,29.351 320.131 M38.065 322.874 C 35.727 325.047,33.968 325.564,31.869 324.695 C 29.826 323.849,30.163 323.492,32.257 324.282 C 34.173 325.005,36.358 324.281,38.209 322.311 C 38.863 321.615,39.533 321.052,39.699 321.060 C 39.865 321.068,39.129 321.884,38.065 322.874 M20.329 334.106 C 20.667 335.106,20.718 335.694,20.443 335.413 C 20.168 335.132,19.776 334.196,19.571 333.333 C 19.091 331.310,19.537 331.764,20.329 334.106 M25.126 336.020 C 25.414 336.779,25.553 337.497,25.435 337.616 C 25.316 337.734,24.969 337.113,24.663 336.236 C 23.983 334.285,24.393 334.094,25.126 336.020 M25.061 346.405 C 25.061 346.693,24.725 346.340,24.314 345.621 C 23.903 344.902,23.566 344.078,23.566 343.791 C 23.566 343.503,23.903 343.856,24.314 344.575 C 24.725 345.294,25.061 346.118,25.061 346.405 M33.202 365.752 C 33.386 366.902,33.293 368.431,32.996 369.150 C 32.537 370.264,32.500 370.146,32.746 368.359 C 32.940 366.952,32.675 365.190,31.943 363.016 C 31.341 361.231,30.863 359.588,30.879 359.363 C 30.944 358.451,32.892 363.808,33.202 365.752 M27.065 373.180 C 27.715 373.305,28.657 373.301,29.156 373.170 C 29.656 373.039,29.124 372.937,27.974 372.942 C 26.824 372.948,26.415 373.055,27.065 373.180 " stroke="none" fill="#ffffff" fill-rule="evenodd"></path></g></svg>