<?xml version="1.0" encoding="UTF-8" standalone="no"?>
<svg
   id="svg8"
   version="1.1"
   viewBox="0 0 110.80405 239.36057"
   height="239.36057mm"
   width="110.80405mm">
  <g
     transform="translate(-52.926259,-23.647132)"
     id="layer1">
    <path
       id="body-head"
       d="m 108.85714,24.979632 c -15.803219,0 -28.603513,13.335984 -28.603513,29.738281 0,16.402298 12.800294,29.736328 28.603513,29.736328 15.80322,0 28.60352,-13.33403 28.60352,-29.736328 0,-16.402297 -12.8003,-29.738281 -28.60352,-29.738281 z m 0,1.265625 c 15.09185,0 27.33789,12.72738 27.33789,28.472656 0,15.745277 -12.24604,28.470704 -27.33789,28.470704 -15.091846,0 -27.337888,-12.725427 -27.337888,-28.470704 0,-15.745276 12.246042,-28.472656 27.337888,-28.472656 z"
       style="color:#000000;font-style:normal;font-variant:normal;font-weight:normal;font-stretch:normal;font-size:medium;line-height:normal;font-family:sans-serif;font-variant-ligatures:normal;font-variant-position:normal;font-variant-caps:normal;font-variant-numeric:normal;font-variant-alternates:normal;font-feature-settings:normal;text-indent:0;text-align:start;text-decoration:none;text-decoration-line:none;text-decoration-style:solid;text-decoration-color:#000000;letter-spacing:normal;word-spacing:normal;text-transform:none;writing-mode:lr-tb;direction:ltr;text-orientation:mixed;dominant-baseline:auto;baseline-shift:baseline;text-anchor:start;white-space:normal;shape-padding:0;clip-rule:nonzero;display:inline;overflow:visible;visibility:visible;opacity:1;isolation:auto;mix-blend-mode:normal;color-interpolation:sRGB;color-interpolation-filters:linearRGB;solid-color:#000000;solid-opacity:1;vector-effect:none;fill:#000000;fill-opacity:1;fill-rule:nonzero;stroke:#000000;stroke-width:2.66499996;stroke-linecap:butt;stroke-linejoin:miter;stroke-miterlimit:4;stroke-dasharray:none;stroke-dashoffset:0;stroke-opacity:1;color-rendering:auto;image-rendering:auto;shape-rendering:auto;text-rendering:auto;enable-background:accumulate" />
    <path
       id="body-main"
       d="m 109.61309,82.309522 0.75596,99.785718"
       style="fill:none;stroke:#000000;stroke-width:3.96499991;stroke-linecap:butt;stroke-linejoin:miter;stroke-miterlimit:4;stroke-dasharray:none;stroke-opacity:1" />
    <path
       id="body-left-leg"
       d="M 110.36905,182.09524 C 54.428572,256.17857 54.428572,256.17857 54.428572,256.17857"
       style="fill:none;stroke:#000000;stroke-width:3.7650001;stroke-linecap:butt;stroke-linejoin:miter;stroke-miterlimit:4;stroke-dasharray:none;stroke-opacity:1" />
    <path
       id="body-right-leg"
       d="m 110.36905,182.09524 52.16071,80.13096"
       style="fill:none;stroke:#000000;stroke-width:2.86500001;stroke-linecap:butt;stroke-linejoin:miter;stroke-miterlimit:4;stroke-dasharray:none;stroke-opacity:1" />
    <path
       id="body-arms"
       d="m 66.523808,117.08333 c 86.934522,-1.5119 86.934522,-1.5119 86.934522,-1.5119"
       style="fill:none;stroke:#000000;stroke-width:2.7650001;stroke-linecap:butt;stroke-linejoin:miter;stroke-miterlimit:4;stroke-dasharray:none;stroke-opacity:1" />
  </g>
</svg>
